<svg width="18" height="14" viewBox="0 0 18 14" fill="none" xmlns="http://www.w3.org/2000/svg">
<path d="M17.639 4.9082C17.7718 4.80859 17.971 4.9082 17.971 5.07422V11.8477C17.971 12.7441 17.2405 13.4414 16.3772 13.4414H2.56475C1.66826 13.4414 0.970997 12.7441 0.970997 11.8477V5.07422C0.970997 4.9082 1.13701 4.80859 1.26982 4.9082C2.0335 5.50586 2.99639 6.23633 6.38311 8.69336C7.08037 9.19141 8.27568 10.2871 9.471 10.2871C10.6331 10.2871 11.8616 9.19141 12.5257 8.69336C15.9124 6.23633 16.8753 5.50586 17.639 4.9082ZM9.471 9.19141C8.67412 9.22461 7.57842 8.22852 7.01397 7.83008C2.59795 4.64258 2.26592 4.34375 1.26982 3.54688C1.07061 3.41406 0.970997 3.18164 0.970997 2.91602V2.28516C0.970997 1.42188 1.66826 0.691406 2.56475 0.691406H16.3772C17.2405 0.691406 17.971 1.42188 17.971 2.28516V2.91602C17.971 3.18164 17.8382 3.41406 17.639 3.54688C16.6429 4.34375 16.3108 4.64258 11.8948 7.83008C11.3304 8.22852 10.2347 9.22461 9.471 9.19141Z" fill="#0B70E2"/>
</svg>
