<svg width="15" height="18" viewBox="0 0 15 18" fill="none" xmlns="http://www.w3.org/2000/svg">
<path d="M7.4578 8.81641C5.10038 8.81641 3.2078 6.92383 3.2078 4.56641C3.2078 2.24219 5.10038 0.316406 7.4578 0.316406C9.78202 0.316406 11.7078 2.24219 11.7078 4.56641C11.7078 6.92383 9.78202 8.81641 7.4578 8.81641ZM10.4129 9.87891C12.8699 9.87891 14.8953 11.9043 14.8953 14.3613V15.7227C14.8953 16.6191 14.1648 17.3164 13.3016 17.3164H1.61405C0.71757 17.3164 0.0203047 16.6191 0.0203047 15.7227V14.3613C0.0203047 11.9043 2.01249 9.87891 4.46952 9.87891H5.03398C5.76445 10.2441 6.59452 10.4102 7.4578 10.4102C8.32109 10.4102 9.11796 10.2441 9.84843 9.87891H10.4129Z" fill="#0B70E2"/>
</svg>
