<svg width="24" height="18" viewBox="0 0 24 18" fill="none" xmlns="http://www.w3.org/2000/svg">
<path d="M17.9878 0.880001C18.9478 0.880001 19.7878 1.06 20.5078 1.42C21.2278 1.82 21.8078 2.34 22.2478 2.98C22.6478 3.62 22.9678 4.38 23.2078 5.26C23.4478 6.14 23.5678 7.06 23.5678 8.02C23.5678 9.98 23.0678 11.82 22.0678 13.54C21.0278 15.26 19.4278 16.62 17.2678 17.62L16.7278 16.54C17.8478 16.02 18.8478 15.26 19.7278 14.26C20.5678 13.3 21.0678 12.28 21.2278 11.2C21.4678 10.36 21.4878 9.54 21.2878 8.74C20.4078 9.7 19.2278 10.18 17.7478 10.18C16.3878 10.18 15.2678 9.76 14.3878 8.92C13.5078 8.12 13.0678 7 13.0678 5.56C13.0678 4.16 13.5278 3.02 14.4478 2.14C15.3678 1.3 16.5478 0.880001 17.9878 0.880001ZM5.62776 0.880001C6.58776 0.880001 7.42776 1.06 8.14776 1.42C8.86776 1.82 9.44776 2.34 9.88776 2.98C10.2878 3.62 10.6078 4.38 10.8478 5.26C11.0878 6.14 11.2078 7.06 11.2078 8.02C11.2078 9.98 10.7078 11.82 9.70776 13.54C8.66776 15.26 7.06776 16.62 4.90776 17.62L4.36776 16.54C5.48776 16.02 6.48776 15.26 7.36776 14.26C8.20776 13.3 8.70776 12.28 8.86776 11.2C9.10776 10.36 9.12776 9.54 8.92776 8.74C8.04776 9.7 6.86776 10.18 5.38776 10.18C4.02776 10.18 2.90776 9.76 2.02776 8.92C1.14776 8.12 0.707763 7 0.707763 5.56C0.707763 4.16 1.16776 3.02 2.08776 2.14C3.00776 1.3 4.18776 0.880001 5.62776 0.880001Z" fill="#0B70E2"/>
</svg>
