<svg width="22" height="22" viewBox="0 0 22 22" fill="none" xmlns="http://www.w3.org/2000/svg">
<g clip-path="url(#clip0_1_1873)">
<path d="M21.4167 9.75H19.5833V7.91667C19.5833 7.67355 19.4868 7.44039 19.3148 7.26849C19.1429 7.09658 18.9098 7 18.6667 7C18.4236 7 18.1904 7.09658 18.0185 7.26849C17.8466 7.44039 17.75 7.67355 17.75 7.91667V9.75H15.9167C15.6736 9.75 15.4404 9.84658 15.2685 10.0185C15.0966 10.1904 15 10.4236 15 10.6667C15 10.9098 15.0966 11.1429 15.2685 11.3148C15.4404 11.4868 15.6736 11.5833 15.9167 11.5833H17.75V13.4167C17.75 13.6598 17.8466 13.8929 18.0185 14.0648C18.1904 14.2368 18.4236 14.3333 18.6667 14.3333C18.9098 14.3333 19.1429 14.2368 19.3148 14.0648C19.4868 13.8929 19.5833 13.6598 19.5833 13.4167V11.5833H21.4167C21.6598 11.5833 21.8929 11.4868 22.0648 11.3148C22.2368 11.1429 22.3333 10.9098 22.3333 10.6667C22.3333 10.4236 22.2368 10.1904 22.0648 10.0185C21.8929 9.84658 21.6598 9.75 21.4167 9.75Z" fill="white"/>
<path d="M8.25 11C9.3378 11 10.4012 10.6774 11.3056 10.0731C12.2101 9.46874 12.9151 8.60976 13.3313 7.60476C13.7476 6.59977 13.8565 5.4939 13.6443 4.42701C13.4321 3.36011 12.9083 2.3801 12.1391 1.61092C11.3699 0.841726 10.3899 0.317902 9.323 0.105683C8.2561 -0.106535 7.15024 0.00238307 6.14524 0.418665C5.14025 0.834947 4.28127 1.5399 3.67692 2.44437C3.07257 3.34884 2.75 4.41221 2.75 5.5C2.75146 6.95825 3.33139 8.35635 4.36252 9.38748C5.39366 10.4186 6.79176 10.9985 8.25 11ZM8.25 1.83334C8.9752 1.83334 9.68411 2.04838 10.2871 2.45128C10.8901 2.85418 11.36 3.42683 11.6376 4.09683C11.9151 4.76683 11.9877 5.50407 11.8462 6.21533C11.7047 6.9266 11.3555 7.57994 10.8427 8.09273C10.3299 8.60552 9.6766 8.95474 8.96533 9.09622C8.25407 9.23769 7.51682 9.16508 6.84683 8.88756C6.17683 8.61004 5.60418 8.14007 5.20128 7.53709C4.79838 6.93411 4.58333 6.2252 4.58333 5.5C4.58333 4.52754 4.96964 3.59491 5.65728 2.90728C6.34491 2.21964 7.27754 1.83334 8.25 1.83334Z" fill="white"/>
<path d="M8.25 12.8333C6.06271 12.8358 3.9657 13.7057 2.41905 15.2524C0.872399 16.799 0.00242628 18.8961 0 21.0833C0 21.3265 0.0965771 21.5596 0.268485 21.7315C0.440394 21.9034 0.673552 22 0.916667 22C1.15978 22 1.39294 21.9034 1.56485 21.7315C1.73676 21.5596 1.83333 21.3265 1.83333 21.0833C1.83333 19.3815 2.50937 17.7494 3.71273 16.5461C4.91609 15.3427 6.54819 14.6667 8.25 14.6667C9.95181 14.6667 11.5839 15.3427 12.7873 16.5461C13.9906 17.7494 14.6667 19.3815 14.6667 21.0833C14.6667 21.3265 14.7632 21.5596 14.9352 21.7315C15.1071 21.9034 15.3402 22 15.5833 22C15.8264 22 16.0596 21.9034 16.2315 21.7315C16.4034 21.5596 16.5 21.3265 16.5 21.0833C16.4976 18.8961 15.6276 16.799 14.081 15.2524C12.5343 13.7057 10.4373 12.8358 8.25 12.8333Z" fill="white"/>
</g>
<defs>
<clipPath id="clip0_1_1873">
<rect width="22" height="22" fill="white"/>
</clipPath>
</defs>
</svg>
