<svg width="23" height="23" viewBox="0 0 22 22" fill="none" xmlns="http://www.w3.org/2000/svg">
<g clip-path="url(#clip0_1_872)">
<path d="M21.0833 10.0835H19.25V8.25016C19.25 8.00705 19.1534 7.77389 18.9815 7.60198C18.8096 7.43007 18.5765 7.3335 18.3333 7.3335C18.0902 7.3335 17.8571 7.43007 17.6852 7.60198C17.5132 7.77389 17.4167 8.00705 17.4167 8.25016V10.0835H15.5833C15.3402 10.0835 15.1071 10.1801 14.9352 10.352C14.7632 10.5239 14.6667 10.757 14.6667 11.0002C14.6667 11.2433 14.7632 11.4764 14.9352 11.6483C15.1071 11.8203 15.3402 11.9168 15.5833 11.9168H17.4167V13.7502C17.4167 13.9933 17.5132 14.2264 17.6852 14.3983C17.8571 14.5703 18.0902 14.6668 18.3333 14.6668C18.5765 14.6668 18.8096 14.5703 18.9815 14.3983C19.1534 14.2264 19.25 13.9933 19.25 13.7502V11.9168H21.0833C21.3265 11.9168 21.5596 11.8203 21.7315 11.6483C21.9034 11.4764 22 11.2433 22 11.0002C22 10.757 21.9034 10.5239 21.7315 10.352C21.5596 10.1801 21.3265 10.0835 21.0833 10.0835Z" fill="#787486"/>
<path d="M8.25 11C9.3378 11 10.4012 10.6774 11.3056 10.0731C12.2101 9.46874 12.9151 8.60976 13.3313 7.60476C13.7476 6.59977 13.8565 5.4939 13.6443 4.42701C13.4321 3.36011 12.9083 2.3801 12.1391 1.61092C11.3699 0.841726 10.3899 0.317902 9.323 0.105683C8.2561 -0.106535 7.15024 0.00238307 6.14524 0.418665C5.14025 0.834947 4.28127 1.5399 3.67692 2.44437C3.07257 3.34884 2.75 4.41221 2.75 5.5C2.75146 6.95825 3.33139 8.35635 4.36252 9.38748C5.39366 10.4186 6.79176 10.9985 8.25 11ZM8.25 1.83334C8.9752 1.83334 9.68411 2.04838 10.2871 2.45128C10.8901 2.85418 11.36 3.42683 11.6376 4.09683C11.9151 4.76683 11.9877 5.50407 11.8462 6.21533C11.7047 6.9266 11.3555 7.57994 10.8427 8.09273C10.3299 8.60552 9.6766 8.95474 8.96533 9.09622C8.25407 9.23769 7.51682 9.16508 6.84683 8.88756C6.17683 8.61004 5.60418 8.14007 5.20128 7.53709C4.79838 6.93411 4.58333 6.2252 4.58333 5.5C4.58333 4.52754 4.96964 3.59491 5.65728 2.90728C6.34491 2.21964 7.27754 1.83334 8.25 1.83334Z" fill="#787486"/>
<path d="M8.25 12.8335C6.06271 12.8359 3.9657 13.7059 2.41905 15.2525C0.872399 16.7992 0.00242628 18.8962 0 21.0835C0 21.3266 0.0965771 21.5598 0.268485 21.7317C0.440394 21.9036 0.673552 22.0002 0.916667 22.0002C1.15978 22.0002 1.39294 21.9036 1.56485 21.7317C1.73676 21.5598 1.83333 21.3266 1.83333 21.0835C1.83333 19.3817 2.50937 17.7496 3.71273 16.5462C4.91609 15.3429 6.54819 14.6668 8.25 14.6668C9.95181 14.6668 11.5839 15.3429 12.7873 16.5462C13.9906 17.7496 14.6667 19.3817 14.6667 21.0835C14.6667 21.3266 14.7632 21.5598 14.9352 21.7317C15.1071 21.9036 15.3402 22.0002 15.5833 22.0002C15.8264 22.0002 16.0596 21.9036 16.2315 21.7317C16.4034 21.5598 16.5 21.3266 16.5 21.0835C16.4976 18.8962 15.6276 16.7992 14.081 15.2525C12.5343 13.7059 10.4373 12.8359 8.25 12.8335Z" fill="#787486"/>
</g>
<defs>
<clipPath id="clip0_1_872">
<rect width="22" height="22" fill="white"/>
</clipPath>
</defs>
</svg>
