<svg width="600" height="600" viewBox="0 0 600 600" fill="none" xmlns="http://www.w3.org/2000/svg">
<path d="M600 458.88H0V459.18H600V458.88Z" fill="#EBEBEB"/>
<path d="M539.88 478.188H513.864V478.488H539.88V478.188Z" fill="#EBEBEB"/>
<path d="M413.604 471.972H372.672V472.272H413.604V471.972Z" fill="#EBEBEB"/>
<path d="M529.344 467.052H475.908V467.352H529.344V467.052Z" fill="#EBEBEB"/>
<path d="M207.624 473.1H194.256V473.4H207.624V473.1Z" fill="#EBEBEB"/>
<path d="M183.564 473.1H137.496V473.4H183.564V473.1Z" fill="#EBEBEB"/>
<path d="M112.812 468.036H79.572V468.336H112.812V468.036Z" fill="#EBEBEB"/>
<path d="M284.4 405.36H52.6921C50.8769 405.357 49.1371 404.634 47.8547 403.349C46.5723 402.064 45.852 400.323 45.8521 398.508V72.792C45.8679 70.9872 46.5951 69.2616 47.8758 67.9899C49.1565 66.7181 50.8872 66.0031 52.6921 66H284.4C286.217 66 287.96 66.7219 289.245 68.0069C290.53 69.2919 291.252 71.0347 291.252 72.852V398.508C291.252 400.325 290.53 402.068 289.245 403.353C287.96 404.638 286.217 405.36 284.4 405.36ZM52.6921 66.24C50.9564 66.2432 49.293 66.9349 48.0668 68.1633C46.8407 69.3917 46.152 71.0564 46.1521 72.792V398.508C46.152 400.244 46.8407 401.908 48.0668 403.137C49.293 404.365 50.9564 405.057 52.6921 405.06H284.4C286.137 405.057 287.801 404.366 289.03 403.137C290.258 401.909 290.949 400.245 290.952 398.508V72.792C290.949 71.0553 290.258 69.3906 289.03 68.1625C287.801 66.9345 286.137 66.2432 284.4 66.24H52.6921Z" fill="#EBEBEB"/>
<path d="M543.972 405.36H312.252C310.436 405.357 308.695 404.634 307.41 403.35C306.126 402.065 305.403 400.324 305.4 398.508V72.792C305.419 70.9861 306.149 69.2605 307.431 67.9891C308.714 66.7177 310.446 66.0031 312.252 66H543.972C545.775 66.0062 547.502 66.7227 548.781 67.9941C550.059 69.2654 550.784 70.9893 550.8 72.792V398.508C550.8 400.321 550.081 402.06 548.802 403.345C547.522 404.629 545.785 405.354 543.972 405.36ZM312.252 66.24C310.515 66.2432 308.851 66.9345 307.623 68.1625C306.395 69.3906 305.703 71.0553 305.7 72.792V398.508C305.703 400.245 306.395 401.909 307.623 403.137C308.851 404.366 310.515 405.057 312.252 405.06H543.972C545.709 405.057 547.373 404.366 548.601 403.137C549.83 401.909 550.521 400.245 550.524 398.508V72.792C550.521 71.0553 549.83 69.3906 548.601 68.1625C547.373 66.9345 545.709 66.2432 543.972 66.24H312.252Z" fill="#EBEBEB"/>
<path d="M138 209.556C144.655 209.556 151.037 206.912 155.743 202.207C160.448 197.501 163.092 191.119 163.092 184.464C163.092 177.809 160.448 171.427 155.743 166.721C151.037 162.016 144.655 159.372 138 159.372H134.916V209.556H138Z" fill="#E0E0E0"/>
<path d="M134.892 209.556C148.75 209.556 159.984 198.322 159.984 184.464C159.984 170.606 148.75 159.372 134.892 159.372C121.034 159.372 109.8 170.606 109.8 184.464C109.8 198.322 121.034 209.556 134.892 209.556Z" fill="#F5F5F5"/>
<path d="M133.74 187.608C124.829 187.608 116.282 184.068 109.981 177.767C103.68 171.465 100.14 162.919 100.14 154.008V133.956C100.14 133.119 100.473 132.316 101.064 131.724C101.656 131.132 102.459 130.8 103.296 130.8C104.133 130.8 104.936 131.132 105.528 131.724C106.12 132.316 106.452 133.119 106.452 133.956V154.02C106.458 161.253 109.334 168.188 114.447 173.304C119.561 178.42 126.495 181.298 133.728 181.308C134.158 181.281 134.589 181.343 134.994 181.489C135.399 181.636 135.77 181.863 136.084 182.158C136.398 182.454 136.648 182.81 136.819 183.205C136.99 183.601 137.079 184.027 137.079 184.458C137.079 184.889 136.99 185.315 136.819 185.71C136.648 186.106 136.398 186.462 136.084 186.757C135.77 187.052 135.399 187.28 134.994 187.426C134.589 187.573 134.158 187.634 133.728 187.608H133.74Z" fill="#E0E0E0"/>
<path d="M75.396 151.62H131.22C132.113 151.62 132.994 151.415 133.795 151.021C134.596 150.627 135.296 150.054 135.841 149.347C136.386 148.64 136.761 147.817 136.938 146.942C137.114 146.067 137.088 145.163 136.86 144.3L132 126C131.672 124.757 130.942 123.657 129.925 122.871C128.907 122.085 127.658 121.658 126.372 121.656H80.244C78.9568 121.658 77.7061 122.084 76.6863 122.87C75.6664 123.655 74.9345 124.756 74.604 126L69.804 144.276C69.5704 145.137 69.5379 146.04 69.7089 146.916C69.88 147.791 70.25 148.616 70.7905 149.326C71.331 150.035 72.0274 150.611 72.826 151.009C73.6246 151.407 74.5039 151.616 75.396 151.62Z" fill="#F5F5F5"/>
<path d="M492.336 209.556C498.991 209.556 505.373 206.912 510.079 202.207C514.784 197.501 517.428 191.119 517.428 184.464C517.428 177.809 514.784 171.427 510.079 166.721C505.373 162.016 498.991 159.372 492.336 159.372H489.252V209.556H492.336Z" fill="#E0E0E0"/>
<path d="M489.252 209.556C503.11 209.556 514.344 198.322 514.344 184.464C514.344 170.606 503.11 159.372 489.252 159.372C475.394 159.372 464.16 170.606 464.16 184.464C464.16 198.322 475.394 209.556 489.252 209.556Z" fill="#F5F5F5"/>
<path d="M488.1 187.608C479.189 187.608 470.642 184.068 464.341 177.767C458.04 171.465 454.5 162.919 454.5 154.008V133.956C454.5 133.119 454.832 132.316 455.424 131.724C456.016 131.132 456.819 130.8 457.656 130.8C458.493 130.8 459.296 131.132 459.888 131.724C460.479 132.316 460.812 133.119 460.812 133.956V154.02C460.818 161.253 463.694 168.188 468.807 173.304C473.921 178.42 480.855 181.298 488.088 181.308C488.518 181.281 488.949 181.343 489.354 181.489C489.759 181.636 490.13 181.863 490.444 182.158C490.758 182.454 491.008 182.81 491.179 183.205C491.35 183.601 491.439 184.027 491.439 184.458C491.439 184.889 491.35 185.315 491.179 185.71C491.008 186.106 490.758 186.462 490.444 186.757C490.13 187.052 489.759 187.28 489.354 187.426C488.949 187.573 488.518 187.634 488.088 187.608H488.1Z" fill="#E0E0E0"/>
<path d="M429.756 151.62H485.58C486.473 151.62 487.354 151.416 488.155 151.022C488.956 150.628 489.656 150.055 490.201 149.348C490.746 148.64 491.121 147.818 491.298 146.942C491.474 146.067 491.448 145.163 491.22 144.3L486.42 126.024C486.092 124.781 485.362 123.681 484.344 122.895C483.327 122.11 482.078 121.683 480.792 121.68H434.604C433.317 121.682 432.066 122.109 431.046 122.894C430.026 123.68 429.294 124.78 428.964 126.024L424.164 144.3C423.935 145.16 423.905 146.06 424.079 146.933C424.252 147.805 424.622 148.627 425.162 149.333C425.702 150.04 426.397 150.614 427.194 151.01C427.99 151.407 428.866 151.615 429.756 151.62Z" fill="#F5F5F5"/>
<path d="M160.776 379.032H179.028V308.316H160.776V379.032Z" fill="#E6E6E6"/>
<path d="M111.3 379.02H171.864L181.008 296.256H120.444L111.3 379.02Z" fill="#F0F0F0"/>
<path d="M104.736 379.02H167.304L176.448 296.256H113.892L104.736 379.02Z" fill="#F5F5F5"/>
<path d="M162.78 372.504L170.484 302.784H118.404L110.7 372.504H162.78Z" fill="white"/>
<path d="M152.028 355.596L152.4 352.8C154.332 335.304 143.412 319.716 129.228 319.716L128.904 322.56C126.972 340.044 137.892 355.632 152.088 355.632L152.028 355.596Z" fill="#F5F5F5"/>
<path d="M70.9081 458.88H124.716L124.716 379.02H70.9081V458.88Z" fill="#E6E6E6"/>
<path d="M76.308 458.88H70.896V443.484H81.984L76.308 458.88Z" fill="#F0F0F0"/>
<path d="M221.712 458.88H275.52V379.02H221.712V458.88Z" fill="#E6E6E6"/>
<path d="M70.896 449.436H226.428V379.032H70.896V449.436Z" fill="#F0F0F0"/>
<path d="M221.016 458.88H226.428V443.484H215.34L221.016 458.88Z" fill="#F0F0F0"/>
<path d="M75.096 411.84H222.228V383.424H75.096V411.84Z" fill="#E6E6E6"/>
<path d="M138.852 402H158.472C162.69 402.002 166.865 401.143 170.74 399.476C174.615 397.809 178.109 395.368 181.008 392.304H116.316C119.217 395.367 122.711 397.806 126.586 399.473C130.46 401.14 134.634 402 138.852 402Z" fill="#F0F0F0"/>
<path d="M75.096 444.84H222.228V416.424H75.096V444.84Z" fill="#E6E6E6"/>
<path d="M138.852 434.952H158.472C162.69 434.954 166.865 434.095 170.74 432.427C174.615 430.76 178.109 428.32 181.008 425.256H116.316C119.217 428.318 122.711 430.757 126.586 432.424C130.46 434.092 134.634 434.951 138.852 434.952Z" fill="#F0F0F0"/>
<path d="M216.576 375.768H217.968C217.968 372.9 217.968 365.64 218.112 348.996C218.364 318.816 218.844 316.98 218.844 316.98L215.532 330.912C213.432 346.332 216.144 361.836 216.576 375.768Z" fill="#E6E6E6"/>
<path d="M213.828 328.8C209.028 323.124 198.888 321.468 188.472 320.052C184.38 319.5 199.212 328.848 206.472 335.484C212.112 340.644 215.712 342.072 217.272 347.208C218.064 340.8 217.932 333.732 213.828 328.8Z" fill="#E6E6E6"/>
<path d="M220.152 338.976C224.952 333.3 235.092 331.656 245.508 330.24C249.6 329.688 234.708 339.036 227.508 345.672C221.868 350.832 218.268 352.26 216.708 357.396C215.916 350.988 216 343.872 220.152 338.976Z" fill="#E6E6E6"/>
<path d="M218.112 315.6C221.712 308.808 230.664 302.4 240.756 300C244.716 299.052 231.576 312.528 226.584 321.228C222.708 327.972 217.572 335.916 216.768 341.628C215.568 330.372 214.536 322.428 218.112 315.6Z" fill="#E6E6E6"/>
<path d="M217.68 379.02C213.432 379.02 209.916 376.896 209.664 374.16L208.956 369.504H226.416L225.696 374.16C225.456 376.896 222 379.02 217.68 379.02Z" fill="#F0F0F0"/>
<path d="M227.544 371.292H207.828L207.264 366.096H228.108L227.544 371.292Z" fill="#F0F0F0"/>
<path d="M203.448 272.064H395.7V96.708L203.448 96.708L203.448 272.064Z" fill="#E6E6E6"/>
<path d="M199.128 272.064H393.816V96.708L199.128 96.708L199.128 272.064Z" fill="#F5F5F5"/>
<path d="M386.04 264.216V104.568L206.88 104.568V264.216H386.04Z" fill="#FAFAFA"/>
<path d="M364.068 264.216L293.556 104.568H269.604L340.116 264.216H364.068Z" fill="white"/>
<path d="M333.324 264.216L262.812 104.568H246.324L316.836 264.216H333.324Z" fill="white"/>
<path d="M273.408 264.204V104.556H264.144V264.204H273.408Z" fill="#E6E6E6"/>
<path d="M334.992 264.204V104.556H325.728V264.204H334.992Z" fill="#E6E6E6"/>
<path d="M271.74 269.196V98.7241H260.028V269.196H271.74Z" fill="#F5F5F5"/>
<path d="M333.324 269.196V98.7241H321.612V269.196H333.324Z" fill="#F5F5F5"/>
<path d="M207.72 264.216V104.568H206.892V264.216H207.72Z" fill="#E6E6E6"/>
<path d="M195.864 86.604H404.136C404.402 86.6071 404.657 86.7143 404.845 86.9027C405.034 87.0911 405.141 87.3456 405.144 87.612C405.141 87.8773 405.033 88.1306 404.844 88.317C404.656 88.5035 404.401 88.608 404.136 88.608H195.864C195.599 88.608 195.344 88.5035 195.155 88.317C194.967 88.1306 194.859 87.8773 194.856 87.612C194.859 87.3456 194.966 87.0911 195.155 86.9027C195.343 86.7143 195.598 86.6071 195.864 86.604Z" fill="#E6E6E6"/>
<path d="M395.7 93.2161C396.058 93.2129 396.399 93.0687 396.651 92.8147C396.903 92.5608 397.044 92.2177 397.044 91.8601V88.9561C397.046 88.7786 397.012 88.6025 396.945 88.4381C396.878 88.2736 396.78 88.1241 396.655 87.998C396.53 87.8719 396.381 87.7718 396.217 87.7035C396.053 87.6353 395.878 87.6001 395.7 87.6001C395.342 87.6001 394.999 87.7413 394.745 87.993C394.491 88.2447 394.347 88.5866 394.344 88.9441V91.8481C394.344 92.2088 394.486 92.555 394.74 92.8112C394.994 93.0674 395.339 93.2129 395.7 93.2161Z" fill="#E6E6E6"/>
<path d="M210.96 93.2161C211.319 93.213 211.662 93.0691 211.915 92.8155C212.169 92.5618 212.313 92.2188 212.316 91.8601V88.9561C212.316 88.5965 212.173 88.2516 211.919 87.9973C211.665 87.743 211.32 87.6001 210.96 87.6001C210.604 87.6001 210.262 87.7417 210.01 87.9937C209.758 88.2458 209.616 88.5877 209.616 88.9441V91.8481C209.614 92.0262 209.648 92.2028 209.715 92.3679C209.781 92.5331 209.88 92.6834 210.005 92.8105C210.13 92.9375 210.278 93.0387 210.442 93.1083C210.606 93.1779 210.782 93.2145 210.96 93.2161Z" fill="#E6E6E6"/>
<path opacity="0.6" d="M196.176 224.928L390.732 224.928V87.6002L196.176 87.6002L196.176 224.928Z" fill="#E0E0E0"/>
<path d="M408.348 311.964H374.796C371.231 311.964 368.34 314.854 368.34 318.42V333.948C368.34 337.513 371.231 340.404 374.796 340.404H408.348C411.914 340.404 414.804 337.513 414.804 333.948V318.42C414.804 314.854 411.914 311.964 408.348 311.964Z" fill="#FAFAFA"/>
<path d="M412.632 306.708H370.512C369.313 306.708 368.34 307.68 368.34 308.88V310.632C368.34 311.832 369.313 312.804 370.512 312.804H412.632C413.832 312.804 414.804 311.832 414.804 310.632V308.88C414.804 307.68 413.832 306.708 412.632 306.708Z" fill="#E6E6E6"/>
<path d="M369.024 372C369.024 372 369.636 392.004 392.94 392.004C416.244 392.004 416.856 372 416.856 372H369.024Z" fill="#F0F0F0"/>
<path d="M422.16 372C422.16 372 422.772 392.004 446.076 392.004C469.38 392.004 469.992 372 469.992 372H422.16Z" fill="#F0F0F0"/>
<path d="M458.448 299.088H412.368C407.464 299.088 403.488 303.064 403.488 307.968V331.536C403.488 336.44 407.464 340.416 412.368 340.416H458.448C463.352 340.416 467.328 336.44 467.328 331.536V307.968C467.328 303.064 463.352 299.088 458.448 299.088Z" fill="#F0F0F0"/>
<path d="M464.352 291.864H406.464C404.82 291.864 403.488 293.196 403.488 294.84V297.264C403.488 298.907 404.82 300.24 406.464 300.24H464.352C465.996 300.24 467.328 298.907 467.328 297.264V294.84C467.328 293.196 465.996 291.864 464.352 291.864Z" fill="#F5F5F5"/>
<path d="M351.468 458.88H357.516V359.712H351.468V458.88Z" fill="#E6E6E6"/>
<path d="M526.104 340.404H493.356V359.7H526.104V340.404Z" fill="#E6E6E6"/>
<path d="M330.528 359.712H493.344V340.416H330.528V359.712Z" fill="#F5F5F5"/>
<path d="M526.104 391.944H493.356V411.24H526.104V391.944Z" fill="#E6E6E6"/>
<path d="M330.528 411.24H493.344V391.944H330.528V411.24Z" fill="#F5F5F5"/>
<path d="M514.284 458.88H520.332V359.712H514.284V458.88Z" fill="#E6E6E6"/>
<path d="M487.308 458.88H493.356V359.712H487.308V458.88Z" fill="#F5F5F5"/>
<path d="M330.528 458.88H336.576V359.712H330.528V458.88Z" fill="#F5F5F5"/>
<path d="M300 513.072C428.499 513.072 532.668 506.99 532.668 499.488C532.668 491.986 428.499 485.904 300 485.904C171.501 485.904 67.332 491.986 67.332 499.488C67.332 506.99 171.501 513.072 300 513.072Z" fill="#F5F5F5"/>
<path d="M312.492 438.6H159.408C156.946 438.565 154.589 437.601 152.808 435.901C151.028 434.2 149.956 431.89 149.808 429.432L136.08 163.572C136.004 162.39 136.173 161.204 136.576 160.09C136.98 158.976 137.609 157.957 138.425 157.097C139.241 156.238 140.225 155.556 141.317 155.094C142.408 154.633 143.583 154.402 144.768 154.416H297.852C300.313 154.448 302.67 155.41 304.451 157.108C306.232 158.807 307.304 161.116 307.452 163.572L321.156 429.432C321.232 430.613 321.064 431.797 320.662 432.91C320.26 434.024 319.633 435.042 318.82 435.902C318.007 436.762 317.026 437.446 315.937 437.91C314.848 438.374 313.676 438.609 312.492 438.6Z" fill="#020066"/>
<path opacity="0.8" d="M312.492 438.6H159.408C156.946 438.565 154.589 437.601 152.808 435.901C151.028 434.2 149.956 431.89 149.808 429.432L136.08 163.572C136.004 162.39 136.173 161.204 136.576 160.09C136.98 158.976 137.609 157.957 138.425 157.097C139.241 156.238 140.225 155.556 141.317 155.094C142.408 154.633 143.583 154.402 144.768 154.416H297.852C300.313 154.448 302.67 155.41 304.451 157.108C306.232 158.807 307.304 161.116 307.452 163.572L321.156 429.432C321.232 430.613 321.064 431.797 320.662 432.91C320.26 434.024 319.633 435.042 318.82 435.902C318.007 436.762 317.026 437.446 315.937 437.91C314.848 438.374 313.676 438.609 312.492 438.6Z" fill="white"/>
<path d="M282.744 145.752H265.812V146.952H282.744V145.752Z" fill="#020066"/>
<path d="M259.944 145.752H253.74V146.952H259.944V145.752Z" fill="#020066"/>
<path d="M319.08 421.728H172.68C170.322 421.705 168.061 420.79 166.351 419.167C164.641 417.544 163.61 415.333 163.464 412.98L150.36 158.7C150.287 157.568 150.449 156.434 150.835 155.368C151.222 154.301 151.824 153.326 152.605 152.504C153.386 151.681 154.328 151.029 155.373 150.588C156.417 150.147 157.542 149.926 158.676 149.94H305.076C307.433 149.966 309.693 150.884 311.401 152.51C313.109 154.135 314.138 156.347 314.28 158.7L327.384 412.98C327.457 414.11 327.295 415.243 326.91 416.308C326.524 417.373 325.922 418.346 325.143 419.168C324.363 419.989 323.422 420.641 322.379 421.081C321.335 421.522 320.212 421.742 319.08 421.728Z" fill="#020066"/>
<path d="M319.08 415.884H172.68C171.821 415.854 171.004 415.511 170.382 414.918C169.76 414.325 169.378 413.524 169.308 412.668L156.192 158.4C156.162 158.062 156.205 157.721 156.316 157.4C156.428 157.08 156.607 156.787 156.84 156.54C157.074 156.294 157.358 156.1 157.672 155.972C157.987 155.844 158.325 155.784 158.664 155.796H305.064C305.921 155.828 306.735 156.173 307.355 156.766C307.974 157.359 308.354 158.158 308.424 159.012L321.6 413.28C321.629 413.617 321.586 413.956 321.475 414.276C321.363 414.595 321.186 414.887 320.953 415.133C320.721 415.379 320.44 415.573 320.127 415.702C319.815 415.832 319.478 415.894 319.14 415.884H319.08ZM158.664 156.096C158.366 156.086 158.069 156.139 157.792 156.251C157.515 156.362 157.264 156.53 157.056 156.744C156.856 156.966 156.702 157.226 156.605 157.508C156.509 157.791 156.47 158.09 156.492 158.388L169.596 412.656C169.663 413.435 170.012 414.162 170.578 414.702C171.144 415.241 171.887 415.555 172.668 415.584H319.068C319.365 415.596 319.661 415.544 319.936 415.432C320.211 415.32 320.459 415.151 320.664 414.936C320.869 414.718 321.026 414.458 321.123 414.175C321.22 413.891 321.256 413.59 321.228 413.292L308.136 159.024C308.072 158.246 307.725 157.519 307.162 156.979C306.598 156.44 305.856 156.126 305.076 156.096H158.664Z" fill="white"/>
<path opacity="0.3" d="M267.872 248.467C284.524 231.38 283.439 203.317 265.45 185.787C247.461 168.256 219.38 167.897 202.728 184.984C186.077 202.071 187.161 230.134 205.15 247.665C223.139 265.195 251.221 265.554 267.872 248.467Z" fill="white"/>
<path d="M271.2 216.732C271.536 222.629 270.35 228.513 267.756 233.82C264.948 239.512 260.589 244.295 255.182 247.617C249.775 250.94 243.538 252.667 237.192 252.6C230.615 252.541 224.166 250.78 218.471 247.489C212.777 244.198 208.031 239.489 204.696 233.82C201.588 228.636 199.8 222.768 199.488 216.732C199.192 212.103 199.855 207.462 201.435 203.101C203.015 198.739 205.478 194.751 208.67 191.385C211.863 188.02 215.715 185.349 219.987 183.541C224.259 181.733 228.858 180.825 233.496 180.876C243.15 180.977 252.407 184.732 259.404 191.385C266.4 198.038 270.615 207.095 271.2 216.732Z" fill="white"/>
<path d="M267.72 233.82C264.912 239.512 260.553 244.294 255.146 247.617C249.739 250.939 243.502 252.667 237.156 252.6C230.579 252.541 224.13 250.78 218.435 247.489C212.741 244.198 207.995 239.489 204.66 233.82C213.779 227.522 224.61 224.171 235.692 224.22C247.071 224.263 258.194 227.597 267.72 233.82Z" fill="#020066"/>
<path d="M246.417 215.898C252.416 209.742 252.023 199.63 245.54 193.312C239.056 186.993 228.937 186.862 222.938 193.018C216.938 199.174 217.331 209.287 223.815 215.605C230.298 221.923 240.418 222.055 246.417 215.898Z" fill="#020066"/>
<path d="M298.092 322.8H183.456C182.458 322.79 181.5 322.401 180.776 321.713C180.053 321.025 179.617 320.089 179.556 319.092L178.692 302.292C178.662 301.814 178.731 301.335 178.895 300.885C179.059 300.435 179.314 300.024 179.644 299.677C179.974 299.33 180.372 299.055 180.813 298.869C181.254 298.683 181.729 298.59 182.208 298.596H296.844C297.841 298.606 298.796 298.993 299.52 299.678C300.243 300.364 300.68 301.297 300.744 302.292L301.608 319.092C301.64 319.571 301.572 320.051 301.409 320.502C301.246 320.954 300.991 321.367 300.661 321.715C300.331 322.063 299.932 322.339 299.49 322.526C299.048 322.713 298.572 322.806 298.092 322.8Z" fill="white"/>
<path opacity="0.3" d="M262.992 289.32H215.112C214.11 289.312 213.147 288.924 212.421 288.233C211.694 287.542 211.258 286.601 211.2 285.6L211.02 282C210.989 281.521 211.056 281.041 211.22 280.589C211.383 280.138 211.637 279.725 211.967 279.377C212.298 279.029 212.696 278.753 213.138 278.566C213.58 278.379 214.056 278.286 214.536 278.292H262.404C263.403 278.302 264.36 278.69 265.084 279.378C265.807 280.066 266.243 281.003 266.304 282L266.496 285.6C266.526 286.078 266.457 286.557 266.294 287.007C266.131 287.457 265.878 287.87 265.549 288.218C265.221 288.567 264.825 288.845 264.385 289.034C263.945 289.223 263.471 289.321 262.992 289.32Z" fill="black"/>
<path opacity="0.3" d="M280.8 403.572H209.076C207.378 403.551 205.75 402.889 204.519 401.718C203.289 400.548 202.546 398.955 202.44 397.26L202.02 388.98C201.978 388.166 202.102 387.352 202.384 386.588C202.667 385.824 203.102 385.125 203.663 384.534C204.225 383.944 204.9 383.473 205.65 383.153C206.399 382.832 207.205 382.667 208.02 382.668H279.72C281.418 382.689 283.046 383.351 284.277 384.522C285.508 385.692 286.25 387.285 286.356 388.98L286.776 397.26C286.818 398.072 286.695 398.884 286.414 399.646C286.133 400.409 285.7 401.107 285.141 401.697C284.582 402.287 283.909 402.758 283.163 403.08C282.417 403.403 281.613 403.57 280.8 403.572Z" fill="black"/>
<path d="M300.192 363.432H185.544C184.546 363.419 183.59 363.03 182.867 362.342C182.144 361.655 181.707 360.72 181.644 359.724L180.78 342.924C180.75 342.446 180.82 341.966 180.983 341.516C181.147 341.065 181.402 340.653 181.731 340.305C182.061 339.957 182.459 339.681 182.9 339.494C183.342 339.306 183.817 339.212 184.296 339.216H298.932C299.931 339.226 300.888 339.615 301.612 340.303C302.335 340.991 302.771 341.927 302.832 342.924L303.708 359.724C303.736 360.202 303.666 360.681 303.501 361.13C303.337 361.58 303.082 361.992 302.753 362.339C302.423 362.686 302.026 362.963 301.586 363.151C301.145 363.339 300.671 363.434 300.192 363.432Z" fill="white"/>
<path d="M198 310.692C198.033 311.222 197.956 311.754 197.775 312.253C197.593 312.752 197.31 313.209 196.944 313.594C196.578 313.979 196.137 314.285 195.647 314.492C195.158 314.698 194.631 314.802 194.1 314.796C192.996 314.783 191.938 314.352 191.139 313.591C190.34 312.83 189.859 311.794 189.792 310.692C189.757 310.162 189.832 309.631 190.013 309.132C190.193 308.633 190.474 308.176 190.839 307.791C191.204 307.405 191.645 307.1 192.134 306.893C192.623 306.686 193.149 306.582 193.68 306.588C194.785 306.601 195.844 307.031 196.645 307.792C197.447 308.553 197.93 309.589 198 310.692Z" fill="#263238"/>
<path d="M210.636 310.692C210.671 311.222 210.596 311.753 210.415 312.252C210.235 312.752 209.954 313.208 209.589 313.594C209.224 313.979 208.783 314.285 208.294 314.492C207.805 314.699 207.279 314.802 206.748 314.796C205.643 314.786 204.584 314.356 203.784 313.594C202.984 312.832 202.504 311.795 202.44 310.692C202.405 310.162 202.48 309.631 202.661 309.132C202.841 308.633 203.122 308.176 203.487 307.791C203.852 307.405 204.293 307.1 204.782 306.893C205.271 306.686 205.797 306.582 206.328 306.588C207.433 306.598 208.492 307.028 209.292 307.79C210.092 308.552 210.572 309.589 210.636 310.692Z" fill="#263238"/>
<path d="M223.2 310.692C223.235 311.222 223.16 311.753 222.979 312.252C222.799 312.752 222.518 313.208 222.153 313.594C221.788 313.979 221.347 314.285 220.858 314.492C220.369 314.699 219.843 314.802 219.312 314.796C218.207 314.783 217.148 314.353 216.347 313.592C215.545 312.831 215.062 311.795 214.992 310.692C214.959 310.162 215.036 309.63 215.217 309.131C215.399 308.632 215.681 308.175 216.048 307.79C216.414 307.405 216.855 307.099 217.344 306.893C217.834 306.686 218.361 306.582 218.892 306.588C219.996 306.601 221.054 307.032 221.853 307.793C222.652 308.555 223.133 309.59 223.2 310.692Z" fill="#263238"/>
<path d="M235.86 310.692C235.893 311.221 235.817 311.752 235.636 312.25C235.455 312.749 235.173 313.205 234.809 313.59C234.444 313.975 234.004 314.28 233.516 314.488C233.028 314.695 232.502 314.8 231.972 314.796C230.867 314.783 229.808 314.353 229.007 313.592C228.205 312.831 227.722 311.795 227.652 310.692C227.619 310.163 227.695 309.632 227.876 309.134C228.057 308.635 228.339 308.179 228.703 307.794C229.068 307.409 229.508 307.104 229.996 306.896C230.484 306.689 231.01 306.584 231.54 306.588C232.645 306.601 233.704 307.031 234.505 307.792C235.307 308.553 235.79 309.589 235.86 310.692Z" fill="#263238"/>
<path d="M200.124 351.3C200.159 351.83 200.084 352.361 199.903 352.86C199.723 353.359 199.442 353.816 199.077 354.202C198.712 354.587 198.271 354.893 197.782 355.1C197.293 355.306 196.767 355.41 196.236 355.404C195.131 355.391 194.072 354.961 193.271 354.2C192.469 353.439 191.986 352.403 191.916 351.3C191.883 350.77 191.96 350.238 192.141 349.739C192.323 349.24 192.606 348.783 192.972 348.398C193.338 348.013 193.779 347.707 194.269 347.501C194.758 347.294 195.285 347.19 195.816 347.196C196.92 347.209 197.978 347.64 198.777 348.401C199.576 349.163 200.057 350.198 200.124 351.3Z" fill="#263238"/>
<path d="M212.736 351.3C212.769 351.829 212.693 352.36 212.512 352.858C212.331 353.357 212.049 353.813 211.685 354.198C211.32 354.583 210.88 354.888 210.392 355.096C209.904 355.304 209.378 355.408 208.848 355.404C207.743 355.391 206.684 354.961 205.883 354.2C205.081 353.439 204.598 352.403 204.528 351.3C204.493 350.77 204.568 350.239 204.749 349.74C204.929 349.241 205.21 348.784 205.575 348.399C205.94 348.013 206.381 347.708 206.87 347.501C207.359 347.294 207.885 347.19 208.416 347.196C209.521 347.209 210.58 347.639 211.381 348.4C212.183 349.161 212.666 350.197 212.736 351.3Z" fill="#263238"/>
<path d="M225.348 351.3C225.381 351.83 225.304 352.362 225.123 352.861C224.941 353.36 224.658 353.817 224.292 354.202C223.926 354.587 223.485 354.893 222.996 355.1C222.506 355.306 221.979 355.41 221.448 355.404C220.343 355.394 219.284 354.964 218.484 354.202C217.684 353.44 217.204 352.403 217.14 351.3C217.105 350.77 217.18 350.239 217.361 349.74C217.541 349.241 217.822 348.784 218.187 348.399C218.552 348.013 218.993 347.708 219.482 347.501C219.971 347.294 220.497 347.19 221.028 347.196C222.133 347.209 223.192 347.639 223.993 348.4C224.795 349.161 225.278 350.197 225.348 351.3Z" fill="#263238"/>
<path d="M237.948 351.3C237.983 351.83 237.908 352.361 237.727 352.86C237.547 353.359 237.266 353.816 236.901 354.202C236.536 354.587 236.095 354.893 235.606 355.1C235.117 355.306 234.591 355.41 234.06 355.404C232.955 355.391 231.896 354.961 231.095 354.2C230.293 353.439 229.81 352.403 229.74 351.3C229.707 350.77 229.784 350.238 229.965 349.739C230.147 349.24 230.43 348.783 230.796 348.398C231.162 348.013 231.603 347.707 232.093 347.501C232.582 347.294 233.109 347.19 233.64 347.196C234.745 347.206 235.804 347.636 236.604 348.398C237.404 349.16 237.884 350.197 237.948 351.3Z" fill="#263238"/>
<path d="M250.56 351.3C250.595 351.83 250.52 352.361 250.34 352.86C250.159 353.359 249.878 353.816 249.513 354.201C249.148 354.587 248.707 354.892 248.218 355.099C247.729 355.306 247.203 355.41 246.672 355.404C245.567 355.391 244.508 354.961 243.707 354.2C242.905 353.439 242.422 352.403 242.352 351.3C242.319 350.771 242.395 350.24 242.576 349.742C242.757 349.243 243.039 348.787 243.404 348.402C243.768 348.017 244.208 347.712 244.696 347.504C245.184 347.297 245.71 347.192 246.24 347.196C247.345 347.209 248.404 347.639 249.205 348.4C250.007 349.161 250.491 350.197 250.56 351.3Z" fill="#263238"/>
<path d="M263.172 351.3C263.205 351.83 263.128 352.362 262.947 352.861C262.765 353.36 262.482 353.817 262.116 354.202C261.75 354.587 261.309 354.893 260.819 355.1C260.33 355.306 259.803 355.41 259.272 355.404C258.168 355.391 257.11 354.96 256.311 354.199C255.512 353.438 255.031 352.402 254.964 351.3C254.929 350.77 255.004 350.239 255.185 349.74C255.365 349.241 255.646 348.784 256.011 348.399C256.376 348.013 256.817 347.708 257.306 347.501C257.795 347.294 258.321 347.19 258.852 347.196C259.957 347.209 261.016 347.639 261.817 348.4C262.619 349.161 263.102 350.197 263.172 351.3Z" fill="#263238"/>
<path d="M399.6 211.944C399.9 212.4 400.056 212.64 400.248 212.964L400.788 213.852C401.136 214.452 401.448 215.052 401.748 215.64C402.348 216.84 402.948 218.04 403.428 219.24C404.434 221.623 405.3 224.063 406.02 226.548C407.473 231.456 408.43 236.497 408.876 241.596L408.96 242.544C408.97 242.736 408.97 242.928 408.96 243.12V243.756C408.98 244.59 408.932 245.425 408.816 246.252C408.586 247.784 408.183 249.286 407.616 250.728C406.562 253.304 405.165 255.725 403.464 257.928C400.291 261.992 396.525 265.555 392.292 268.5L388.98 264.624C391.994 261.22 394.663 257.526 396.948 253.596C397.976 251.813 398.782 249.911 399.348 247.932C399.577 247.094 399.71 246.232 399.744 245.364C399.781 244.993 399.781 244.619 399.744 244.248V243.996C399.756 243.884 399.756 243.772 399.744 243.66L399.6 242.82C398.828 238.348 397.738 233.936 396.336 229.62C395.64 227.472 394.788 225.396 393.936 223.368C393.516 222.348 393.036 221.352 392.556 220.392L391.812 218.976L391.44 218.316L391.128 217.788L399.6 211.944Z" fill="#803E3C"/>
<path d="M388.44 268.524L392.784 277.704L396.228 269.94C396.228 269.94 393.168 263.22 389.028 263.844L388.44 268.524Z" fill="#7F3E3B"/>
<path d="M395.892 278.16L399.348 272.496L396.228 269.94L392.784 277.704L395.892 278.16Z" fill="#7F3E3B"/>
<path d="M376.356 489.864C377.255 489.842 378.148 489.721 379.02 489.504C379.064 489.491 379.104 489.466 379.136 489.432C379.167 489.398 379.189 489.357 379.2 489.312C379.207 489.266 379.201 489.219 379.182 489.176C379.163 489.133 379.132 489.097 379.092 489.072C378.744 488.844 375.696 486.876 374.52 487.404C374.39 487.465 374.278 487.559 374.196 487.677C374.113 487.795 374.064 487.933 374.052 488.076C374.016 488.293 374.033 488.516 374.102 488.725C374.171 488.934 374.29 489.123 374.448 489.276C374.992 489.696 375.67 489.905 376.356 489.864ZM378.336 489.156C376.596 489.516 375.276 489.456 374.736 488.988C374.626 488.879 374.545 488.743 374.501 488.594C374.457 488.445 374.451 488.288 374.484 488.136C374.484 487.932 374.604 487.872 374.688 487.836C375.336 487.548 377.1 488.4 378.336 489.156Z" fill="#020066"/>
<path d="M378.96 489.504H379.08C379.116 489.48 379.146 489.448 379.167 489.411C379.188 489.373 379.199 489.331 379.2 489.288C379.2 489.168 379.2 486.276 378.096 485.304C377.961 485.182 377.8 485.091 377.626 485.037C377.452 484.983 377.269 484.968 377.088 484.992C376.899 484.993 376.716 485.06 376.569 485.18C376.423 485.3 376.322 485.467 376.284 485.652C376.056 486.792 377.88 488.952 378.84 489.504H378.96ZM377.244 485.436C377.341 485.433 377.438 485.45 377.529 485.485C377.619 485.52 377.702 485.573 377.772 485.64C378.405 486.573 378.732 487.68 378.708 488.808C377.748 488.04 376.608 486.408 376.752 485.724C376.752 485.616 376.836 485.472 377.136 485.436H377.244Z" fill="#020066"/>
<path d="M365.028 484.968C365.056 484.933 365.074 484.891 365.081 484.846C365.087 484.801 365.082 484.756 365.064 484.714C365.047 484.673 365.019 484.636 364.983 484.609C364.947 484.582 364.905 484.565 364.86 484.56C364.368 484.56 360.06 484.356 359.076 485.412V485.484C358.995 485.588 358.942 485.711 358.923 485.841C358.904 485.972 358.92 486.105 358.968 486.228C359.032 486.434 359.145 486.621 359.298 486.774C359.451 486.926 359.638 487.04 359.844 487.104C361.236 487.536 363.696 485.964 365.04 484.992L365.028 484.968ZM359.436 485.724C359.976 485.148 362.352 484.992 364.128 485.016C362.268 486.288 360.72 486.888 359.94 486.648C359.804 486.607 359.68 486.532 359.58 486.432C359.479 486.331 359.405 486.208 359.364 486.072C359.34 486.025 359.327 485.974 359.327 485.922C359.327 485.87 359.34 485.818 359.364 485.772L359.436 485.724Z" fill="#020066"/>
<path d="M365.028 484.968C365.046 484.931 365.056 484.89 365.056 484.848C365.056 484.806 365.046 484.765 365.028 484.728C364.968 484.632 363.624 482.328 362.04 481.848C361.813 481.781 361.574 481.762 361.339 481.791C361.103 481.82 360.877 481.896 360.672 482.016C360.096 482.352 360.06 482.748 360.132 483C360.444 484.116 363.504 485.1 364.824 485.088C364.865 485.087 364.906 485.076 364.942 485.055C364.978 485.034 365.007 485.004 365.028 484.968ZM360.72 482.568C360.788 482.502 360.865 482.445 360.948 482.4C361.096 482.306 361.263 482.245 361.437 482.222C361.612 482.199 361.789 482.215 361.956 482.268C363 482.544 363.972 483.888 364.416 484.548C362.988 484.392 360.816 483.516 360.636 482.844C360.621 482.793 360.621 482.739 360.635 482.688C360.65 482.637 360.68 482.591 360.72 482.556V482.568Z" fill="#020066"/>
<path d="M378.24 176.796C377.04 182.796 374.448 195.768 378.612 199.752C378.612 199.752 376.98 205.752 365.904 205.752C353.712 205.752 360.084 199.752 360.084 199.752C366.732 198.168 366.564 193.224 365.4 188.592L378.24 176.796Z" fill="#7F3E3B"/>
<path d="M357.936 162.732C358.004 162.743 358.072 162.743 358.14 162.732C358.197 162.704 358.248 162.665 358.29 162.617C358.331 162.569 358.363 162.514 358.383 162.453C358.404 162.393 358.411 162.329 358.407 162.266C358.402 162.203 358.385 162.141 358.356 162.084C358.033 161.4 357.551 160.803 356.95 160.343C356.348 159.884 355.645 159.575 354.9 159.444C354.775 159.434 354.651 159.471 354.553 159.549C354.455 159.627 354.39 159.74 354.372 159.864C354.358 159.99 354.395 160.115 354.474 160.214C354.552 160.313 354.667 160.377 354.792 160.392C355.38 160.505 355.933 160.757 356.405 161.126C356.877 161.495 357.253 161.972 357.504 162.516C357.551 162.587 357.615 162.644 357.691 162.682C357.767 162.72 357.851 162.737 357.936 162.732Z" fill="#263238"/>
<path d="M354.3 168C353.355 169.752 352.177 171.367 350.796 172.8C351.17 173.142 351.613 173.399 352.096 173.552C352.579 173.705 353.089 173.752 353.592 173.688L354.3 168Z" fill="#630F0F"/>
<path d="M355.2 166.644C355.104 167.448 354.588 168.048 354.072 167.988C353.556 167.928 353.196 167.22 353.292 166.416C353.388 165.612 353.904 165.012 354.492 165.072C355.08 165.132 355.284 165.84 355.2 166.644Z" fill="#263238"/>
<path d="M354.648 165.144L352.8 164.4C352.8 164.4 353.58 165.984 354.648 165.144Z" fill="#263238"/>
<path d="M375.624 482.688L365.832 484.968L359.88 462.456L369.672 460.176L375.624 482.688Z" fill="#7F3E3B"/>
<path d="M390.648 489.264H380.604L381.384 465.996H391.44L390.648 489.264Z" fill="#7F3E3B"/>
<path d="M379.8 488.1H391.092C391.288 488.098 391.478 488.168 391.626 488.296C391.774 488.424 391.87 488.602 391.896 488.796L393.18 497.724C393.206 497.95 393.183 498.179 393.114 498.395C393.044 498.611 392.93 498.81 392.778 498.979C392.626 499.148 392.44 499.283 392.232 499.375C392.024 499.467 391.799 499.514 391.572 499.512C387.636 499.452 385.74 499.212 380.772 499.212C377.712 499.212 373.248 499.536 369.036 499.536C364.824 499.536 364.584 495.36 366.348 494.988C374.22 493.284 375.468 490.956 378.12 488.724C378.589 488.324 379.184 488.103 379.8 488.1Z" fill="#263238"/>
<path d="M364.968 483.468L375.228 478.752C375.402 478.669 375.601 478.652 375.787 478.705C375.972 478.758 376.132 478.877 376.236 479.04L381.144 486.624C381.259 486.819 381.331 487.036 381.357 487.261C381.382 487.486 381.36 487.714 381.293 487.93C381.225 488.146 381.112 488.345 380.963 488.515C380.813 488.685 380.63 488.821 380.424 488.916C376.824 490.5 375 491.088 370.488 493.164C367.716 494.436 362.088 497.364 358.272 499.164C354.456 500.964 352.488 497.232 353.928 496.152C360.372 491.352 362.22 487.908 363.696 484.776C363.946 484.199 364.398 483.734 364.968 483.468Z" fill="#263238"/>
<path opacity="0.2" d="M359.88 462.456L363.072 474.528L372.744 471.78L369.684 460.176L359.88 462.456Z" fill="black"/>
<path opacity="0.2" d="M391.44 465.996H381.384L380.988 477.996H391.044L391.44 465.996Z" fill="black"/>
<path d="M396 202.032C400.176 202.956 404.64 217.968 404.64 217.968L392.832 230.532C392.832 230.532 383.028 216.42 385.032 211.236C387.06 205.824 391.02 200.952 396 202.032Z" fill="#263238"/>
<path opacity="0.4" d="M389.328 211.596C387.216 209.664 385.788 210.24 384.816 211.776C383.856 216.24 389.544 225.588 391.836 229.128C392.892 224.904 394.104 216 389.328 211.596Z" fill="black"/>
<path d="M343.092 202.332C343.092 202.332 338.292 204.012 347.892 262.992H388.692C388.008 246.384 387.984 236.136 395.892 202.032C390.175 200.853 384.38 200.091 378.552 199.752C372.384 199.308 366.192 199.308 360.024 199.752C352.116 200.484 343.092 202.332 343.092 202.332Z" fill="#263238"/>
<path opacity="0.4" d="M342.72 224.964C342.984 227.832 343.332 231.06 343.788 234.708C347.136 231.696 349.872 223.128 348.864 218.136C346.472 220.078 344.399 222.381 342.72 224.964Z" fill="black"/>
<path d="M347.088 216C344.886 221.541 342.407 226.968 339.66 232.26C336.945 237.743 333.731 242.965 330.06 247.86L329.292 248.808L328.908 249.276C328.776 249.432 328.668 249.576 328.464 249.792C327.742 250.58 326.937 251.288 326.064 251.904C324.521 252.972 322.831 253.813 321.048 254.4C317.938 255.393 314.71 255.966 311.448 256.104C305.34 256.347 299.225 255.802 293.256 254.484L293.916 249.444C296.676 249.444 299.568 249.444 302.316 249.216C305.076 249.08 307.825 248.776 310.548 248.304C313.077 247.909 315.55 247.217 317.916 246.24C318.872 245.832 319.764 245.291 320.568 244.632C320.875 244.375 321.152 244.085 321.396 243.768C321.396 243.768 321.54 243.576 321.636 243.444L321.912 243.048L322.476 242.256C325.487 237.605 328.17 232.749 330.504 227.724C332.904 222.624 335.304 217.332 337.5 212.124L347.088 216Z" fill="#803E3C"/>
<path d="M343.092 202.332C338.088 203.532 331.944 217.26 331.944 217.26L342.312 232.5C342.312 232.5 356.124 215.112 354.48 209.808C352.8 204.276 349.2 200.844 343.092 202.332Z" fill="#263238"/>
<path d="M296.796 250.212L288.144 246.216L287.28 254.82C287.28 254.82 294.48 256.944 298.08 254.82L296.796 250.212Z" fill="#7F3E3B"/>
<path d="M282.972 245.352L282.144 251.904L287.28 254.82L288.144 246.216L282.972 245.352Z" fill="#7F3E3B"/>
<path d="M382.584 167.232C380.748 177.036 380.184 181.236 374.568 185.688C366.168 192.384 354.468 187.992 353.34 177.84C352.308 168.696 355.476 154.2 365.64 151.44C367.879 150.822 370.239 150.788 372.495 151.342C374.75 151.895 376.827 153.017 378.526 154.6C380.225 156.184 381.49 158.176 382.2 160.387C382.911 162.599 383.043 164.955 382.584 167.232Z" fill="#7F3E3B"/>
<path d="M361.044 169.296C360.48 174.3 360.264 187.296 371.256 187.704C384.708 188.196 388.74 176.7 387.54 172.104C394.548 166.404 395.556 156.6 387.684 149.1C379.812 141.6 362.484 145.788 357.684 153.096C351.6 162.156 361.044 169.296 361.044 169.296Z" fill="#263238"/>
<path d="M374.52 152.016C373.872 146.736 374.376 143.1 379.32 143.1C384.264 143.1 391.008 144.888 393.48 149.94C395.952 154.992 396.156 162.9 389.256 162.096C382.356 161.292 375.3 158.328 374.52 152.016Z" fill="#020066"/>
<path d="M382.176 150.744C380.976 144.456 386.604 126.744 400.272 125.544C406.608 125.004 409.536 131.82 406.272 132.948C412.272 132.876 416.112 140.808 410.52 141.996C414.936 144.828 413.844 150.636 407.544 153.492C402.852 155.652 383.796 159.456 382.176 150.744Z" fill="#263238"/>
<path d="M396.78 157.5C392.376 157.5 387.78 156.852 384.924 154.944C384.126 154.463 383.453 153.798 382.963 153.005C382.472 152.212 382.178 151.314 382.104 150.384C382.101 150.305 382.127 150.228 382.178 150.168C382.229 150.108 382.302 150.069 382.38 150.06C382.42 150.055 382.46 150.059 382.499 150.07C382.537 150.081 382.572 150.101 382.603 150.127C382.633 150.153 382.658 150.185 382.676 150.221C382.693 150.257 382.703 150.296 382.704 150.336C382.776 151.175 383.046 151.985 383.49 152.7C383.934 153.415 384.54 154.016 385.26 154.452C390.696 158.052 403.26 156.852 407.172 155.652C410.556 154.548 412.848 152.4 413.304 149.928C413.446 149.021 413.334 148.092 412.98 147.245C412.627 146.398 412.045 145.665 411.3 145.128C411.271 145.101 411.248 145.069 411.233 145.033C411.217 144.997 411.209 144.958 411.209 144.918C411.209 144.879 411.217 144.84 411.233 144.804C411.248 144.768 411.271 144.735 411.3 144.708C411.356 144.653 411.432 144.623 411.51 144.623C411.589 144.623 411.664 144.653 411.72 144.708C412.558 145.319 413.209 146.152 413.601 147.111C413.993 148.071 414.11 149.121 413.94 150.144C413.448 152.844 411.012 155.148 407.412 156.324C403.938 157.2 400.361 157.596 396.78 157.5Z" fill="#263238"/>
<path d="M357.984 168C356.867 169.567 356.406 171.51 356.7 173.412C357.096 175.932 359.544 176.1 361.32 174.492C363.096 172.884 364.644 169.98 363.336 167.892C363.045 167.441 362.644 167.072 362.17 166.82C361.697 166.568 361.166 166.441 360.63 166.452C360.093 166.463 359.569 166.611 359.105 166.882C358.642 167.153 358.256 167.538 357.984 168Z" fill="#7F3E3B"/>
<path d="M358.668 262.992C358.668 262.992 364.5 331.98 370.56 370.86C375.444 402.264 379.308 475.668 379.308 475.668H393.012C393.012 475.668 397.884 404.46 395.412 373.404C389.136 294.804 403.14 288.396 388.728 263.004L358.668 262.992Z" fill="#020066"/>
<path opacity="0.4" d="M375.924 289.068C370.493 294.768 366.11 301.381 362.976 308.604C364.572 324.108 366.468 341.316 368.484 356.388C376.756 334.972 379.32 311.773 375.924 289.068Z" fill="black"/>
<path d="M349.08 262.56C349.08 262.56 336.42 337.908 334.428 371.868C339.396 403.272 359.724 469.656 359.724 469.656L372.192 465.132C372.192 465.132 365.292 392.748 357.792 372.936C374.676 316.092 387.084 301.716 383.472 262.992C374.82 262.992 349.08 262.56 349.08 262.56Z" fill="#020066"/>
<path d="M358.056 472.968L374.904 468.396L373.944 461.676L355.908 466.56L358.056 472.968Z" fill="#263238"/>
<path d="M377.424 475.944H394.884L395.796 469.824L377.328 469.2L377.424 475.944Z" fill="#263238"/>
<path d="M389.328 260.592L391.164 264.252C391.308 264.54 390.972 264.828 390.504 264.828H347.688C347.328 264.828 347.016 264.648 346.992 264.408L346.62 260.808C346.62 260.556 346.92 260.34 347.316 260.34H388.656C388.78 260.323 388.907 260.337 389.024 260.381C389.141 260.425 389.246 260.498 389.328 260.592Z" fill="#020066"/>
<path opacity="0.5" d="M389.328 260.592L391.164 264.252C391.308 264.54 390.972 264.828 390.504 264.828H347.688C347.328 264.828 347.016 264.648 346.992 264.408L346.62 260.808C346.62 260.556 346.92 260.34 347.316 260.34H388.656C388.78 260.323 388.907 260.337 389.024 260.381C389.141 260.425 389.246 260.498 389.328 260.592Z" fill="black"/>
<path d="M383.772 265.2H384.876C385.104 265.2 385.272 265.08 385.26 264.948L384.732 260.148C384.732 260.004 384.528 259.896 384.312 259.896H383.196C382.98 259.896 382.812 260.004 382.824 260.148L383.34 264.948C383.364 265.104 383.556 265.2 383.772 265.2Z" fill="#020066"/>
<path d="M368.916 230.256C368.784 230.254 368.655 230.21 368.549 230.13C368.444 230.05 368.366 229.939 368.328 229.812C364.416 215.34 356.328 203.412 352.404 201.612C352.099 201.425 351.733 201.365 351.384 201.444C351.312 201.482 351.232 201.505 351.15 201.512C351.069 201.518 350.987 201.507 350.909 201.481C350.832 201.454 350.761 201.412 350.7 201.357C350.639 201.301 350.591 201.235 350.557 201.16C350.524 201.085 350.506 201.004 350.504 200.922C350.503 200.841 350.519 200.759 350.55 200.684C350.581 200.608 350.628 200.54 350.687 200.483C350.746 200.425 350.815 200.381 350.892 200.352C351.22 200.232 351.57 200.184 351.919 200.213C352.267 200.242 352.604 200.347 352.908 200.52C357.06 202.488 365.268 214.248 369.372 229.044C372.312 229.044 376.848 228.648 377.952 228.552C379.32 226.92 389.376 214.344 385.62 200.58C385.598 200.505 385.592 200.425 385.601 200.347C385.611 200.269 385.636 200.194 385.675 200.125C385.714 200.057 385.767 199.997 385.829 199.95C385.892 199.902 385.964 199.868 386.04 199.848C386.193 199.808 386.355 199.829 386.492 199.908C386.629 199.986 386.73 200.116 386.772 200.268C390.96 215.58 378.816 229.392 378.684 229.524C378.637 229.582 378.579 229.63 378.513 229.666C378.447 229.701 378.374 229.722 378.3 229.728C378.24 229.728 372.252 230.256 368.916 230.256Z" fill="#020066"/>
<path d="M388.8 238.728C382.26 226.476 379.584 225.612 378.42 221.676C379.302 219.475 380.561 217.445 382.14 215.676C381.348 215.448 379.644 215.112 378.54 214.908C378.66 214.368 378.792 213.84 378.912 213.324C377.711 213.19 376.496 213.246 375.312 213.492V212.292C373.788 211.961 372.222 211.859 370.668 211.992C370.804 212.56 370.936 213.136 371.064 213.72C369.864 213.948 368.04 214.32 367.164 214.572C368.866 216.5 370.117 218.784 370.824 221.256C367.296 227.316 353.592 266.268 375.888 269.256C398.184 272.244 395.328 250.992 388.8 238.728Z" fill="#020066"/>
<path opacity="0.3" d="M388.8 238.728C382.26 226.476 379.584 225.612 378.42 221.676C379.302 219.475 380.561 217.445 382.14 215.676C381.348 215.448 379.644 215.112 378.54 214.908C378.66 214.368 378.792 213.84 378.912 213.324C377.711 213.19 376.496 213.246 375.312 213.492V212.292C373.788 211.961 372.222 211.859 370.668 211.992C370.804 212.56 370.936 213.136 371.064 213.72C369.864 213.948 368.04 214.32 367.164 214.572C368.866 216.5 370.117 218.784 370.824 221.256C367.296 227.316 353.592 266.268 375.888 269.256C398.184 272.244 395.328 250.992 388.8 238.728Z" fill="white"/>
<path d="M369.912 220.092C369.773 220.71 369.713 221.343 369.732 221.976C369.732 222.42 370.932 222.72 372.264 222.852C373.596 222.984 379.188 223.2 379.008 222.576C378.828 221.952 379.284 221.1 379.308 220.572C379.332 220.044 377.088 220.02 375.204 220.092C373.32 220.164 370.284 219.42 369.912 220.092Z" fill="#020066"/>
<path d="M356.94 265.2H358.044C358.26 265.2 358.428 265.08 358.416 264.948L357.9 260.148C357.9 260.004 357.696 259.896 357.468 259.896H356.4C356.184 259.896 356.016 260.004 356.028 260.148L356.544 264.948C356.52 265.104 356.712 265.2 356.94 265.2Z" fill="#020066"/>
</svg>
