<svg width="106" height="28" viewBox="0 0 106 28" fill="none" xmlns="http://www.w3.org/2000/svg">
<rect width="106" height="28" rx="14" fill="#FFE1E1"/>
<path d="M24.5975 14.359C25.0828 14.4457 25.4945 14.7013 25.8325 15.126C26.1705 15.5507 26.3395 16.0317 26.3395 16.569C26.3395 17.0283 26.2181 17.4443 25.9755 17.817C25.7415 18.181 25.3991 18.4713 24.9485 18.688C24.4978 18.896 23.9735 19 23.3755 19H19.7615V9.965H23.2065C23.8218 9.965 24.3505 10.069 24.7925 10.277C25.2345 10.485 25.5681 10.7667 25.7935 11.122C26.0188 11.4687 26.1315 11.8587 26.1315 12.292C26.1315 12.812 25.9928 13.2453 25.7155 13.592C25.4381 13.9387 25.0655 14.1943 24.5975 14.359ZM21.2435 13.761H23.0765C23.5618 13.761 23.9388 13.6527 24.2075 13.436C24.4848 13.2107 24.6235 12.89 24.6235 12.474C24.6235 12.0667 24.4848 11.7503 24.2075 11.525C23.9388 11.291 23.5618 11.174 23.0765 11.174H21.2435V13.761ZM23.2455 17.791C23.7481 17.791 24.1425 17.6697 24.4285 17.427C24.7145 17.1843 24.8575 16.8463 24.8575 16.413C24.8575 15.971 24.7058 15.62 24.4025 15.36C24.0991 15.1 23.6961 14.97 23.1935 14.97H21.2435V17.791H23.2455ZM29.0986 9.38V19H27.6166V9.38H29.0986ZM33.818 19.117C33.142 19.117 32.531 18.9653 31.985 18.662C31.439 18.35 31.01 17.9167 30.698 17.362C30.386 16.7987 30.23 16.1487 30.23 15.412C30.23 14.684 30.3903 14.0383 30.711 13.475C31.0317 12.9117 31.4693 12.4783 32.024 12.175C32.5787 11.8717 33.1983 11.72 33.883 11.72C34.5677 11.72 35.1873 11.8717 35.742 12.175C36.2967 12.4783 36.7343 12.9117 37.055 13.475C37.3757 14.0383 37.536 14.684 37.536 15.412C37.536 16.14 37.3713 16.7857 37.042 17.349C36.7127 17.9123 36.262 18.35 35.69 18.662C35.1267 18.9653 34.5027 19.117 33.818 19.117ZM33.818 17.83C34.1993 17.83 34.5547 17.739 34.884 17.557C35.222 17.375 35.495 17.102 35.703 16.738C35.911 16.374 36.015 15.932 36.015 15.412C36.015 14.892 35.9153 14.4543 35.716 14.099C35.5167 13.735 35.2523 13.462 34.923 13.28C34.5937 13.098 34.2383 13.007 33.857 13.007C33.4757 13.007 33.1203 13.098 32.791 13.28C32.4703 13.462 32.2147 13.735 32.024 14.099C31.8333 14.4543 31.738 14.892 31.738 15.412C31.738 16.1833 31.933 16.7813 32.323 17.206C32.7217 17.622 33.22 17.83 33.818 17.83ZM38.1737 15.386C38.1737 14.6667 38.321 14.0297 38.6157 13.475C38.919 12.9203 39.3264 12.4913 39.8377 12.188C40.3577 11.876 40.934 11.72 41.5667 11.72C42.1214 11.72 42.611 11.8327 43.0357 12.058C43.469 12.2833 43.8027 12.5563 44.0367 12.877V11.837H45.5317V22.406H44.0367V17.96C43.8027 18.2807 43.4647 18.5537 43.0227 18.779C42.5807 19.0043 42.078 19.117 41.5147 19.117C40.8994 19.117 40.336 18.961 39.8247 18.649C39.322 18.3283 38.919 17.8863 38.6157 17.323C38.321 16.751 38.1737 16.1053 38.1737 15.386ZM44.0367 15.412C44.0367 14.918 43.9327 14.489 43.7247 14.125C43.5254 13.761 43.261 13.4837 42.9317 13.293C42.6024 13.1023 42.247 13.007 41.8657 13.007C41.4844 13.007 41.129 13.1023 40.7997 13.293C40.4704 13.475 40.2017 13.748 39.9937 14.112C39.7944 14.4673 39.6947 14.892 39.6947 15.386C39.6947 15.88 39.7944 16.3133 39.9937 16.686C40.2017 17.0587 40.4704 17.3447 40.7997 17.544C41.1377 17.7347 41.493 17.83 41.8657 17.83C42.247 17.83 42.6024 17.7347 42.9317 17.544C43.261 17.3533 43.5254 17.076 43.7247 16.712C43.9327 16.3393 44.0367 15.906 44.0367 15.412ZM53.6319 11.837V19H52.1499V18.155C51.9159 18.4497 51.6083 18.6837 51.2269 18.857C50.8543 19.0217 50.4556 19.104 50.0309 19.104C49.4676 19.104 48.9606 18.987 48.5099 18.753C48.0679 18.519 47.7169 18.1723 47.4569 17.713C47.2056 17.2537 47.0799 16.699 47.0799 16.049V11.837H48.5489V15.828C48.5489 16.4693 48.7093 16.9633 49.0299 17.31C49.3506 17.648 49.7883 17.817 50.3429 17.817C50.8976 17.817 51.3353 17.648 51.6559 17.31C51.9853 16.9633 52.1499 16.4693 52.1499 15.828V11.837H53.6319ZM61.819 15.243C61.819 15.5117 61.8016 15.7543 61.767 15.971H56.294C56.3373 16.543 56.5496 17.0023 56.931 17.349C57.3123 17.6957 57.7803 17.869 58.335 17.869C59.1323 17.869 59.6956 17.5353 60.025 16.868H61.624C61.4073 17.5267 61.013 18.0683 60.441 18.493C59.8776 18.909 59.1756 19.117 58.335 19.117C57.6503 19.117 57.035 18.9653 56.489 18.662C55.9516 18.35 55.527 17.9167 55.215 17.362C54.9116 16.7987 54.76 16.1487 54.76 15.412C54.76 14.6753 54.9073 14.0297 55.202 13.475C55.5053 12.9117 55.9256 12.4783 56.463 12.175C57.009 11.8717 57.633 11.72 58.335 11.72C59.011 11.72 59.6133 11.8673 60.142 12.162C60.6706 12.4567 61.0823 12.8727 61.377 13.41C61.6716 13.9387 61.819 14.5497 61.819 15.243ZM60.272 14.775C60.2633 14.229 60.0683 13.7913 59.687 13.462C59.3056 13.1327 58.8333 12.968 58.27 12.968C57.7586 12.968 57.321 13.1327 56.957 13.462C56.593 13.7827 56.3763 14.2203 56.307 14.775H60.272ZM62.4501 15.386C62.4501 14.6667 62.5974 14.0297 62.8921 13.475C63.1954 12.9203 63.6027 12.4913 64.1141 12.188C64.6341 11.876 65.2061 11.72 65.8301 11.72C66.3934 11.72 66.8831 11.8327 67.2991 12.058C67.7237 12.2747 68.0617 12.5477 68.3131 12.877V11.837H69.8081V19H68.3131V17.934C68.0617 18.272 67.7194 18.5537 67.2861 18.779C66.8527 19.0043 66.3587 19.117 65.8041 19.117C65.1887 19.117 64.6254 18.961 64.1141 18.649C63.6027 18.3283 63.1954 17.8863 62.8921 17.323C62.5974 16.751 62.4501 16.1053 62.4501 15.386ZM68.3131 15.412C68.3131 14.918 68.2091 14.489 68.0011 14.125C67.8017 13.761 67.5374 13.4837 67.2081 13.293C66.8787 13.1023 66.5234 13.007 66.1421 13.007C65.7607 13.007 65.4054 13.1023 65.0761 13.293C64.7467 13.475 64.4781 13.748 64.2701 14.112C64.0707 14.4673 63.9711 14.892 63.9711 15.386C63.9711 15.88 64.0707 16.3133 64.2701 16.686C64.4781 17.0587 64.7467 17.3447 65.0761 17.544C65.4141 17.7347 65.7694 17.83 66.1421 17.83C66.5234 17.83 66.8787 17.7347 67.2081 17.544C67.5374 17.3533 67.8017 17.076 68.0011 16.712C68.2091 16.3393 68.3131 15.906 68.3131 15.412ZM70.9273 15.386C70.9273 14.6667 71.0746 14.0297 71.3693 13.475C71.6726 12.9203 72.08 12.4913 72.5913 12.188C73.1113 11.876 73.6876 11.72 74.3203 11.72C74.7883 11.72 75.2476 11.824 75.6983 12.032C76.1576 12.2313 76.5216 12.5 76.7903 12.838V9.38H78.2853V19H76.7903V17.921C76.5476 18.2677 76.2096 18.5537 75.7763 18.779C75.3516 19.0043 74.862 19.117 74.3073 19.117C73.6833 19.117 73.1113 18.961 72.5913 18.649C72.08 18.3283 71.6726 17.8863 71.3693 17.323C71.0746 16.751 70.9273 16.1053 70.9273 15.386ZM76.7903 15.412C76.7903 14.918 76.6863 14.489 76.4783 14.125C76.279 13.761 76.0146 13.4837 75.6853 13.293C75.356 13.1023 75.0006 13.007 74.6193 13.007C74.238 13.007 73.8826 13.1023 73.5533 13.293C73.224 13.475 72.9553 13.748 72.7473 14.112C72.548 14.4673 72.4483 14.892 72.4483 15.386C72.4483 15.88 72.548 16.3133 72.7473 16.686C72.9553 17.0587 73.224 17.3447 73.5533 17.544C73.8913 17.7347 74.2466 17.83 74.6193 17.83C75.0006 17.83 75.356 17.7347 75.6853 17.544C76.0146 17.3533 76.279 17.076 76.4783 16.712C76.6863 16.3393 76.7903 15.906 76.7903 15.412ZM83.0055 19.117C82.3295 19.117 81.7185 18.9653 81.1725 18.662C80.6265 18.35 80.1975 17.9167 79.8855 17.362C79.5735 16.7987 79.4175 16.1487 79.4175 15.412C79.4175 14.684 79.5778 14.0383 79.8985 13.475C80.2192 12.9117 80.6568 12.4783 81.2115 12.175C81.7662 11.8717 82.3858 11.72 83.0705 11.72C83.7552 11.72 84.3748 11.8717 84.9295 12.175C85.4842 12.4783 85.9218 12.9117 86.2425 13.475C86.5632 14.0383 86.7235 14.684 86.7235 15.412C86.7235 16.14 86.5588 16.7857 86.2295 17.349C85.9002 17.9123 85.4495 18.35 84.8775 18.662C84.3142 18.9653 83.6902 19.117 83.0055 19.117ZM83.0055 17.83C83.3868 17.83 83.7422 17.739 84.0715 17.557C84.4095 17.375 84.6825 17.102 84.8905 16.738C85.0985 16.374 85.2025 15.932 85.2025 15.412C85.2025 14.892 85.1028 14.4543 84.9035 14.099C84.7042 13.735 84.4398 13.462 84.1105 13.28C83.7812 13.098 83.4258 13.007 83.0445 13.007C82.6632 13.007 82.3078 13.098 81.9785 13.28C81.6578 13.462 81.4022 13.735 81.2115 14.099C81.0208 14.4543 80.9255 14.892 80.9255 15.412C80.9255 16.1833 81.1205 16.7813 81.5105 17.206C81.9092 17.622 82.4075 17.83 83.0055 17.83Z" fill="#EA0000"/>
</svg>
