<svg width="23" height="23" viewBox="0 0 23 21" fill="none" xmlns="http://www.w3.org/2000/svg">
<path d="M3.67227 5.48631C3.31039 5.48726 2.95192 5.41644 2.61759 5.27795C2.28326 5.13946 1.97972 4.93605 1.72451 4.67948L0.307294 3.41831C0.125445 3.25618 0.0154501 3.02845 0.001507 2.78522C-0.0124361 2.54199 0.0708145 2.30318 0.232945 2.12133C0.395075 1.93948 0.622804 1.82949 0.866033 1.81555C1.10926 1.8016 1.34807 1.88485 1.52992 2.04698L2.98477 3.34488C3.06805 3.43841 3.1696 3.5139 3.28315 3.56672C3.39671 3.61954 3.51987 3.64856 3.64506 3.652C3.77025 3.65544 3.89482 3.63322 4.0111 3.58672C4.12738 3.54021 4.23292 3.47041 4.32121 3.38159L7.62928 0.232322C7.80716 0.0739595 8.03963 -0.00906451 8.27758 0.000786252C8.51554 0.010637 8.74035 0.112591 8.90453 0.285114C9.06872 0.457638 9.15942 0.687221 9.15747 0.925374C9.15553 1.16353 9.0611 1.3916 8.89412 1.56142L5.59983 4.69509C5.34628 4.94716 5.04554 5.14678 4.71479 5.28254C4.38405 5.4183 4.02979 5.48755 3.67227 5.48631ZM22.03 3.65053C22.03 3.40709 21.9333 3.17363 21.7612 3.00149C21.589 2.82935 21.3556 2.73265 21.1121 2.73265H11.9332C11.6898 2.73265 11.4563 2.82935 11.2842 3.00149C11.1121 3.17363 11.0154 3.40709 11.0154 3.65053C11.0154 3.89397 11.1121 4.12744 11.2842 4.29958C11.4563 4.47171 11.6898 4.56842 11.9332 4.56842H21.1121C21.3556 4.56842 21.589 4.47171 21.7612 4.29958C21.9333 4.12744 22.03 3.89397 22.03 3.65053ZM5.59983 12.0382L8.89412 8.90452C8.98607 8.82266 9.06061 8.72314 9.11331 8.61189C9.16601 8.50063 9.19579 8.37992 9.20088 8.25692C9.20598 8.13392 9.18627 8.01115 9.14295 7.89592C9.09963 7.78069 9.03357 7.67535 8.9487 7.58618C8.86383 7.497 8.7619 7.42581 8.64895 7.37683C8.53601 7.32785 8.41437 7.3021 8.29127 7.30109C8.16817 7.30009 8.04612 7.32386 7.9324 7.37099C7.81867 7.41811 7.71559 7.48764 7.62928 7.57542L4.32488 10.7247C4.15015 10.8918 3.9177 10.985 3.67594 10.985C3.43418 10.985 3.20173 10.8918 3.02699 10.7247L1.56755 9.26983C1.39444 9.10263 1.16258 9.01012 0.921909 9.01221C0.681242 9.0143 0.451025 9.11083 0.280841 9.28102C0.110658 9.4512 0.0141245 9.68142 0.0120332 9.92208C0.00994185 10.1628 0.10246 10.3946 0.26966 10.5677L1.72451 12.0226C2.23823 12.5364 2.93421 12.8264 3.66079 12.8293C4.38737 12.8322 5.08567 12.5479 5.6035 12.0382H5.59983ZM22.03 10.9936C22.03 10.7502 21.9333 10.5167 21.7612 10.3446C21.589 10.1724 21.3556 10.0757 21.1121 10.0757H11.9332C11.6898 10.0757 11.4563 10.1724 11.2842 10.3446C11.1121 10.5167 11.0154 10.7502 11.0154 10.9936C11.0154 11.2371 11.1121 11.4705 11.2842 11.6427C11.4563 11.8148 11.6898 11.9115 11.9332 11.9115H21.1121C21.3556 11.9115 21.589 11.8148 21.7612 11.6427C21.9333 11.4705 22.03 11.2371 22.03 10.9936ZM5.59983 19.3813L8.89045 16.2476C8.9824 16.1658 9.05694 16.0662 9.10964 15.955C9.16234 15.8437 9.19212 15.723 9.19721 15.6C9.2023 15.477 9.1826 15.3542 9.13928 15.239C9.09595 15.1238 9.02989 15.0184 8.94503 14.9293C8.86016 14.8401 8.75823 14.7689 8.64528 14.7199C8.53234 14.6709 8.4107 14.6452 8.2876 14.6442C8.1645 14.6432 8.04245 14.667 7.92873 14.7141C7.815 14.7612 7.71191 14.8307 7.6256 14.9185L4.32121 18.0678C4.23292 18.1566 4.12738 18.2264 4.0111 18.2729C3.89482 18.3194 3.77025 18.3416 3.64506 18.3382C3.51987 18.3347 3.39671 18.3057 3.28315 18.2529C3.1696 18.2001 3.06805 18.1246 2.98477 18.0311L1.52992 16.7332C1.34807 16.571 1.10926 16.4878 0.866033 16.5017C0.622804 16.5157 0.395075 16.6257 0.232945 16.8075C0.0708145 16.9894 -0.0124361 17.2282 0.001507 17.4714C0.0154501 17.7146 0.125445 17.9424 0.307294 18.1045L1.72451 19.3657C2.23823 19.8795 2.93421 20.1695 3.66079 20.1724C4.38737 20.1753 5.08567 19.891 5.6035 19.3813H5.59983ZM22.03 18.3367C22.03 18.0933 21.9333 17.8598 21.7612 17.6877C21.589 17.5155 21.3556 17.4188 21.1121 17.4188H11.9332C11.6898 17.4188 11.4563 17.5155 11.2842 17.6877C11.1121 17.8598 11.0154 18.0933 11.0154 18.3367C11.0154 18.5802 11.1121 18.8136 11.2842 18.9858C11.4563 19.1579 11.6898 19.2546 11.9332 19.2546H21.1121C21.3556 19.2546 21.589 19.1579 21.7612 18.9858C21.9333 18.8136 22.03 18.5802 22.03 18.3367Z" fill="white"/>
</svg>
