<svg width="26" height="23" viewBox="0 0 26 23" fill="none" xmlns="http://www.w3.org/2000/svg">
<path d="M15.7407 9.26862L10.2591 13.9127C9.55492 13.3161 9.12158 12.4993 9.12158 11.5906C9.12158 9.77341 10.8549 8.30493 12.9999 8.30493C14.0724 8.30493 15.0366 8.67205 15.7407 9.26862Z" stroke="black" stroke-opacity="0.65" stroke-width="1.5" stroke-linecap="round" stroke-linejoin="round"/>
<path d="M19.3048 5.87267C17.409 4.66118 15.2423 4.00037 12.9998 4.00037C9.17566 4.00037 5.6115 5.90938 3.13066 9.21345C2.15566 10.5075 2.15566 12.6827 3.13066 13.9768C3.9865 15.1149 4.98316 16.0969 6.0665 16.8862" stroke="black" stroke-opacity="0.65" stroke-width="1.5" stroke-linecap="round" stroke-linejoin="round"/>
<path d="M9.12158 18.5015C10.3566 18.9421 11.6674 19.1807 12.9999 19.1807C16.8241 19.1807 20.3882 17.2717 22.8691 13.9676C23.8441 12.6735 23.8441 10.4984 22.8691 9.20426C22.5116 8.72701 22.1216 8.27729 21.7207 7.8551" stroke="black" stroke-opacity="0.65" stroke-width="1.5" stroke-linecap="round" stroke-linejoin="round"/>
<path d="M16.8026 12.233C16.5209 13.5271 15.2751 14.5826 13.7476 14.8212" stroke="black" stroke-opacity="0.65" stroke-width="1.5" stroke-linecap="round" stroke-linejoin="round"/>
<path d="M10.259 13.9126L2.1665 20.7685" stroke="black" stroke-opacity="0.65" stroke-width="1.5" stroke-linecap="round" stroke-linejoin="round"/>
<path d="M23.8332 2.4126L15.7407 9.26854" stroke="black" stroke-opacity="0.65" stroke-width="1.5" stroke-linecap="round" stroke-linejoin="round"/>
</svg>
