<svg width="27" height="24" viewBox="0 0 27 24" fill="none" xmlns="http://www.w3.org/2000/svg">
<path d="M26.052 11.3954C25.6237 8.0985 23.9561 5.08839 21.3881 2.97688C18.8201 0.865377 15.5444 -0.189056 12.2269 0.0279018C8.90939 0.24486 5.79896 1.71693 3.52783 4.1449C1.25671 6.57287 -0.00466562 9.77453 8.07216e-05 13.0991C-0.00620269 14.8786 0.354406 16.6403 1.0594 18.2742C1.76438 19.9082 2.79862 21.3792 4.09753 22.5955C5.09092 23.5153 6.39986 24.0179 7.75351 23.9995H18.3999C19.83 24.0029 21.204 23.4433 22.2248 22.4418C23.6797 21.0264 24.7835 19.2903 25.448 17.3723C26.1125 15.4544 26.3193 13.4076 26.052 11.3954ZM20.701 20.8787C20.0877 21.483 19.2609 21.821 18.3999 21.8194H7.75351C6.957 21.8358 6.1844 21.5468 5.59415 21.0117C4.51204 19.9981 3.65042 18.7724 3.06304 17.411C2.47565 16.0496 2.17511 14.5818 2.18016 13.0991C2.18123 11.5646 2.50583 10.0476 3.13278 8.647C3.75973 7.24641 4.67494 5.99374 5.8187 4.97073C7.80599 3.17861 10.3893 2.19045 13.0653 2.19877C13.4928 2.19895 13.9201 2.22297 14.345 2.27071C16.3895 2.50816 18.3248 3.31994 19.927 4.61203C21.5291 5.90411 22.7324 7.62364 23.3975 9.57144C24.0627 11.5192 24.1624 13.6156 23.6851 15.6178C23.2079 17.6199 22.1732 19.4459 20.701 20.8842V20.8787ZM8.51 17.7699C8.7167 17.9723 8.83455 18.2485 8.83762 18.5378C8.84069 18.827 8.72872 19.1056 8.52635 19.3124C8.32398 19.5191 8.04779 19.6369 7.75854 19.64C7.46928 19.643 7.19065 19.5311 6.98395 19.3287C5.74671 18.1168 4.89838 16.5639 4.54707 14.868C4.19577 13.1721 4.35741 11.41 5.0114 9.80627C5.66539 8.20258 6.7821 6.82995 8.21918 5.86334C9.65626 4.89674 11.3486 4.37995 13.0805 4.37884C13.4974 4.37872 13.9138 4.40823 14.3264 4.46714C14.4682 4.48757 14.6045 4.53573 14.7276 4.60886C14.8507 4.68199 14.9582 4.77866 15.0439 4.89335C15.1297 5.00804 15.192 5.1385 15.2273 5.27728C15.2626 5.41606 15.2702 5.56043 15.2497 5.70215C15.2309 5.84465 15.1838 5.98195 15.1112 6.10599C15.0386 6.23003 14.9419 6.33829 14.8269 6.42442C14.7118 6.51054 14.5807 6.57279 14.4412 6.60749C14.3017 6.6422 14.1567 6.64866 14.0147 6.6265C12.6505 6.43165 11.2596 6.67267 10.0405 7.31519C8.82143 7.9577 7.83644 8.96887 7.22611 10.2044C6.61578 11.4399 6.41131 12.8366 6.64187 14.1953C6.87243 15.5539 7.52624 16.805 8.51 17.7699ZM21.7125 11.8532C21.7714 12.2659 21.8009 12.6823 21.8008 13.0991C21.8044 14.2608 21.5737 15.4112 21.1228 16.4817C20.6718 17.5522 20.0097 18.5209 19.176 19.3298C18.969 19.5322 18.6901 19.644 18.4007 19.6407C18.1112 19.6375 17.8349 19.5193 17.6325 19.3124C17.4302 19.1054 17.3183 18.8265 17.3216 18.537C17.3248 18.2475 17.443 17.9712 17.65 17.7689C18.3865 17.051 18.9426 16.169 19.273 15.1951C19.6034 14.2211 19.6987 13.1828 19.551 12.165C19.5096 11.8786 19.5838 11.5876 19.757 11.3559C19.9302 11.1242 20.1884 10.9708 20.4748 10.9294C20.7611 10.8881 21.0522 10.9622 21.2839 11.1354C21.5156 11.3087 21.669 11.5669 21.7104 11.8532H21.7125ZM15.1799 12.541C15.3111 13.0128 15.2824 13.5146 15.0982 13.9683C14.9141 14.422 14.5848 14.8019 14.162 15.0487C13.7391 15.2955 13.2464 15.3953 12.7608 15.3325C12.2753 15.2698 11.8241 15.048 11.4779 14.7017C11.1317 14.3555 10.9099 13.9044 10.8471 13.4188C10.7844 12.9333 10.8842 12.4406 11.131 12.0177C11.3778 11.5948 11.7577 11.2656 12.2114 11.0815C12.665 10.8973 13.1669 10.8686 13.6386 10.9997L17.7601 6.8783C17.8606 6.77419 17.9809 6.69115 18.1139 6.63402C18.2469 6.57689 18.3899 6.54682 18.5346 6.54556C18.6794 6.54431 18.8229 6.57189 18.9569 6.62669C19.0908 6.6815 19.2125 6.76244 19.3149 6.86479C19.4172 6.96713 19.4982 7.08884 19.553 7.2228C19.6078 7.35676 19.6354 7.5003 19.6341 7.64503C19.6328 7.78977 19.6028 7.9328 19.5456 8.06579C19.4885 8.19878 19.4055 8.31906 19.3014 8.41961L15.1799 12.541Z" fill="white"/>
</svg>
