<svg width="106" height="28" viewBox="0 0 106 28" fill="none" xmlns="http://www.w3.org/2000/svg">
<rect width="106" height="28" rx="14" fill="#FFF7AA"/>
<path d="M13.4391 11.161V13.813H16.5591V15.022H13.4391V17.791H16.9491V19H11.9571V9.952H16.9491V11.161H13.4391ZM27.1121 11.72C27.6755 11.72 28.1781 11.837 28.6201 12.071C29.0708 12.305 29.4218 12.6517 29.6731 13.111C29.9331 13.5703 30.0631 14.125 30.0631 14.775V19H28.5941V14.996C28.5941 14.3547 28.4338 13.865 28.1131 13.527C27.7925 13.1803 27.3548 13.007 26.8001 13.007C26.2455 13.007 25.8035 13.1803 25.4741 13.527C25.1535 13.865 24.9931 14.3547 24.9931 14.996V19H23.5241V14.996C23.5241 14.3547 23.3638 13.865 23.0431 13.527C22.7225 13.1803 22.2848 13.007 21.7301 13.007C21.1755 13.007 20.7335 13.1803 20.4041 13.527C20.0835 13.865 19.9231 14.3547 19.9231 14.996V19H18.4411V11.837H19.9231V12.656C20.1658 12.3613 20.4735 12.1317 20.8461 11.967C21.2188 11.8023 21.6175 11.72 22.0421 11.72C22.6141 11.72 23.1255 11.8413 23.5761 12.084C24.0268 12.3267 24.3735 12.6777 24.6161 13.137C24.8328 12.7037 25.1708 12.3613 25.6301 12.11C26.0895 11.85 26.5835 11.72 27.1121 11.72ZM41.2242 15.243C41.2242 15.5117 41.2069 15.7543 41.1722 15.971H35.6992C35.7426 16.543 35.9549 17.0023 36.3362 17.349C36.7176 17.6957 37.1856 17.869 37.7402 17.869C38.5376 17.869 39.1009 17.5353 39.4302 16.868H41.0292C40.8126 17.5267 40.4182 18.0683 39.8462 18.493C39.2829 18.909 38.5809 19.117 37.7402 19.117C37.0556 19.117 36.4402 18.9653 35.8942 18.662C35.3569 18.35 34.9322 17.9167 34.6202 17.362C34.3169 16.7987 34.1652 16.1487 34.1652 15.412C34.1652 14.6753 34.3126 14.0297 34.6072 13.475C34.9106 12.9117 35.3309 12.4783 35.8682 12.175C36.4142 11.8717 37.0382 11.72 37.7402 11.72C38.4162 11.72 39.0186 11.8673 39.5472 12.162C40.0759 12.4567 40.4876 12.8727 40.7822 13.41C41.0769 13.9387 41.2242 14.5497 41.2242 15.243ZM39.6772 14.775C39.6686 14.229 39.4736 13.7913 39.0922 13.462C38.7109 13.1327 38.2386 12.968 37.6752 12.968C37.1639 12.968 36.7262 13.1327 36.3622 13.462C35.9982 13.7827 35.7816 14.2203 35.7122 14.775H39.6772ZM45.4174 15.373L47.7314 19H46.0544L44.5074 16.569L43.0514 19H41.5044L43.8184 15.477L41.5044 11.837H43.1814L44.7284 14.268L46.1844 11.837H47.7314L45.4174 15.373ZM55.0683 15.243C55.0683 15.5117 55.051 15.7543 55.0163 15.971H49.5433C49.5867 16.543 49.799 17.0023 50.1803 17.349C50.5617 17.6957 51.0297 17.869 51.5843 17.869C52.3817 17.869 52.945 17.5353 53.2743 16.868H54.8733C54.6567 17.5267 54.2623 18.0683 53.6903 18.493C53.127 18.909 52.425 19.117 51.5843 19.117C50.8997 19.117 50.2843 18.9653 49.7383 18.662C49.201 18.35 48.7763 17.9167 48.4643 17.362C48.161 16.7987 48.0093 16.1487 48.0093 15.412C48.0093 14.6753 48.1567 14.0297 48.4513 13.475C48.7547 12.9117 49.175 12.4783 49.7123 12.175C50.2583 11.8717 50.8823 11.72 51.5843 11.72C52.2603 11.72 52.8627 11.8673 53.3913 12.162C53.92 12.4567 54.3317 12.8727 54.6263 13.41C54.921 13.9387 55.0683 14.5497 55.0683 15.243ZM53.5213 14.775C53.5127 14.229 53.3177 13.7913 52.9363 13.462C52.555 13.1327 52.0827 12.968 51.5193 12.968C51.008 12.968 50.5703 13.1327 50.2063 13.462C49.8423 13.7827 49.6257 14.2203 49.5563 14.775H53.5213ZM55.6994 15.412C55.6994 14.6753 55.8468 14.0297 56.1414 13.475C56.4448 12.9117 56.8608 12.4783 57.3894 12.175C57.9181 11.8717 58.5248 11.72 59.2094 11.72C60.0761 11.72 60.7911 11.928 61.3544 12.344C61.9264 12.7513 62.3121 13.3363 62.5114 14.099H60.9124C60.7824 13.7437 60.5744 13.4663 60.2884 13.267C60.0024 13.0677 59.6428 12.968 59.2094 12.968C58.6028 12.968 58.1174 13.1847 57.7534 13.618C57.3981 14.0427 57.2204 14.6407 57.2204 15.412C57.2204 16.1833 57.3981 16.7857 57.7534 17.219C58.1174 17.6523 58.6028 17.869 59.2094 17.869C60.0674 17.869 60.6351 17.492 60.9124 16.738H62.5114C62.3034 17.466 61.9134 18.0467 61.3414 18.48C60.7694 18.9047 60.0588 19.117 59.2094 19.117C58.5248 19.117 57.9181 18.9653 57.3894 18.662C56.8608 18.35 56.4448 17.9167 56.1414 17.362C55.8468 16.7987 55.6994 16.1487 55.6994 15.412ZM70.142 11.837V19H68.66V18.155C68.426 18.4497 68.1183 18.6837 67.737 18.857C67.3643 19.0217 66.9657 19.104 66.541 19.104C65.9777 19.104 65.4707 18.987 65.02 18.753C64.578 18.519 64.227 18.1723 63.967 17.713C63.7157 17.2537 63.59 16.699 63.59 16.049V11.837H65.059V15.828C65.059 16.4693 65.2193 16.9633 65.54 17.31C65.8607 17.648 66.2983 17.817 66.853 17.817C67.4077 17.817 67.8453 17.648 68.166 17.31C68.4953 16.9633 68.66 16.4693 68.66 15.828V11.837H70.142ZM74.7801 17.869C75.6381 17.869 76.2057 17.492 76.4831 16.738H78.0821C77.8914 17.3967 77.5491 17.9383 77.0551 18.363C76.5697 18.779 75.9587 19.0217 75.2221 19.091V19.624C75.7247 19.624 76.1321 19.741 76.4441 19.975C76.7561 20.2177 76.9121 20.5557 76.9121 20.989C76.9121 21.4223 76.7561 21.7647 76.4441 22.016C76.1321 22.276 75.7377 22.406 75.2611 22.406H73.5451V21.47H74.9621C75.2047 21.47 75.3867 21.4353 75.5081 21.366C75.6294 21.2967 75.6901 21.171 75.6901 20.989C75.6901 20.807 75.6294 20.6813 75.5081 20.612C75.3867 20.5427 75.2047 20.508 74.9621 20.508H74.2471V19.078C73.6577 19.0087 73.1377 18.8137 72.6871 18.493C72.2364 18.1637 71.8854 17.739 71.6341 17.219C71.3914 16.6903 71.2701 16.088 71.2701 15.412C71.2701 14.6753 71.4174 14.0297 71.7121 13.475C72.0154 12.9117 72.4314 12.4783 72.9601 12.175C73.4887 11.8717 74.0954 11.72 74.7801 11.72C75.6467 11.72 76.3617 11.928 76.9251 12.344C77.4971 12.7513 77.8827 13.3363 78.0821 14.099H76.4831C76.3531 13.7437 76.1451 13.4663 75.8591 13.267C75.5731 13.0677 75.2134 12.968 74.7801 12.968C74.1734 12.968 73.6881 13.1847 73.3241 13.618C72.9687 14.0427 72.7911 14.6407 72.7911 15.412C72.7911 16.1833 72.9687 16.7857 73.3241 17.219C73.6881 17.6523 74.1734 17.869 74.7801 17.869ZM78.7317 15.386C78.7317 14.6667 78.879 14.0297 79.1737 13.475C79.477 12.9203 79.8843 12.4913 80.3957 12.188C80.9157 11.876 81.4877 11.72 82.1117 11.72C82.675 11.72 83.1647 11.8327 83.5807 12.058C84.0053 12.2747 84.3433 12.5477 84.5947 12.877V11.837H86.0897V19H84.5947V17.934C84.3433 18.272 84.001 18.5537 83.5677 18.779C83.1343 19.0043 82.6403 19.117 82.0857 19.117C81.4703 19.117 80.907 18.961 80.3957 18.649C79.8843 18.3283 79.477 17.8863 79.1737 17.323C78.879 16.751 78.7317 16.1053 78.7317 15.386ZM84.5947 15.412C84.5947 14.918 84.4907 14.489 84.2827 14.125C84.0833 13.761 83.819 13.4837 83.4897 13.293C83.1603 13.1023 82.805 13.007 82.4237 13.007C82.0423 13.007 81.687 13.1023 81.3577 13.293C81.0283 13.475 80.7597 13.748 80.5517 14.112C80.3523 14.4673 80.2527 14.892 80.2527 15.386C80.2527 15.88 80.3523 16.3133 80.5517 16.686C80.7597 17.0587 81.0283 17.3447 81.3577 17.544C81.6957 17.7347 82.051 17.83 82.4237 17.83C82.805 17.83 83.1603 17.7347 83.4897 17.544C83.819 17.3533 84.0833 17.076 84.2827 16.712C84.4907 16.3393 84.5947 15.906 84.5947 15.412ZM80.5387 11.096C80.608 10.5933 80.7727 10.2163 81.0327 9.965C81.2927 9.705 81.6177 9.575 82.0077 9.575C82.1723 9.575 82.3153 9.601 82.4367 9.653C82.558 9.705 82.7053 9.783 82.8787 9.887C83.0087 9.97367 83.117 10.0387 83.2037 10.082C83.299 10.1253 83.403 10.147 83.5157 10.147C83.663 10.147 83.7843 10.1037 83.8797 10.017C83.9837 9.92167 84.0487 9.783 84.0747 9.601H84.9067C84.8373 10.1037 84.6727 10.485 84.4127 10.745C84.1527 10.9963 83.8277 11.122 83.4377 11.122C83.273 11.122 83.1257 11.096 82.9957 11.044C82.8657 10.9833 82.7227 10.901 82.5667 10.797C82.4107 10.7017 82.2893 10.6367 82.2027 10.602C82.1247 10.5587 82.0337 10.537 81.9297 10.537C81.7823 10.537 81.6567 10.5847 81.5527 10.68C81.4573 10.7753 81.3967 10.914 81.3707 11.096H80.5387ZM90.8099 19.117C90.1339 19.117 89.5229 18.9653 88.9769 18.662C88.4309 18.35 88.0019 17.9167 87.6899 17.362C87.3779 16.7987 87.2219 16.1487 87.2219 15.412C87.2219 14.684 87.3822 14.0383 87.7029 13.475C88.0235 12.9117 88.4612 12.4783 89.0159 12.175C89.5705 11.8717 90.1902 11.72 90.8749 11.72C91.5595 11.72 92.1792 11.8717 92.7339 12.175C93.2885 12.4783 93.7262 12.9117 94.0469 13.475C94.3675 14.0383 94.5279 14.684 94.5279 15.412C94.5279 16.14 94.3632 16.7857 94.0339 17.349C93.7045 17.9123 93.2539 18.35 92.6819 18.662C92.1185 18.9653 91.4945 19.117 90.8099 19.117ZM90.8099 17.83C91.1912 17.83 91.5465 17.739 91.8759 17.557C92.2139 17.375 92.4869 17.102 92.6949 16.738C92.9029 16.374 93.0069 15.932 93.0069 15.412C93.0069 14.892 92.9072 14.4543 92.7079 14.099C92.5085 13.735 92.2442 13.462 91.9149 13.28C91.5855 13.098 91.2302 13.007 90.8489 13.007C90.4675 13.007 90.1122 13.098 89.7829 13.28C89.4622 13.462 89.2065 13.735 89.0159 14.099C88.8252 14.4543 88.7299 14.892 88.7299 15.412C88.7299 16.1833 88.9249 16.7813 89.3149 17.206C89.7135 17.622 90.2119 17.83 90.8099 17.83Z" fill="#C6B200"/>
</svg>
