<svg width="68" height="19" viewBox="0 0 68 19" fill="none" xmlns="http://www.w3.org/2000/svg">
<path d="M7.10249 16.5727H3.94583C3.52723 16.5727 3.12577 16.4064 2.82978 16.1104C2.53378 15.8144 2.36749 15.4129 2.36749 14.9943V3.94601C2.36749 3.52741 2.53378 3.12595 2.82978 2.82996C3.12577 2.53396 3.52723 2.36768 3.94583 2.36768H7.10249" stroke="#787486" stroke-width="2" stroke-linecap="round" stroke-linejoin="round"/>
<path d="M12.6267 13.4156L16.5725 9.46976L12.6267 5.52393" stroke="#787486" stroke-width="2" stroke-linecap="round" stroke-linejoin="round"/>
<path d="M16.5725 9.47021H7.10249" stroke="#787486" stroke-width="2" stroke-linecap="round" stroke-linejoin="round"/>
<path d="M45.625 6.42045C45.5644 5.88258 45.3144 5.46591 44.875 5.17045C44.4356 4.87121 43.8826 4.72159 43.2159 4.72159C42.7386 4.72159 42.3258 4.79735 41.9773 4.94886C41.6288 5.09659 41.358 5.30114 41.1648 5.5625C40.9754 5.82008 40.8807 6.11364 40.8807 6.44318C40.8807 6.7197 40.9451 6.95833 41.0739 7.15909C41.2064 7.35985 41.3788 7.52841 41.5909 7.66477C41.8068 7.79735 42.0379 7.90909 42.2841 8C42.5303 8.08712 42.767 8.15909 42.9943 8.21591L44.1307 8.51136C44.5019 8.60227 44.8826 8.72538 45.2727 8.88068C45.6629 9.03598 46.0246 9.24053 46.358 9.49432C46.6913 9.74811 46.9602 10.0625 47.1648 10.4375C47.3731 10.8125 47.4773 11.2614 47.4773 11.7841C47.4773 12.4432 47.3068 13.0284 46.9659 13.5398C46.6288 14.0511 46.1383 14.4545 45.4943 14.75C44.8542 15.0455 44.0795 15.1932 43.1705 15.1932C42.2992 15.1932 41.5455 15.0549 40.9091 14.7784C40.2727 14.5019 39.7746 14.1098 39.4148 13.6023C39.0549 13.0909 38.8561 12.4848 38.8182 11.7841H40.5795C40.6136 12.2045 40.75 12.5549 40.9886 12.8352C41.2311 13.1117 41.5398 13.3182 41.9148 13.4545C42.2936 13.5871 42.7083 13.6534 43.1591 13.6534C43.6553 13.6534 44.0966 13.5758 44.483 13.4205C44.8731 13.2614 45.1799 13.0417 45.4034 12.7614C45.6269 12.4773 45.7386 12.1458 45.7386 11.767C45.7386 11.4223 45.6402 11.1402 45.4432 10.9205C45.25 10.7008 44.9867 10.5189 44.6534 10.375C44.3239 10.2311 43.9508 10.1042 43.5341 9.99432L42.1591 9.61932C41.2273 9.36553 40.4886 8.99242 39.9432 8.5C39.4015 8.00758 39.1307 7.35606 39.1307 6.54545C39.1307 5.875 39.3125 5.28977 39.6761 4.78977C40.0398 4.28977 40.5322 3.90151 41.1534 3.625C41.7746 3.3447 42.4754 3.20455 43.2557 3.20455C44.0436 3.20455 44.7386 3.3428 45.3409 3.61932C45.947 3.89583 46.4242 4.27652 46.7727 4.76136C47.1212 5.24242 47.303 5.79545 47.3182 6.42045H45.625ZM51.9787 15.1932C51.4257 15.1932 50.9257 15.0909 50.4787 14.8864C50.0317 14.678 49.6776 14.3769 49.4162 13.983C49.1586 13.589 49.0298 13.1061 49.0298 12.5341C49.0298 12.0417 49.1245 11.6364 49.3139 11.3182C49.5033 11 49.759 10.7481 50.081 10.5625C50.4029 10.3769 50.7628 10.2367 51.1605 10.142C51.5582 10.0473 51.9635 9.97538 52.3764 9.92614C52.8991 9.86553 53.3234 9.81629 53.6491 9.77841C53.9749 9.73674 54.2116 9.67045 54.3594 9.57955C54.5071 9.48864 54.581 9.34091 54.581 9.13636V9.09659C54.581 8.60038 54.4408 8.21591 54.1605 7.94318C53.884 7.67045 53.4711 7.53409 52.9219 7.53409C52.3499 7.53409 51.8991 7.66098 51.5696 7.91477C51.2438 8.16477 51.0185 8.44318 50.8935 8.75L49.2969 8.38636C49.4863 7.85606 49.7628 7.42803 50.1264 7.10227C50.4938 6.77273 50.9162 6.53409 51.3935 6.38636C51.8707 6.23485 52.3726 6.15909 52.8991 6.15909C53.2476 6.15909 53.617 6.20076 54.0071 6.28409C54.401 6.36364 54.7685 6.51136 55.1094 6.72727C55.4541 6.94318 55.7363 7.25189 55.956 7.65341C56.1757 8.05114 56.2855 8.56818 56.2855 9.20455V15H54.6264V13.8068H54.5582C54.4484 14.0265 54.2836 14.2424 54.0639 14.4545C53.8442 14.6667 53.562 14.8428 53.2173 14.983C52.8726 15.1231 52.4598 15.1932 51.9787 15.1932ZM52.348 13.8295C52.8177 13.8295 53.2192 13.7367 53.5526 13.5511C53.8897 13.3655 54.1454 13.1231 54.3196 12.8239C54.4976 12.5208 54.5866 12.197 54.5866 11.8523V10.7273C54.526 10.7879 54.4086 10.8447 54.2344 10.8977C54.0639 10.947 53.8688 10.9905 53.6491 11.0284C53.4295 11.0625 53.2154 11.0947 53.0071 11.125C52.7988 11.1515 52.6245 11.1742 52.4844 11.1932C52.1548 11.2348 51.8537 11.3049 51.581 11.4034C51.312 11.5019 51.0961 11.6439 50.9332 11.8295C50.7741 12.0114 50.6946 12.2538 50.6946 12.5568C50.6946 12.9773 50.8499 13.2955 51.1605 13.5114C51.4711 13.7235 51.867 13.8295 52.348 13.8295ZM58.5483 15V6.27273H60.2472V15H58.5483ZM59.4062 4.92614C59.1108 4.92614 58.857 4.82765 58.6449 4.63068C58.4366 4.42992 58.3324 4.19129 58.3324 3.91477C58.3324 3.63447 58.4366 3.39583 58.6449 3.19886C58.857 2.99811 59.1108 2.89773 59.4062 2.89773C59.7017 2.89773 59.9536 2.99811 60.1619 3.19886C60.3741 3.39583 60.4801 3.63447 60.4801 3.91477C60.4801 4.19129 60.3741 4.42992 60.1619 4.63068C59.9536 4.82765 59.7017 4.92614 59.4062 4.92614ZM62.5327 15V6.27273H64.1747V7.65909H64.2656C64.4247 7.18939 64.705 6.82008 65.1065 6.55114C65.5118 6.27841 65.9702 6.14205 66.4815 6.14205C66.5876 6.14205 66.7126 6.14583 66.8565 6.15341C67.0043 6.16098 67.1198 6.17045 67.2031 6.18182V7.80682C67.1349 7.78788 67.0137 7.76705 66.8395 7.74432C66.6652 7.7178 66.491 7.70455 66.3168 7.70455C65.9152 7.70455 65.5573 7.78977 65.2429 7.96023C64.9323 8.12689 64.6861 8.35985 64.5043 8.65909C64.3224 8.95455 64.2315 9.29167 64.2315 9.67045V15H62.5327Z" fill="#787486"/>
</svg>
