<svg width="23" height="23" viewBox="0 0 17 20" fill="none" xmlns="http://www.w3.org/2000/svg">
<path d="M13.31 7.81382L8.32689 6.81719V2.58986C8.33476 1.98721 8.13036 1.401 7.74948 0.933894C7.36861 0.466789 6.83554 0.148569 6.24364 0.0349655C5.88511 -0.0256377 5.51767 -0.00729743 5.16696 0.088707C4.81624 0.184711 4.49069 0.356069 4.21301 0.590828C3.93533 0.825587 3.7122 1.1181 3.55919 1.44796C3.40618 1.77781 3.32698 2.13708 3.32709 2.5007V8.05131L1.00302 11.0837C0.321372 11.8815 -0.0356224 12.9062 0.00280962 13.9549C0.0412416 15.0035 0.472294 15.9994 1.21051 16.7451L3.21043 18.7659C3.99518 19.5533 5.0603 19.9971 6.17198 20H12.4934C13.598 19.9987 14.657 19.5593 15.4381 18.7782C16.2192 17.9971 16.6586 16.9381 16.6599 15.8335V11.8995C16.6578 10.9368 16.3233 10.0043 15.7129 9.2598C15.1025 8.51532 14.2537 8.00452 13.31 7.81382ZM14.9933 15.8335C14.9933 16.4965 14.7299 17.1324 14.2611 17.6012C13.7923 18.07 13.1564 18.3334 12.4934 18.3334H6.17198C5.50423 18.3315 4.86459 18.0644 4.39372 17.5909L2.3938 15.5677C1.94691 15.113 1.68857 14.5061 1.67064 13.8688C1.65271 13.2315 1.87652 12.6111 2.29713 12.132L3.32709 10.7879V14.1669C3.32709 14.3879 3.41489 14.5999 3.57116 14.7561C3.72743 14.9124 3.93939 15.0002 4.16039 15.0002C4.3814 15.0002 4.59335 14.9124 4.74962 14.7561C4.9059 14.5999 4.99369 14.3879 4.99369 14.1669V2.5007C4.99362 2.37881 5.02028 2.25838 5.07181 2.14792C5.12334 2.03745 5.19848 1.93964 5.29192 1.86137C5.38537 1.7831 5.49485 1.72629 5.61264 1.69493C5.73043 1.66358 5.85366 1.65845 5.97365 1.6799C6.1754 1.72928 6.35392 1.8468 6.47903 2.0126C6.60414 2.1784 6.66817 2.38231 6.66029 2.58986V7.5005C6.66025 7.6926 6.72659 7.87882 6.84807 8.02763C6.96955 8.17644 7.13871 8.27871 7.32693 8.31713L12.98 9.44792C13.5467 9.56199 14.0566 9.86829 14.4235 10.315C14.7903 10.7617 14.9916 11.3214 14.9933 11.8995V15.8335Z" fill="#787486"/>
</svg>
