<svg width="106" height="28" viewBox="0 0 106 28" fill="none" xmlns="http://www.w3.org/2000/svg">
<rect width="106" height="28" rx="14" fill="#E0FFF0"/>
<path d="M27.6636 9.965V11.174H23.8286V13.839H26.8186V15.048H23.8286V19H22.3466V9.965H27.6636ZM29.4577 10.888C29.189 10.888 28.9637 10.797 28.7817 10.615C28.5997 10.433 28.5087 10.2077 28.5087 9.939C28.5087 9.67033 28.5997 9.445 28.7817 9.263C28.9637 9.081 29.189 8.99 29.4577 8.99C29.7177 8.99 29.9387 9.081 30.1207 9.263C30.3027 9.445 30.3937 9.67033 30.3937 9.939C30.3937 10.2077 30.3027 10.433 30.1207 10.615C29.9387 10.797 29.7177 10.888 29.4577 10.888ZM30.1857 11.837V19H28.7037V11.837H30.1857ZM35.4121 11.72C35.9754 11.72 36.4781 11.837 36.9201 12.071C37.3707 12.305 37.7217 12.6517 37.9731 13.111C38.2244 13.5703 38.3501 14.125 38.3501 14.775V19H36.8811V14.996C36.8811 14.3547 36.7207 13.865 36.4001 13.527C36.0794 13.1803 35.6417 13.007 35.0871 13.007C34.5324 13.007 34.0904 13.1803 33.7611 13.527C33.4404 13.865 33.2801 14.3547 33.2801 14.996V19H31.7981V11.837H33.2801V12.656C33.5227 12.3613 33.8304 12.1317 34.2031 11.967C34.5844 11.8023 34.9874 11.72 35.4121 11.72ZM39.4131 15.386C39.4131 14.6667 39.5605 14.0297 39.8551 13.475C40.1585 12.9203 40.5658 12.4913 41.0771 12.188C41.5971 11.876 42.1691 11.72 42.7931 11.72C43.3565 11.72 43.8461 11.8327 44.2621 12.058C44.6868 12.2747 45.0248 12.5477 45.2761 12.877V11.837H46.7711V19H45.2761V17.934C45.0248 18.272 44.6825 18.5537 44.2491 18.779C43.8158 19.0043 43.3218 19.117 42.7671 19.117C42.1518 19.117 41.5885 18.961 41.0771 18.649C40.5658 18.3283 40.1585 17.8863 39.8551 17.323C39.5605 16.751 39.4131 16.1053 39.4131 15.386ZM45.2761 15.412C45.2761 14.918 45.1721 14.489 44.9641 14.125C44.7648 13.761 44.5005 13.4837 44.1711 13.293C43.8418 13.1023 43.4865 13.007 43.1051 13.007C42.7238 13.007 42.3685 13.1023 42.0391 13.293C41.7098 13.475 41.4411 13.748 41.2331 14.112C41.0338 14.4673 40.9341 14.892 40.9341 15.386C40.9341 15.88 41.0338 16.3133 41.2331 16.686C41.4411 17.0587 41.7098 17.3447 42.0391 17.544C42.3771 17.7347 42.7325 17.83 43.1051 17.83C43.4865 17.83 43.8418 17.7347 44.1711 17.544C44.5005 17.3533 44.7648 17.076 44.9641 16.712C45.1721 16.3393 45.2761 15.906 45.2761 15.412ZM49.8663 9.38V19H48.3843V9.38H49.8663ZM52.2327 10.888C51.9641 10.888 51.7387 10.797 51.5567 10.615C51.3747 10.433 51.2837 10.2077 51.2837 9.939C51.2837 9.67033 51.3747 9.445 51.5567 9.263C51.7387 9.081 51.9641 8.99 52.2327 8.99C52.4927 8.99 52.7137 9.081 52.8957 9.263C53.0777 9.445 53.1687 9.67033 53.1687 9.939C53.1687 10.2077 53.0777 10.433 52.8957 10.615C52.7137 10.797 52.4927 10.888 52.2327 10.888ZM52.9607 11.837V19H51.4787V11.837H52.9607ZM55.8861 17.791H59.1361V19H54.1701V17.791L57.4331 13.046H54.1701V11.837H59.1361V13.046L55.8861 17.791ZM59.865 15.386C59.865 14.6667 60.0123 14.0297 60.307 13.475C60.6103 12.9203 61.0176 12.4913 61.529 12.188C62.049 11.876 62.621 11.72 63.245 11.72C63.8083 11.72 64.298 11.8327 64.714 12.058C65.1386 12.2747 65.4766 12.5477 65.728 12.877V11.837H67.223V19H65.728V17.934C65.4766 18.272 65.1343 18.5537 64.701 18.779C64.2676 19.0043 63.7736 19.117 63.219 19.117C62.6036 19.117 62.0403 18.961 61.529 18.649C61.0176 18.3283 60.6103 17.8863 60.307 17.323C60.0123 16.751 59.865 16.1053 59.865 15.386ZM65.728 15.412C65.728 14.918 65.624 14.489 65.416 14.125C65.2166 13.761 64.9523 13.4837 64.623 13.293C64.2936 13.1023 63.9383 13.007 63.557 13.007C63.1756 13.007 62.8203 13.1023 62.491 13.293C62.1616 13.475 61.893 13.748 61.685 14.112C61.4856 14.4673 61.386 14.892 61.386 15.386C61.386 15.88 61.4856 16.3133 61.685 16.686C61.893 17.0587 62.1616 17.3447 62.491 17.544C62.829 17.7347 63.1843 17.83 63.557 17.83C63.9383 17.83 64.2936 17.7347 64.623 17.544C64.9523 17.3533 65.2166 17.076 65.416 16.712C65.624 16.3393 65.728 15.906 65.728 15.412ZM68.3422 15.386C68.3422 14.6667 68.4895 14.0297 68.7842 13.475C69.0875 12.9203 69.4948 12.4913 70.0062 12.188C70.5262 11.876 71.1025 11.72 71.7352 11.72C72.2032 11.72 72.6625 11.824 73.1132 12.032C73.5725 12.2313 73.9365 12.5 74.2052 12.838V9.38H75.7002V19H74.2052V17.921C73.9625 18.2677 73.6245 18.5537 73.1912 18.779C72.7665 19.0043 72.2768 19.117 71.7222 19.117C71.0982 19.117 70.5262 18.961 70.0062 18.649C69.4948 18.3283 69.0875 17.8863 68.7842 17.323C68.4895 16.751 68.3422 16.1053 68.3422 15.386ZM74.2052 15.412C74.2052 14.918 74.1012 14.489 73.8932 14.125C73.6938 13.761 73.4295 13.4837 73.1002 13.293C72.7708 13.1023 72.4155 13.007 72.0342 13.007C71.6528 13.007 71.2975 13.1023 70.9682 13.293C70.6388 13.475 70.3702 13.748 70.1622 14.112C69.9628 14.4673 69.8632 14.892 69.8632 15.386C69.8632 15.88 69.9628 16.3133 70.1622 16.686C70.3702 17.0587 70.6388 17.3447 70.9682 17.544C71.3062 17.7347 71.6615 17.83 72.0342 17.83C72.4155 17.83 72.7708 17.7347 73.1002 17.544C73.4295 17.3533 73.6938 17.076 73.8932 16.712C74.1012 16.3393 74.2052 15.906 74.2052 15.412ZM80.4204 19.117C79.7444 19.117 79.1334 18.9653 78.5874 18.662C78.0414 18.35 77.6124 17.9167 77.3004 17.362C76.9884 16.7987 76.8324 16.1487 76.8324 15.412C76.8324 14.684 76.9927 14.0383 77.3134 13.475C77.634 12.9117 78.0717 12.4783 78.6264 12.175C79.181 11.8717 79.8007 11.72 80.4854 11.72C81.17 11.72 81.7897 11.8717 82.3444 12.175C82.899 12.4783 83.3367 12.9117 83.6574 13.475C83.978 14.0383 84.1384 14.684 84.1384 15.412C84.1384 16.14 83.9737 16.7857 83.6444 17.349C83.315 17.9123 82.8644 18.35 82.2924 18.662C81.729 18.9653 81.105 19.117 80.4204 19.117ZM80.4204 17.83C80.8017 17.83 81.157 17.739 81.4864 17.557C81.8244 17.375 82.0974 17.102 82.3054 16.738C82.5134 16.374 82.6174 15.932 82.6174 15.412C82.6174 14.892 82.5177 14.4543 82.3184 14.099C82.119 13.735 81.8547 13.462 81.5254 13.28C81.196 13.098 80.8407 13.007 80.4594 13.007C80.078 13.007 79.7227 13.098 79.3934 13.28C79.0727 13.462 78.817 13.735 78.6264 14.099C78.4357 14.4543 78.3404 14.892 78.3404 15.412C78.3404 16.1833 78.5354 16.7813 78.9254 17.206C79.324 17.622 79.8224 17.83 80.4204 17.83Z" fill="#00B386"/>
</svg>
