<svg width="106" height="28" viewBox="0 0 106 28" fill="none" xmlns="http://www.w3.org/2000/svg">
<rect width="106" height="28" rx="14" fill="#FFF7AA"/>
<path d="M31.3803 19H29.8983L25.4393 12.253V19H23.9573V9.952H25.4393L29.8983 16.686V9.952H31.3803V19ZM32.4991 15.386C32.4991 14.6667 32.6464 14.0297 32.9411 13.475C33.2444 12.9203 33.6517 12.4913 34.1631 12.188C34.6831 11.876 35.2551 11.72 35.8791 11.72C36.4424 11.72 36.9321 11.8327 37.3481 12.058C37.7727 12.2747 38.1107 12.5477 38.3621 12.877V11.837H39.8571V19H38.3621V17.934C38.1107 18.272 37.7684 18.5537 37.3351 18.779C36.9017 19.0043 36.4077 19.117 35.8531 19.117C35.2377 19.117 34.6744 18.961 34.1631 18.649C33.6517 18.3283 33.2444 17.8863 32.9411 17.323C32.6464 16.751 32.4991 16.1053 32.4991 15.386ZM38.3621 15.412C38.3621 14.918 38.2581 14.489 38.0501 14.125C37.8507 13.761 37.5864 13.4837 37.2571 13.293C36.9277 13.1023 36.5724 13.007 36.1911 13.007C35.8097 13.007 35.4544 13.1023 35.1251 13.293C34.7957 13.475 34.5271 13.748 34.3191 14.112C34.1197 14.4673 34.0201 14.892 34.0201 15.386C34.0201 15.88 34.1197 16.3133 34.3191 16.686C34.5271 17.0587 34.7957 17.3447 35.1251 17.544C35.4631 17.7347 35.8184 17.83 36.1911 17.83C36.5724 17.83 36.9277 17.7347 37.2571 17.544C37.5864 17.3533 37.8507 17.076 38.0501 16.712C38.2581 16.3393 38.3621 15.906 38.3621 15.412ZM34.3061 11.096C34.3754 10.5933 34.5401 10.2163 34.8001 9.965C35.0601 9.705 35.3851 9.575 35.7751 9.575C35.9397 9.575 36.0827 9.601 36.2041 9.653C36.3254 9.705 36.4727 9.783 36.6461 9.887C36.7761 9.97367 36.8844 10.0387 36.9711 10.082C37.0664 10.1253 37.1704 10.147 37.2831 10.147C37.4304 10.147 37.5517 10.1037 37.6471 10.017C37.7511 9.92167 37.8161 9.783 37.8421 9.601H38.6741C38.6047 10.1037 38.4401 10.485 38.1801 10.745C37.9201 10.9963 37.5951 11.122 37.2051 11.122C37.0404 11.122 36.8931 11.096 36.7631 11.044C36.6331 10.9833 36.4901 10.901 36.3341 10.797C36.1781 10.7017 36.0567 10.6367 35.9701 10.602C35.8921 10.5587 35.8011 10.537 35.6971 10.537C35.5497 10.537 35.4241 10.5847 35.3201 10.68C35.2247 10.7753 35.1641 10.914 35.1381 11.096H34.3061ZM44.5773 19.117C43.9013 19.117 43.2903 18.9653 42.7443 18.662C42.1983 18.35 41.7693 17.9167 41.4573 17.362C41.1453 16.7987 40.9893 16.1487 40.9893 15.412C40.9893 14.684 41.1496 14.0383 41.4703 13.475C41.7909 12.9117 42.2286 12.4783 42.7833 12.175C43.3379 11.8717 43.9576 11.72 44.6423 11.72C45.3269 11.72 45.9466 11.8717 46.5013 12.175C47.0559 12.4783 47.4936 12.9117 47.8143 13.475C48.1349 14.0383 48.2953 14.684 48.2953 15.412C48.2953 16.14 48.1306 16.7857 47.8013 17.349C47.4719 17.9123 47.0213 18.35 46.4493 18.662C45.8859 18.9653 45.2619 19.117 44.5773 19.117ZM44.5773 17.83C44.9586 17.83 45.3139 17.739 45.6433 17.557C45.9813 17.375 46.2543 17.102 46.4623 16.738C46.6703 16.374 46.7743 15.932 46.7743 15.412C46.7743 14.892 46.6746 14.4543 46.4753 14.099C46.2759 13.735 46.0116 13.462 45.6823 13.28C45.3529 13.098 44.9976 13.007 44.6163 13.007C44.2349 13.007 43.8796 13.098 43.5503 13.28C43.2296 13.462 42.9739 13.735 42.7833 14.099C42.5926 14.4543 42.4973 14.892 42.4973 15.412C42.4973 16.1833 42.6923 16.7813 43.0823 17.206C43.4809 17.622 43.9793 17.83 44.5773 17.83ZM51.9766 15.386C51.9766 14.6667 52.1239 14.0297 52.4186 13.475C52.7219 12.9203 53.1293 12.4913 53.6406 12.188C54.1606 11.876 54.7326 11.72 55.3566 11.72C55.9199 11.72 56.4096 11.8327 56.8256 12.058C57.2503 12.2747 57.5883 12.5477 57.8396 12.877V11.837H59.3346V19H57.8396V17.934C57.5883 18.272 57.2459 18.5537 56.8126 18.779C56.3793 19.0043 55.8853 19.117 55.3306 19.117C54.7153 19.117 54.1519 18.961 53.6406 18.649C53.1293 18.3283 52.7219 17.8863 52.4186 17.323C52.1239 16.751 51.9766 16.1053 51.9766 15.386ZM57.8396 15.412C57.8396 14.918 57.7356 14.489 57.5276 14.125C57.3283 13.761 57.0639 13.4837 56.7346 13.293C56.4053 13.1023 56.0499 13.007 55.6686 13.007C55.2873 13.007 54.9319 13.1023 54.6026 13.293C54.2733 13.475 54.0046 13.748 53.7966 14.112C53.5973 14.4673 53.4976 14.892 53.4976 15.386C53.4976 15.88 53.5973 16.3133 53.7966 16.686C54.0046 17.0587 54.2733 17.3447 54.6026 17.544C54.9406 17.7347 55.2959 17.83 55.6686 17.83C56.0499 17.83 56.4053 17.7347 56.7346 17.544C57.0639 17.3533 57.3283 17.076 57.5276 16.712C57.7356 16.3393 57.8396 15.906 57.8396 15.412ZM62.6768 13.046V17.011C62.6768 17.2797 62.7375 17.4747 62.8588 17.596C62.9888 17.7087 63.2055 17.765 63.5088 17.765H64.4188V19H63.2488C62.5815 19 62.0701 18.844 61.7148 18.532C61.3595 18.22 61.1818 17.713 61.1818 17.011V13.046H60.3368V11.837H61.1818V10.056H62.6768V11.837H64.4188V13.046H62.6768ZM66.2054 10.888C65.9367 10.888 65.7114 10.797 65.5294 10.615C65.3474 10.433 65.2564 10.2077 65.2564 9.939C65.2564 9.67033 65.3474 9.445 65.5294 9.263C65.7114 9.081 65.9367 8.99 66.2054 8.99C66.4654 8.99 66.6864 9.081 66.8684 9.263C67.0504 9.445 67.1414 9.67033 67.1414 9.939C67.1414 10.2077 67.0504 10.433 66.8684 10.615C66.6864 10.797 66.4654 10.888 66.2054 10.888ZM66.9334 11.837V19H65.4514V11.837H66.9334ZM71.3148 17.674L73.3428 11.837H74.9158L72.1858 19H70.4178L67.7008 11.837H69.2868L71.3148 17.674ZM78.8097 19.117C78.1337 19.117 77.5227 18.9653 76.9767 18.662C76.4307 18.35 76.0017 17.9167 75.6897 17.362C75.3777 16.7987 75.2217 16.1487 75.2217 15.412C75.2217 14.684 75.382 14.0383 75.7027 13.475C76.0234 12.9117 76.461 12.4783 77.0157 12.175C77.5704 11.8717 78.19 11.72 78.8747 11.72C79.5594 11.72 80.179 11.8717 80.7337 12.175C81.2884 12.4783 81.726 12.9117 82.0467 13.475C82.3674 14.0383 82.5277 14.684 82.5277 15.412C82.5277 16.14 82.363 16.7857 82.0337 17.349C81.7044 17.9123 81.2537 18.35 80.6817 18.662C80.1184 18.9653 79.4944 19.117 78.8097 19.117ZM78.8097 17.83C79.191 17.83 79.5464 17.739 79.8757 17.557C80.2137 17.375 80.4867 17.102 80.6947 16.738C80.9027 16.374 81.0067 15.932 81.0067 15.412C81.0067 14.892 80.907 14.4543 80.7077 14.099C80.5084 13.735 80.244 13.462 79.9147 13.28C79.5854 13.098 79.23 13.007 78.8487 13.007C78.4674 13.007 78.112 13.098 77.7827 13.28C77.462 13.462 77.2064 13.735 77.0157 14.099C76.825 14.4543 76.7297 14.892 76.7297 15.412C76.7297 16.1833 76.9247 16.7813 77.3147 17.206C77.7134 17.622 78.2117 17.83 78.8097 17.83Z" fill="#C6B200"/>
</svg>
