<svg width="666" height="666" viewBox="0 0 666 666" fill="none" xmlns="http://www.w3.org/2000/svg">
<path d="M666 509.357H0V509.69H666V509.357Z" fill="#EBEBEB"/>
<path d="M599.267 530.789H555.151V531.122H599.267V530.789Z" fill="#EBEBEB"/>
<path d="M441.185 534.412H429.61V534.745H441.185V534.412Z" fill="#EBEBEB"/>
<path d="M553.819 518.428H528.258V518.761H553.819V518.428Z" fill="#EBEBEB"/>
<path d="M127.406 520.665H69.8767V520.998H127.406V520.665Z" fill="#EBEBEB"/>
<path d="M147.705 520.665H139.274V520.998H147.705V520.665Z" fill="#EBEBEB"/>
<path d="M299.9 526.286H175.118V526.619H299.9V526.286Z" fill="#EBEBEB"/>
<path d="M315.684 449.95H58.4881C56.4732 449.946 54.5421 449.143 53.1186 447.717C51.6952 446.291 50.8957 444.359 50.8957 442.344V80.7991C50.9132 78.7958 51.7205 76.8803 53.142 75.4687C54.5636 74.0571 56.4847 73.2634 58.4881 73.26H315.684C317.701 73.26 319.636 74.0613 321.062 75.4877C322.488 76.914 323.29 78.8486 323.29 80.8657V442.344C323.29 444.361 322.488 446.296 321.062 447.722C319.636 449.148 317.701 449.95 315.684 449.95ZM58.4881 73.5264C56.5616 73.5299 54.7151 74.2977 53.3541 75.6612C51.9931 77.0248 51.2287 78.8726 51.2287 80.7991V442.344C51.2287 444.27 51.9931 446.118 53.3541 447.482C54.7151 448.845 56.5616 449.613 58.4881 449.617H315.684C317.612 449.613 319.46 448.846 320.823 447.483C322.186 446.119 322.953 444.272 322.957 442.344V80.7991C322.953 78.8714 322.186 77.0236 320.823 75.6604C319.46 74.2973 317.612 73.5299 315.684 73.5264H58.4881Z" fill="#EBEBEB"/>
<path d="M603.809 449.95H346.6C344.584 449.946 342.651 449.144 341.226 447.718C339.8 446.292 338.998 444.36 338.994 442.344V80.7991C339.015 78.7946 339.825 76.8791 341.249 75.4679C342.673 74.0567 344.595 73.2634 346.6 73.26H603.809C605.81 73.2669 607.728 74.0622 609.146 75.4734C610.565 76.8846 611.371 78.7981 611.388 80.7991V442.344C611.388 444.356 610.59 446.287 609.17 447.713C607.749 449.138 605.821 449.943 603.809 449.95ZM346.6 73.5264C344.672 73.5299 342.824 74.2973 341.461 75.6604C340.098 77.0236 339.331 78.8714 339.327 80.7991V442.344C339.331 444.272 340.098 446.119 341.461 447.483C342.824 448.846 344.672 449.613 346.6 449.617H603.809C605.737 449.613 607.584 448.846 608.948 447.483C610.311 446.119 611.078 444.272 611.082 442.344V80.7991C611.078 78.8714 610.311 77.0236 608.948 75.6604C607.584 74.2973 605.737 73.5299 603.809 73.5264H346.6Z" fill="#EBEBEB"/>
<path d="M523.583 101.445H134.918V283.29H523.583V101.445Z" fill="#E6E6E6"/>
<path d="M529.43 101.445H137.649V283.29H529.43V101.445Z" fill="#F0F0F0"/>
<path d="M523.583 283.29H134.918V292.56H523.583V283.29Z" fill="#E6E6E6"/>
<path d="M539.18 283.29H147.399V292.56H539.18V283.29Z" fill="#F0F0F0"/>
<path d="M521.238 275.098V109.65L145.854 109.65V275.098H521.238Z" fill="#FAFAFA"/>
<path d="M186.12 275.098L208.938 109.65H244.542L221.725 275.098H186.12Z" fill="white"/>
<path d="M149.637 266.933C149.481 266.933 149.332 266.871 149.222 266.761C149.113 266.651 149.051 266.502 149.051 266.347V114.978C149.051 114.823 149.113 114.674 149.222 114.564C149.332 114.454 149.481 114.392 149.637 114.392C149.714 114.392 149.79 114.407 149.861 114.437C149.932 114.466 149.997 114.509 150.051 114.564C150.106 114.618 150.149 114.683 150.178 114.754C150.208 114.825 150.223 114.901 150.223 114.978V266.4C150.213 266.547 150.146 266.685 150.037 266.784C149.928 266.883 149.784 266.937 149.637 266.933Z" fill="#F0F0F0"/>
<path d="M229.37 275.098L252.188 109.65H266.067L243.25 275.098H229.37Z" fill="white"/>
<path d="M521.238 275.098V109.65H520.199V275.098H521.238Z" fill="#E6E6E6"/>
<path opacity="0.6" d="M531.361 122.011H142.71L141.951 112.834H530.615L531.361 122.011Z" fill="#EBEBEB"/>
<path opacity="0.6" d="M531.361 137.049H142.71L141.951 127.872H530.615L531.361 137.049Z" fill="#EBEBEB"/>
<path opacity="0.6" d="M531.361 152.101H142.71L141.951 142.924H530.615L531.361 152.101Z" fill="#EBEBEB"/>
<path opacity="0.6" d="M531.361 167.139H142.71L141.951 157.962H530.615L531.361 167.139Z" fill="#EBEBEB"/>
<path opacity="0.6" d="M531.361 182.191H142.71L141.951 173.013H530.615L531.361 182.191Z" fill="#EBEBEB"/>
<path opacity="0.6" d="M531.361 197.229H142.71L141.951 188.052H530.615L531.361 197.229Z" fill="#EBEBEB"/>
<path d="M584.748 329.004H525.434V509.357H584.748V329.004Z" fill="#E6E6E6"/>
<path d="M568.911 509.357H584.748V484.462H552.301L568.911 509.357Z" fill="#FAFAFA"/>
<path d="M423.03 329.004H363.716V509.357H423.03V329.004Z" fill="#E6E6E6"/>
<path d="M584.748 329.004H409.204V500.792H584.748V329.004Z" fill="#FAFAFA"/>
<path d="M425.041 509.357H409.204V484.462H441.651L425.041 509.357Z" fill="#FAFAFA"/>
<path d="M572.454 393.02H421.485V436.004H572.454V393.02Z" fill="#F0F0F0"/>
<path d="M572.454 445.194H421.485V488.178H572.454V445.194Z" fill="#F0F0F0"/>
<path d="M445.208 389.29H548.784V391.382C548.784 393.031 548.129 394.614 546.962 395.78C545.796 396.947 544.213 397.602 542.564 397.602H451.441C449.792 397.602 448.209 396.947 447.043 395.78C445.876 394.614 445.221 393.031 445.221 391.382V389.29H445.208Z" fill="#FAFAFA"/>
<path d="M572.454 340.832H421.485V383.816H572.454V340.832Z" fill="#F0F0F0"/>
<path d="M445.208 337.116H548.784V339.207C548.784 340.857 548.129 342.439 546.962 343.606C545.796 344.772 544.213 345.428 542.564 345.428H451.441C449.792 345.428 448.209 344.772 447.043 343.606C445.876 342.439 445.221 340.857 445.221 339.207V337.116H445.208Z" fill="#FAFAFA"/>
<path d="M445.208 441.465H548.784V443.556C548.784 445.206 548.129 446.788 546.962 447.955C545.796 449.121 544.213 449.776 542.564 449.776H451.441C449.792 449.776 448.209 449.121 447.043 447.955C445.876 446.788 445.221 445.206 445.221 443.556V441.465H445.208Z" fill="#FAFAFA"/>
<path d="M71.1554 367.459C74.4588 357.962 100.459 370.869 111.115 386.586C118.162 397.056 122.464 408.231 124.435 423.243C124.196 406.113 123.929 387.719 123.663 370.349C121.518 366.02 116.63 356.03 113.127 348.118C101.405 321.718 73.5397 311.888 63.8427 295.224C51.2287 273.38 51.3086 240.612 62.0445 228.811C71.3685 218.528 102.271 287.992 105.761 295.757C117.749 322.397 121.212 342.257 123.45 361.451C123.197 345.134 122.957 330.163 122.757 318.601C122.104 280.905 121.279 268.784 120.906 265.055C119.574 263.23 118.095 261.059 117.203 259.966C109.73 250.336 93.1334 238.881 84.8484 224.882C72.7405 204.449 74.6985 179.993 83.1834 170.882C92.1344 161.358 107.892 183.816 116.164 206.167C124.435 228.518 120.932 249.803 123.277 268.331C123.769 271.954 124.262 285.754 124.742 304.895C127.273 284.302 132.308 270.503 141.632 257.649C153.113 241.838 163.023 222.591 172.481 225.081C181.938 227.572 176.85 253.053 169.364 270.929C162.704 286.846 129.83 302.737 124.982 315.537C125.554 341.485 126.06 374.345 126.433 404.941C129.017 389.13 127.233 387.812 137.862 363.649C144.176 349.264 170.056 331.535 173.147 341.418C176.237 351.302 171.535 369.976 161.771 383.057C153.886 393.619 136.463 393.606 132.348 400.146C131.402 401.678 128.352 407.539 126.5 410.895C126.913 448.258 127.113 481.225 126.9 492.467L125.195 492.587C125.288 489.683 125.075 470.676 124.742 445.527C120.493 432.207 91.908 424.349 83.0768 410.429C73.8327 395.83 67.1861 378.834 71.1554 367.459Z" fill="#E6E6E6"/>
<path d="M98.0352 509.357H152.914C154.368 509.356 155.776 508.853 156.903 507.933C158.029 507.013 158.803 505.733 159.094 504.309L162.984 485.101H87.912L91.908 504.309C92.1975 505.724 92.9638 506.997 94.0788 507.916C95.1939 508.835 96.5904 509.343 98.0352 509.357Z" fill="#F0F0F0"/>
<path d="M86.3935 492.547H164.555C165.462 492.546 166.336 492.212 167.012 491.607C167.687 491.003 168.117 490.171 168.218 489.27L169.817 475.071C169.873 474.556 169.82 474.036 169.661 473.543C169.503 473.05 169.243 472.595 168.897 472.21C168.552 471.824 168.129 471.515 167.656 471.304C167.183 471.092 166.671 470.983 166.154 470.982H84.7951C84.2773 470.983 83.7654 471.092 83.2928 471.304C82.8201 471.515 82.3973 471.824 82.0518 472.21C81.7063 472.595 81.4458 473.05 81.2874 473.543C81.1289 474.036 81.076 474.556 81.1321 475.071L82.7305 489.27C82.832 490.171 83.2614 491.003 83.937 491.607C84.6126 492.212 85.4871 492.546 86.3935 492.547Z" fill="#F0F0F0"/>
<path d="M236.883 423.07H189.983V509.357H236.883V423.07Z" fill="#E0E0E0"/>
<path d="M356.417 509.357H199.387L182.884 392.274H339.913L356.417 509.357Z" fill="#E6E6E6"/>
<path d="M379.327 509.357H205.621L189.131 392.274H362.823L379.327 509.357Z" fill="#F0F0F0"/>
<path d="M222.617 491.055L208.724 410.576H345.827L359.72 491.055H222.617Z" fill="white"/>
<path d="M281.532 491.055L234.938 410.576H249.55L296.157 491.055H281.532Z" fill="#FAFAFA"/>
<path d="M302.351 491.055L255.744 410.576H280.679L327.272 491.055H302.351Z" fill="#FAFAFA"/>
<path d="M333 569.51C475.634 569.51 591.262 562.759 591.262 554.432C591.262 546.104 475.634 539.353 333 539.353C190.366 539.353 74.7385 546.104 74.7385 554.432C74.7385 562.759 190.366 569.51 333 569.51Z" fill="#F5F5F5"/>
<path d="M102.924 295.078C102.781 295.079 102.642 295.026 102.536 294.929C102.43 294.833 102.364 294.701 102.351 294.558L99.3938 258.994C99.3863 258.85 99.4348 258.709 99.5291 258.599C99.6234 258.49 99.7563 258.422 99.9 258.408C100.05 258.397 100.198 258.445 100.313 258.542C100.427 258.64 100.499 258.778 100.513 258.927L103.47 294.492C103.481 294.642 103.433 294.79 103.335 294.905C103.238 295.019 103.1 295.091 102.95 295.105L102.924 295.078Z" fill="#407BFF"/>
<path d="M104.682 316.203C104.539 316.204 104.401 316.151 104.295 316.055C104.189 315.959 104.122 315.826 104.109 315.684L103.217 304.921C103.209 304.847 103.217 304.772 103.239 304.7C103.262 304.629 103.298 304.562 103.347 304.505C103.395 304.448 103.455 304.401 103.521 304.367C103.588 304.334 103.661 304.314 103.736 304.309C103.811 304.301 103.886 304.309 103.957 304.332C104.029 304.354 104.095 304.39 104.152 304.439C104.21 304.487 104.256 304.547 104.29 304.614C104.324 304.68 104.344 304.753 104.349 304.828L105.241 315.591C105.252 315.741 105.204 315.889 105.107 316.003C105.01 316.118 104.871 316.19 104.722 316.203H104.682Z" fill="#407BFF"/>
<path d="M404.342 417.409H129.311C125.845 417.341 122.526 416.005 119.98 413.653C117.434 411.301 115.839 408.097 115.498 404.648L100.007 218.448C99.841 216.822 100.021 215.179 100.536 213.627C101.051 212.075 101.888 210.65 102.992 209.445C104.097 208.24 105.444 207.282 106.945 206.634C108.446 205.987 110.067 205.664 111.701 205.687H386.719C390.186 205.755 393.508 207.091 396.056 209.442C398.603 211.794 400.201 214.998 400.546 218.448L416.037 404.622C416.204 406.25 416.025 407.895 415.512 409.449C414.998 411.003 414.162 412.43 413.057 413.638C411.953 414.846 410.605 415.806 409.103 416.456C407.601 417.106 405.978 417.431 404.342 417.409Z" fill="white"/>
<path d="M404.342 417.942H129.311C125.71 417.883 122.258 416.501 119.612 414.059C116.966 411.617 115.311 408.286 114.965 404.702L99.4738 218.515C99.3173 216.816 99.5173 215.103 100.061 213.486C100.605 211.869 101.48 210.383 102.631 209.124C103.776 207.856 105.176 206.845 106.739 206.156C108.302 205.468 109.993 205.117 111.702 205.128H386.72C390.335 205.185 393.801 206.577 396.452 209.036C399.102 211.495 400.75 214.847 401.078 218.448L416.556 404.622C416.727 406.32 416.538 408.034 415.999 409.654C415.461 411.273 414.587 412.76 413.433 414.018C412.28 415.276 410.874 416.276 409.307 416.952C407.74 417.628 406.048 417.965 404.342 417.942ZM111.702 206.247C110.138 206.221 108.587 206.528 107.151 207.146C105.714 207.765 104.426 208.681 103.369 209.834C102.313 210.987 101.514 212.351 101.023 213.836C100.533 215.321 100.364 216.893 100.526 218.448L116.017 404.608C116.347 407.931 117.886 411.016 120.342 413.278C122.797 415.54 125.999 416.82 129.337 416.876H404.342C405.902 416.899 407.449 416.592 408.882 415.974C410.314 415.357 411.6 414.443 412.654 413.293C413.709 412.143 414.508 410.783 414.999 409.302C415.49 407.822 415.662 406.254 415.504 404.702L400.013 218.515C399.686 215.191 398.148 212.104 395.692 209.841C393.235 207.579 390.032 206.3 386.693 206.247H111.702Z" fill="#407BFF"/>
<path d="M386.72 205.714H111.702C110.069 205.691 108.451 206.013 106.952 206.659C105.453 207.305 104.107 208.26 103.003 209.463C101.899 210.665 101.061 212.087 100.545 213.635C100.029 215.184 99.8451 216.824 100.007 218.448H400.546C400.195 215.003 398.595 211.805 396.047 209.459C393.5 207.113 390.182 205.781 386.72 205.714Z" fill="#407BFF"/>
<path d="M118.135 212.094C118.173 212.445 118.136 212.8 118.026 213.136C117.916 213.471 117.736 213.78 117.498 214.041C117.26 214.301 116.969 214.508 116.645 214.648C116.321 214.788 115.971 214.857 115.618 214.852C114.869 214.836 114.153 214.547 113.603 214.039C113.053 213.531 112.709 212.839 112.634 212.094C112.598 211.744 112.637 211.39 112.748 211.055C112.858 210.72 113.038 210.413 113.276 210.153C113.514 209.892 113.803 209.685 114.127 209.545C114.45 209.404 114.799 209.333 115.151 209.337C115.901 209.347 116.621 209.634 117.172 210.143C117.723 210.652 118.066 211.347 118.135 212.094Z" fill="white"/>
<path d="M129.324 212.094C129.362 212.445 129.324 212.8 129.215 213.136C129.105 213.471 128.925 213.78 128.687 214.041C128.449 214.301 128.158 214.508 127.834 214.648C127.51 214.788 127.159 214.857 126.806 214.852C126.067 214.823 125.364 214.528 124.825 214.021C124.287 213.515 123.949 212.83 123.876 212.094C123.84 211.744 123.879 211.39 123.99 211.055C124.1 210.72 124.28 210.413 124.518 210.153C124.756 209.892 125.046 209.685 125.369 209.545C125.692 209.404 126.041 209.333 126.393 209.337C127.134 209.36 127.841 209.653 128.381 210.161C128.921 210.669 129.256 211.356 129.324 212.094Z" fill="white"/>
<path d="M140.513 212.094C140.55 212.445 140.513 212.8 140.403 213.136C140.294 213.471 140.114 213.78 139.876 214.041C139.638 214.301 139.347 214.508 139.023 214.648C138.698 214.788 138.348 214.857 137.995 214.852C137.247 214.836 136.53 214.547 135.981 214.039C135.431 213.531 135.086 212.839 135.011 212.094C134.976 211.744 135.015 211.39 135.125 211.055C135.236 210.72 135.416 210.413 135.654 210.153C135.891 209.892 136.181 209.685 136.504 209.545C136.827 209.404 137.177 209.333 137.529 209.337C138.279 209.347 138.999 209.634 139.55 210.143C140.101 210.652 140.444 211.347 140.513 212.094Z" fill="white"/>
<path d="M380.472 393.007H149.184C146.429 392.955 143.789 391.895 141.763 390.026C139.738 388.158 138.468 385.612 138.195 382.87L127.326 253.08C127.196 251.786 127.342 250.478 127.753 249.244C128.165 248.01 128.833 246.877 129.713 245.92C130.594 244.962 131.667 244.202 132.863 243.689C134.059 243.176 135.349 242.922 136.65 242.943H367.978C370.733 242.995 373.374 244.056 375.399 245.924C377.424 247.792 378.694 250.338 378.967 253.08L389.77 382.937C389.889 384.224 389.737 385.521 389.323 386.745C388.908 387.97 388.241 389.093 387.364 390.043C386.487 390.992 385.421 391.747 384.234 392.258C383.046 392.768 381.765 393.023 380.472 393.007Z" fill="#F0F0F0"/>
<path opacity="0.1" d="M308.917 265.614L237.256 351.901C235.003 354.611 233.487 357.855 232.854 361.321C232.221 364.787 232.492 368.358 233.64 371.689C234.789 375.019 236.777 377.998 239.412 380.337C242.047 382.676 245.241 384.296 248.684 385.041L364.968 410.176C368.605 410.965 372.388 410.749 375.911 409.551C379.435 408.353 382.566 406.219 384.968 403.377C387.371 400.535 388.955 397.092 389.549 393.419C390.144 389.745 389.728 385.979 388.345 382.524L343.763 271.089C342.445 267.782 340.29 264.875 337.509 262.655C334.728 260.434 331.416 258.976 327.9 258.423C324.384 257.871 320.784 258.243 317.456 259.504C314.128 260.765 311.185 262.871 308.917 265.614Z" fill="#263238"/>
<path opacity="0.1" d="M149.397 277.709L124.435 344.988C123.688 347.042 123.473 349.252 123.809 351.412C124.146 353.572 125.025 355.611 126.363 357.339C127.7 359.068 129.454 360.43 131.46 361.298C133.466 362.166 135.659 362.512 137.835 362.304L210.736 355.151C213.056 354.925 215.271 354.076 217.149 352.695C219.026 351.314 220.496 349.451 221.403 347.304C222.311 345.157 222.621 342.805 222.303 340.496C221.984 338.187 221.048 336.007 219.594 334.185L171.642 274.112C170.209 272.324 168.328 270.948 166.189 270.125C164.051 269.302 161.733 269.061 159.471 269.426C157.209 269.792 155.085 270.751 153.315 272.207C151.545 273.662 150.193 275.56 149.397 277.709Z" fill="#263238"/>
<path d="M333.639 243.889L266.64 341.125C264.547 344.162 263.269 347.686 262.928 351.358C262.586 355.031 263.193 358.729 264.69 362.1C266.187 365.471 268.524 368.401 271.477 370.611C274.431 372.82 277.902 374.234 281.558 374.718L404.715 391.115C408.588 391.631 412.529 391.084 416.115 389.533C419.702 387.982 422.799 385.485 425.076 382.309C427.352 379.134 428.723 375.399 429.041 371.504C429.358 367.61 428.611 363.702 426.879 360.199L370.722 246.527C369.055 243.159 366.537 240.286 363.417 238.192C360.297 236.098 356.684 234.856 352.936 234.59C349.188 234.323 345.435 235.041 342.05 236.672C338.666 238.304 335.766 240.791 333.639 243.889Z" fill="#407BFF"/>
<path d="M284.475 366.034C282.251 365.731 280.136 364.883 278.319 363.566C276.501 362.248 275.038 360.501 274.059 358.481C273.05 356.572 272.575 354.425 272.685 352.268C272.795 350.111 273.486 348.023 274.685 346.227L341.858 248.698C343.072 246.958 344.752 245.596 346.705 244.766C348.658 243.937 350.805 243.675 352.9 244.009C355.125 244.309 357.241 245.156 359.059 246.474C360.877 247.792 362.339 249.54 363.316 251.562L419.58 365.514C420.589 367.424 421.064 369.57 420.954 371.727C420.843 373.885 420.153 375.972 418.954 377.768C417.742 379.512 416.063 380.878 414.11 381.71C412.157 382.541 410.008 382.805 407.912 382.47L284.475 366.034Z" fill="white"/>
<path d="M347.186 278.481L355.031 279.52C357.484 279.866 359.724 281.103 361.323 282.995C362.922 284.886 363.769 287.3 363.703 289.777L363.17 300.006C363.157 300.377 363.117 300.747 363.05 301.112L357.469 331.948C357.069 334.073 355.856 335.958 354.087 337.202C352.318 338.446 350.133 338.95 347.998 338.608C345.732 338.286 343.642 337.206 342.067 335.544C340.493 333.883 339.527 331.737 339.327 329.457L337.076 297.595C337.049 297.227 337.049 296.858 337.076 296.49L337.595 286.247C337.652 285.083 337.953 283.945 338.48 282.905C339.006 281.866 339.747 280.95 340.652 280.217C341.558 279.484 342.608 278.95 343.734 278.651C344.86 278.352 346.036 278.294 347.186 278.481ZM346.56 347.159L348.691 347.439C350.886 347.749 352.891 348.855 354.323 350.548C355.755 352.24 356.514 354.4 356.457 356.616C356.41 357.661 356.142 358.685 355.672 359.619C355.202 360.554 354.54 361.378 353.728 362.039C352.917 362.699 351.975 363.18 350.965 363.451C349.954 363.722 348.898 363.776 347.865 363.609L345.734 363.316C343.54 363.009 341.535 361.906 340.103 360.215C338.671 358.525 337.911 356.367 337.968 354.152C338.013 353.106 338.279 352.082 338.749 351.146C339.218 350.211 339.881 349.386 340.692 348.725C341.504 348.064 342.447 347.583 343.458 347.313C344.47 347.043 345.527 346.991 346.56 347.159Z" fill="#407BFF"/>
<path d="M175.158 258.754L156.763 328.511C156.208 330.631 156.201 332.857 156.741 334.98C157.281 337.104 158.351 339.055 159.851 340.653C161.351 342.25 163.232 343.44 165.317 344.112C167.403 344.784 169.624 344.916 171.775 344.495L243.13 330.576C245.394 330.124 247.496 329.076 249.218 327.538C250.941 326.001 252.221 324.032 252.926 321.833C253.631 319.635 253.735 317.288 253.229 315.036C252.722 312.784 251.622 310.708 250.043 309.024L197.136 253.147C195.549 251.46 193.54 250.23 191.316 249.584C189.093 248.937 186.737 248.898 184.494 249.471C182.25 250.043 180.201 251.206 178.559 252.839C176.917 254.471 175.743 256.514 175.158 258.754Z" fill="#407BFF"/>
<path d="M171.628 338.874C170.318 339.111 168.969 339.013 167.707 338.59C166.445 338.166 165.31 337.43 164.409 336.45C163.479 335.506 162.806 334.339 162.457 333.061C162.107 331.783 162.091 330.436 162.411 329.151L180.846 259.207C181.165 257.985 181.826 256.879 182.75 256.018C183.675 255.157 184.825 254.577 186.067 254.345C187.378 254.111 188.728 254.212 189.99 254.638C191.252 255.064 192.386 255.802 193.287 256.783L246.38 312.727C247.311 313.67 247.985 314.836 248.337 316.114C248.69 317.392 248.708 318.739 248.391 320.026C248.07 321.246 247.408 322.349 246.484 323.208C245.559 324.066 244.41 324.644 243.17 324.875L171.628 338.874Z" fill="white"/>
<path d="M189.53 275.631L194.072 274.738C195.539 274.502 197.041 274.816 198.29 275.62C199.539 276.424 200.447 277.661 200.839 279.094L202.464 285.181C202.526 285.405 202.574 285.632 202.611 285.861L205.501 305.028C205.726 306.318 205.433 307.646 204.684 308.721C203.936 309.796 202.793 310.532 201.505 310.769C200.154 310.993 198.767 310.748 197.575 310.074C196.382 309.401 195.456 308.339 194.952 307.066L187.572 288.844C187.483 288.632 187.407 288.414 187.346 288.192L185.667 282.091C185.449 281.413 185.378 280.696 185.459 279.988C185.54 279.28 185.771 278.598 186.137 277.986C186.502 277.375 186.994 276.849 187.579 276.442C188.164 276.036 188.83 275.759 189.53 275.631ZM202.384 315.964L203.623 315.724C204.936 315.496 206.288 315.77 207.41 316.49C208.532 317.21 209.343 318.324 209.683 319.613C209.871 320.214 209.93 320.847 209.857 321.471C209.783 322.096 209.579 322.698 209.258 323.239C208.936 323.779 208.504 324.246 207.99 324.608C207.475 324.97 206.891 325.22 206.274 325.341L205.035 325.581C203.723 325.809 202.373 325.537 201.251 324.82C200.13 324.103 199.317 322.991 198.974 321.705C198.786 321.104 198.727 320.47 198.801 319.844C198.874 319.219 199.078 318.616 199.4 318.074C199.721 317.533 200.153 317.065 200.667 316.701C201.181 316.338 201.766 316.086 202.384 315.964Z" fill="#407BFF"/>
<path d="M517.296 274.392L506.959 277.749L515.271 287.579C517.631 285.535 519.673 283.151 521.332 280.506C521.76 279.757 521.878 278.87 521.659 278.035C521.439 277.2 520.901 276.485 520.159 276.044L517.296 274.392Z" fill="#7F3E3B"/>
<path d="M502.204 285.874L508.398 293.4L515.284 287.632L506.959 277.802L502.204 285.874Z" fill="#7F3E3B"/>
<path d="M520.639 194.046C523.156 200.972 525.474 207.899 527.672 214.918C529.87 221.938 531.894 228.984 533.666 236.363L534.292 239.201L534.585 240.679L534.731 241.425V241.611V241.891L534.811 242.451C535.103 244.985 534.977 247.55 534.438 250.043C533.589 254.044 532.303 257.939 530.602 261.658C527.498 268.608 523.677 275.215 519.2 281.372L512.287 277.549C514.738 270.889 517.162 264.082 518.947 257.489C519.829 254.399 520.444 251.24 520.785 248.045C520.896 246.942 520.843 245.829 520.626 244.742L520.053 242.664L519.307 240.2C517.216 233.54 514.831 226.68 512.474 219.86C510.116 213.04 507.758 206.154 505.494 199.32L520.639 194.046Z" fill="#7F3E3B"/>
<path d="M463.11 152.834C463.283 153.673 462.99 154.445 462.457 154.592C461.924 154.738 461.338 154.152 461.125 153.26C460.912 152.367 461.232 151.648 461.778 151.515C462.324 151.382 462.937 152.008 463.11 152.834Z" fill="#263238"/>
<path d="M463.07 154.432C462.619 157.222 461.804 159.94 460.646 162.517C461.3 162.782 462.006 162.897 462.711 162.856C463.415 162.814 464.102 162.617 464.722 162.278L463.07 154.432Z" fill="#630F0F"/>
<path d="M460.872 147.852C460.791 147.852 460.711 147.833 460.64 147.796C460.568 147.759 460.506 147.705 460.459 147.639C460.421 147.586 460.394 147.525 460.379 147.462C460.364 147.398 460.363 147.332 460.374 147.267C460.385 147.203 460.409 147.141 460.444 147.086C460.479 147.031 460.525 146.983 460.579 146.946C461.249 146.532 462.009 146.284 462.795 146.224C463.58 146.163 464.369 146.292 465.094 146.6C465.155 146.625 465.211 146.661 465.257 146.708C465.303 146.754 465.34 146.809 465.365 146.87C465.39 146.931 465.402 146.996 465.401 147.062C465.401 147.127 465.387 147.192 465.361 147.253C465.31 147.376 465.214 147.474 465.092 147.526C464.97 147.578 464.832 147.581 464.708 147.532C464.141 147.282 463.521 147.172 462.902 147.211C462.283 147.25 461.683 147.438 461.152 147.759C461.072 147.821 460.973 147.854 460.872 147.852Z" fill="#263238"/>
<path d="M491.654 155.471C492.587 165.141 491.215 174.505 493.373 182.91C493.373 182.91 490.975 190.716 476.683 190.716C460.965 190.716 469.477 182.91 469.477 182.91C478.135 180.872 478.148 174.505 476.896 168.525L491.654 155.471Z" fill="#7F3E3B"/>
<path d="M496.423 185.588C497.648 183.123 498.461 179.62 495.93 178.741C493.146 177.769 478.268 177.409 472.873 179.274C471.435 179.654 470.202 180.581 469.438 181.858C468.674 183.135 468.439 184.66 468.784 186.107L496.423 185.588Z" fill="#263238"/>
<path d="M528.538 536.383C529.518 536.13 530.466 535.764 531.361 535.291C531.409 535.268 531.45 535.232 531.478 535.187C531.506 535.143 531.521 535.091 531.521 535.038C531.52 534.983 531.502 534.93 531.468 534.887C531.434 534.844 531.388 534.812 531.335 534.798C530.869 534.638 526.739 533.266 525.647 534.199C525.528 534.302 525.44 534.436 525.39 534.586C525.341 534.736 525.333 534.897 525.367 535.051C525.388 535.33 525.48 535.598 525.634 535.831C525.788 536.064 525.999 536.254 526.247 536.383C526.989 536.64 527.795 536.64 528.538 536.383ZM530.509 535.051C528.697 535.877 527.232 536.157 526.513 535.784C526.346 535.702 526.205 535.577 526.102 535.423C525.999 535.269 525.938 535.09 525.927 534.905C525.906 534.844 525.904 534.779 525.92 534.717C525.937 534.655 525.972 534.6 526.02 534.558C526.566 534.132 528.804 534.598 530.509 535.104V535.051Z" fill="#407BFF"/>
<path d="M531.308 535.317C531.344 535.308 531.378 535.292 531.408 535.269C531.437 535.247 531.462 535.219 531.481 535.186C531.5 535.154 531.512 535.118 531.516 535.081C531.521 535.045 531.518 535.007 531.508 534.971C531.508 534.838 530.429 531.668 528.844 530.975C528.659 530.878 528.455 530.82 528.246 530.806C528.038 530.792 527.828 530.823 527.632 530.895C527.432 530.942 527.255 531.056 527.131 531.219C527.007 531.382 526.944 531.583 526.953 531.788C526.953 533.12 529.83 535.011 531.135 535.371L531.308 535.317ZM527.978 531.321C528.203 531.269 528.438 531.298 528.644 531.401C529.662 532.229 530.409 533.342 530.789 534.598C529.457 533.999 527.565 532.48 527.539 531.708C527.539 531.641 527.539 531.481 527.858 531.348L527.978 531.321Z" fill="#407BFF"/>
<path d="M455.784 544.522C456.795 544.493 457.8 544.355 458.781 544.109C458.833 544.093 458.881 544.064 458.918 544.025C458.956 543.985 458.982 543.936 458.994 543.882C458.999 543.828 458.989 543.773 458.965 543.724C458.942 543.675 458.906 543.633 458.861 543.603C458.448 543.349 454.745 541.072 453.466 541.724C453.324 541.797 453.205 541.907 453.122 542.044C453.04 542.181 452.998 542.337 453 542.497C452.971 542.764 453.007 543.034 453.104 543.284C453.202 543.535 453.358 543.758 453.559 543.936C454.217 544.369 454.998 544.575 455.784 544.522ZM457.995 543.722C456.05 544.109 454.545 544.042 453.919 543.509C453.779 543.39 453.671 543.237 453.606 543.064C453.541 542.892 453.52 542.706 453.546 542.524C453.546 542.31 453.639 542.244 453.719 542.204C454.372 541.871 456.49 542.843 457.995 543.722Z" fill="#407BFF"/>
<path d="M458.714 544.109C458.767 544.121 458.821 544.121 458.874 544.109C458.914 544.08 458.945 544.042 458.966 543.997C458.987 543.953 458.997 543.904 458.994 543.856C458.994 543.722 458.701 540.406 457.369 539.314C457.212 539.175 457.028 539.072 456.828 539.013C456.627 538.953 456.417 538.937 456.21 538.967C456.006 538.966 455.808 539.036 455.651 539.165C455.493 539.294 455.384 539.473 455.344 539.673C455.104 541.005 457.396 543.469 458.594 544.122L458.714 544.109ZM456.397 539.46C456.626 539.456 456.849 539.537 457.023 539.686C457.82 540.728 458.284 541.986 458.355 543.296C457.169 542.39 455.691 540.499 455.85 539.74C455.85 539.74 455.85 539.5 456.25 539.46H456.37H456.397Z" fill="#407BFF"/>
<path d="M471.088 543.696H460.566L460.459 519.347H470.982L471.088 543.696Z" fill="#7F3E3B"/>
<path d="M544.335 534.691L534.212 536.543L526.953 512.58L537.076 510.729L544.335 534.691Z" fill="#7F3E3B"/>
<path d="M532.294 533.852L543.789 531.188C543.989 531.139 544.199 531.161 544.384 531.251C544.569 531.341 544.717 531.493 544.801 531.681L548.611 540.379C548.702 540.596 548.745 540.831 548.736 541.067C548.727 541.302 548.666 541.533 548.558 541.742C548.45 541.952 548.298 542.135 548.111 542.279C547.924 542.424 547.709 542.525 547.479 542.577C543.483 543.456 541.458 543.669 536.396 544.868C533.293 545.6 526.952 547.452 522.65 548.464C518.348 549.477 516.962 545.321 518.654 544.468C526.193 540.859 528.697 537.808 530.762 534.878C531.134 534.365 531.677 534.001 532.294 533.852Z" fill="#263238"/>
<path d="M460.685 542.47H472.167C472.373 542.47 472.572 542.542 472.73 542.673C472.889 542.805 472.996 542.987 473.033 543.19L474.751 552.514C474.793 552.744 474.783 552.98 474.722 553.206C474.661 553.432 474.55 553.642 474.399 553.82C474.247 553.998 474.058 554.141 473.845 554.237C473.632 554.334 473.4 554.382 473.166 554.378C469.024 554.312 463.056 554.072 457.848 554.072C451.761 554.072 449.59 554.405 442.45 554.405C438.135 554.405 437.122 550.036 438.934 549.65C447.219 547.838 450.842 547.652 458.128 543.27C458.891 542.774 459.776 542.498 460.685 542.47Z" fill="#263238"/>
<path d="M516.816 185.628C526.633 192.541 529.59 210.336 529.59 210.336L507.345 221.605C503.828 214.572 501.102 207.169 499.22 199.534C496.836 189.011 509.836 180.726 516.816 185.628Z" fill="#407BFF"/>
<path opacity="0.2" d="M505.694 196.976L514.458 217.968L507.346 221.605C505.141 217.148 503.219 212.557 501.591 207.859L505.694 196.976Z" fill="black"/>
<path d="M451.402 231.768C451.481 243.503 452.187 258.102 453.932 276.217H510.156C510.835 267.958 507.385 229.024 515.764 190.036C515.912 189.35 515.918 188.64 515.782 187.951C515.646 187.262 515.37 186.608 514.973 186.03C514.575 185.451 514.063 184.959 513.468 184.586C512.873 184.212 512.209 183.964 511.515 183.856C507.102 183.15 502.656 182.674 498.195 182.431C490.231 181.971 482.248 181.971 474.285 182.431C471.072 182.709 467.875 183.154 464.708 183.763C462.353 184.241 460.181 185.375 458.441 187.034C456.702 188.693 455.467 190.81 454.878 193.14C453.128 200.324 452.098 207.664 451.801 215.051C451.548 219.847 451.362 225.401 451.402 231.768Z" fill="#407BFF"/>
<path opacity="0.2" d="M469.144 209.737C465.427 212.401 458.315 213.733 451.828 214.279C451.934 212.561 452.067 210.936 452.214 209.404C453.959 208.485 455.637 207.645 457.222 206.873L469.144 209.737Z" fill="black"/>
<g opacity="0.2">
<path d="M460.459 519.347L460.526 532.88H471.035L470.982 519.347H460.459Z" fill="black"/>
<path d="M537.076 510.729L526.953 512.594L530.709 524.941L540.832 523.076L537.076 510.729Z" fill="black"/>
</g>
<path d="M490.176 144.149C491.708 154.499 493.133 160.466 489.137 166.993C487.868 169.115 486.043 170.85 483.859 172.01C481.675 173.17 479.216 173.711 476.746 173.574C474.277 173.437 471.893 172.627 469.851 171.232C467.809 169.837 466.187 167.911 465.161 165.661C461.045 157.056 459.22 141.565 468.238 135.025C470.151 133.562 472.414 132.629 474.802 132.318C477.19 132.008 479.617 132.331 481.84 133.256C484.063 134.18 486.004 135.674 487.467 137.586C488.93 139.498 489.865 141.762 490.176 144.149Z" fill="#7F3E3B"/>
<path d="M468.651 151.715C464.748 149.997 465.121 143.856 466.307 141.272C461.791 142.817 455.264 143.709 454.092 139.114C452.92 134.519 456.903 133.053 454.465 129.124C452.028 125.195 459.793 120.919 463.416 126.46C467.039 132.001 475.99 129.524 481.771 124.236C485.98 120.386 492.134 125.355 489.696 130.376C489.696 130.376 502.35 129.564 499.833 138.155C497.315 146.746 493.759 147.039 494.572 153.153C495.131 157.283 495.611 165.674 490.655 166.86C484.661 168.232 469.716 162.917 468.651 151.715Z" fill="#263238"/>
<path opacity="0.2" d="M468.571 162.917C467.425 163.743 466.24 164.622 465.028 165.581L465.094 165.727C466.278 168.224 468.173 170.314 470.542 171.735C471.302 171.002 471.728 168.538 473.14 168.578C477.362 168.698 485.527 166.926 486.886 162.158L468.571 162.917Z" fill="black"/>
<path d="M471.861 151.568C472.152 153.87 471.802 156.207 470.849 158.322C469.65 160.759 467.758 159.201 467.026 156.204C466.36 153.54 466.187 148.998 467.918 147.666C469.65 146.334 471.528 148.531 471.861 151.568Z" fill="#7F3E3B"/>
<path d="M473.886 276.257C473.886 276.257 482.717 356.603 488.098 386.706C493.999 419.673 524.555 523.143 524.555 523.143L543.389 519.147C543.389 519.147 522.357 422.337 519.48 389.703C516.403 354.272 510.156 276.257 510.156 276.257H473.886Z" fill="#407BFF"/>
<path opacity="0.3" d="M473.886 276.257C473.886 276.257 482.717 356.603 488.098 386.706C493.999 419.673 524.555 523.143 524.555 523.143L543.389 519.147C543.389 519.147 522.357 422.337 519.48 389.703C516.55 356.03 516.55 356.097 510.156 276.257H473.886Z" fill="black"/>
<path d="M520.346 516.816C520.266 516.816 523.543 523.689 523.543 523.689L544.788 519.147L543.283 512.727L520.346 516.816Z" fill="#263238"/>
<path opacity="0.2" d="M480.319 304.895C494.012 307.559 490.562 359.041 487.885 385.507C484.635 366.859 480.199 330.802 477.229 305.268C478.186 304.792 479.277 304.66 480.319 304.895Z" fill="black"/>
<path d="M453.932 276.257C453.932 276.257 449.457 354.845 449.364 386.933C449.257 420.233 456.69 529.457 456.69 529.457H474.512C474.512 529.457 479.307 422.217 481.358 389.463C483.596 353.753 490.909 276.243 490.909 276.243L453.932 276.257Z" fill="#407BFF"/>
<path opacity="0.3" d="M453.932 276.257C453.932 276.257 449.457 354.845 449.364 386.933C449.257 420.233 456.69 529.457 456.69 529.457H474.512C474.512 529.457 479.307 422.217 481.358 389.463C483.596 353.753 490.909 276.243 490.909 276.243L453.932 276.257Z" fill="black"/>
<path d="M453.546 522.384C453.466 522.384 454.265 529.776 454.265 529.776H475.924L476.763 523.116L453.546 522.384Z" fill="#263238"/>
<path d="M476.217 202.118C474.085 202.317 472.287 202.437 470.329 202.491C468.371 202.544 466.506 202.584 464.602 202.571C460.765 202.571 456.929 202.331 453.066 201.905C449.146 201.5 445.256 200.833 441.425 199.907C437.367 198.953 433.427 197.555 429.677 195.737L429.237 195.511C428.414 195.109 427.679 194.549 427.074 193.862C426.469 193.175 426.006 192.375 425.711 191.509C425.417 190.642 425.296 189.726 425.357 188.812C425.418 187.899 425.66 187.007 426.067 186.187C426.253 185.809 426.471 185.448 426.719 185.108C428.31 183.001 430.118 181.068 432.114 179.34C433.912 177.742 435.711 176.317 437.522 174.958C441.145 172.228 444.848 169.817 448.564 167.472C452.281 165.128 456.077 162.957 459.9 160.812C463.722 158.668 467.572 156.736 471.568 154.885C472.446 154.534 473.421 154.506 474.318 154.806C475.215 155.105 475.977 155.714 476.468 156.523C476.958 157.331 477.146 158.288 476.998 159.222C476.849 160.157 476.374 161.008 475.657 161.625C472.314 164.196 468.864 166.74 465.521 169.35C462.177 171.961 458.861 174.532 455.544 177.169C452.227 179.807 449.07 182.497 446.047 185.161C444.542 186.493 443.09 187.825 441.798 189.277C440.636 190.458 439.583 191.742 438.654 193.113L435.71 182.457C438.612 183.534 441.609 184.332 444.662 184.842C447.929 185.397 451.224 185.779 454.532 185.987C457.902 186.2 461.312 186.32 464.735 186.32C466.453 186.32 468.171 186.32 469.876 186.32C471.581 186.32 473.379 186.187 474.871 186.107H475.044C477.059 186.105 479 186.864 480.479 188.232C481.958 189.6 482.866 191.476 483.021 193.485C483.176 195.493 482.567 197.486 481.315 199.065C480.063 200.643 478.261 201.691 476.27 201.998L476.217 202.118Z" fill="#7F3E3B"/>
<path d="M483.676 152.807L477.016 154.286C477.016 154.286 468.105 153.18 466.067 159.893L471.395 164.395L479.547 165.727C480.836 165.928 482.156 165.714 483.316 165.115L485.394 164.036C485.866 163.793 486.27 163.435 486.568 162.995C486.866 162.555 487.049 162.047 487.099 161.518L487.592 156.19C487.641 155.686 487.568 155.177 487.38 154.706C487.191 154.236 486.893 153.817 486.509 153.486C486.125 153.154 485.668 152.92 485.175 152.802C484.682 152.684 484.168 152.685 483.676 152.807Z" fill="#7F3E3B"/>
<path d="M470.676 209.897C459.473 213.013 446.7 209.124 446.7 209.124L451.402 184.042C451.402 184.042 462.524 183.057 469.477 182.91C487.365 182.484 490.869 204.302 470.676 209.897Z" fill="#407BFF"/>
</svg>
