<svg width="19" height="22" viewBox="0 0 19 22" fill="none" xmlns="http://www.w3.org/2000/svg">
<path d="M13.75 22H4.58333C2.05608 22 0 19.9439 0 17.4167V4.58333C0 2.05608 2.05608 0 4.58333 0H13.75C16.2772 0 18.3333 2.05608 18.3333 4.58333V17.4167C18.3333 19.9439 16.2772 22 13.75 22ZM4.58333 1.83333C3.06717 1.83333 1.83333 3.06717 1.83333 4.58333V17.4167C1.83333 18.9328 3.06717 20.1667 4.58333 20.1667H13.75C15.2662 20.1667 16.5 18.9328 16.5 17.4167V4.58333C16.5 3.06717 15.2662 1.83333 13.75 1.83333H4.58333ZM14.6667 5.5C14.6667 4.994 14.256 4.58333 13.75 4.58333H10.0833C9.57733 4.58333 9.16667 4.994 9.16667 5.5C9.16667 6.006 9.57733 6.41667 10.0833 6.41667H13.75C14.256 6.41667 14.6667 6.006 14.6667 5.5ZM14.6667 11C14.6667 10.494 14.256 10.0833 13.75 10.0833H10.0833C9.57733 10.0833 9.16667 10.494 9.16667 11C9.16667 11.506 9.57733 11.9167 10.0833 11.9167H13.75C14.256 11.9167 14.6667 11.506 14.6667 11ZM14.6667 16.5C14.6667 15.994 14.256 15.5833 13.75 15.5833H10.0833C9.57733 15.5833 9.16667 15.994 9.16667 16.5C9.16667 17.006 9.57733 17.4167 10.0833 17.4167H13.75C14.256 17.4167 14.6667 17.006 14.6667 16.5ZM7.33333 6.41667V4.58333C7.33333 4.07733 6.92267 3.66667 6.41667 3.66667H4.58333C4.07733 3.66667 3.66667 4.07733 3.66667 4.58333V6.41667C3.66667 6.92267 4.07733 7.33333 4.58333 7.33333H6.41667C6.92267 7.33333 7.33333 6.92267 7.33333 6.41667ZM7.33333 11.9167V10.0833C7.33333 9.57733 6.92267 9.16667 6.41667 9.16667H4.58333C4.07733 9.16667 3.66667 9.57733 3.66667 10.0833V11.9167C3.66667 12.4227 4.07733 12.8333 4.58333 12.8333H6.41667C6.92267 12.8333 7.33333 12.4227 7.33333 11.9167ZM7.33333 17.4167V15.5833C7.33333 15.0773 6.92267 14.6667 6.41667 14.6667H4.58333C4.07733 14.6667 3.66667 15.0773 3.66667 15.5833V17.4167C3.66667 17.9227 4.07733 18.3333 4.58333 18.3333H6.41667C6.92267 18.3333 7.33333 17.9227 7.33333 17.4167Z" fill="white"/>
</svg>
