<svg width="100" height="100" viewBox="0 0 100 100" fill="none" xmlns="http://www.w3.org/2000/svg">
<rect width="100" height="100" rx="50" fill="#F5F7FE"/>
<g clip-path="url(#clip0_110_4099)">
<path d="M49.625 54.5C53.5312 54.5 57.3496 53.3417 60.5975 51.1715C63.8454 49.0014 66.3768 45.9168 67.8716 42.308C69.3665 38.6992 69.7576 34.7281 68.9955 30.897C68.2335 27.0659 66.3524 23.5467 63.5904 20.7846C60.8283 18.0226 57.3092 16.1416 53.478 15.3795C49.6469 14.6174 45.6758 15.0086 42.067 16.5034C38.4582 17.9982 35.3736 20.5296 33.2035 23.7775C31.0333 27.0254 29.875 30.8438 29.875 34.75C29.8802 39.9864 31.9627 45.0069 35.6654 48.7096C39.3681 52.4123 44.3886 54.4948 49.625 54.5ZM49.625 21.5833C52.2291 21.5833 54.7748 22.3556 56.94 23.8023C59.1053 25.2491 60.7929 27.3055 61.7894 29.7113C62.786 32.1172 63.0467 34.7646 62.5387 37.3187C62.0306 39.8728 60.7766 42.2189 58.9352 44.0602C57.0938 45.9016 54.7478 47.1556 52.1937 47.6637C49.6396 48.1717 46.9922 47.911 44.5863 46.9144C42.1804 45.9179 40.1241 44.2303 38.6773 42.065C37.2305 39.8998 36.4583 37.3541 36.4583 34.75C36.4583 31.258 37.8455 27.909 40.3148 25.4398C42.784 22.9705 46.133 21.5833 49.625 21.5833Z" fill="#123164"/>
<path d="M49.625 61.0835C41.7706 61.0922 34.2405 64.2162 28.6866 69.7701C23.1327 75.324 20.0087 82.8541 20 90.7085C20 91.5815 20.3468 92.4188 20.9641 93.0361C21.5814 93.6534 22.4187 94.0002 23.2917 94.0002C24.1647 94.0002 25.0019 93.6534 25.6192 93.0361C26.2365 92.4188 26.5833 91.5815 26.5833 90.7085C26.5833 84.5975 29.0109 78.7367 33.3321 74.4156C37.6532 70.0944 43.514 67.6668 49.625 67.6668C55.736 67.6668 61.5968 70.0944 65.9179 74.4156C70.2391 78.7367 72.6667 84.5975 72.6667 90.7085C72.6667 91.5815 73.0135 92.4188 73.6308 93.0361C74.2481 93.6534 75.0853 94.0002 75.9583 94.0002C76.8313 94.0002 77.6686 93.6534 78.2859 93.0361C78.9032 92.4188 79.25 91.5815 79.25 90.7085C79.2413 82.8541 76.1173 75.324 70.5634 69.7701C65.0095 64.2162 57.4794 61.0922 49.625 61.0835Z" fill="#123164"/>
</g>
<rect x="70" y="70" width="26.5714" height="26.7914" rx="13.2857" fill="#123164" stroke="white" stroke-width="2"/>
<path d="M86.859 79.7938C86.4959 79.7938 86.1626 79.5839 85.9959 79.26L85.5673 78.3902C85.2935 77.8444 84.5792 77.3945 83.9721 77.3945H82.609C81.9959 77.3945 81.2816 77.8444 81.0078 78.3902L80.5792 79.26C80.4126 79.5839 80.0792 79.7938 79.7161 79.7938C78.4245 79.7938 77.4007 80.8915 77.484 82.1871L77.7935 87.1416C77.865 88.3772 78.5257 89.3909 80.1685 89.3909H86.4066C88.0495 89.3909 88.7042 88.3772 88.7816 87.1416L89.0911 82.1871C89.1745 80.8915 88.1507 79.7938 86.859 79.7938ZM82.3947 80.5436H84.1804C84.4245 80.5436 84.6269 80.7475 84.6269 80.9935C84.6269 81.2394 84.4245 81.4433 84.1804 81.4433H82.3947C82.1507 81.4433 81.9483 81.2394 81.9483 80.9935C81.9483 80.7475 82.1507 80.5436 82.3947 80.5436ZM83.2876 87.0636C82.1804 87.0636 81.2757 86.1579 81.2757 85.0362C81.2757 83.9146 82.1745 83.0088 83.2876 83.0088C84.4007 83.0088 85.2995 83.9146 85.2995 85.0362C85.2995 86.1579 84.3947 87.0636 83.2876 87.0636Z" fill="white"/>
<defs>
<clipPath id="clip0_110_4099">
<rect width="59.25" height="79" fill="white" transform="translate(20 15)"/>
</clipPath>
</defs>
</svg>
