<svg width="23" height="23" viewBox="0 0 20 20" fill="none" xmlns="http://www.w3.org/2000/svg">
<path d="M4.4444 9.78561C4.9787 10.1426 5.60685 10.3332 6.24944 10.3333C7.11125 10.3324 7.93749 9.9896 8.54688 9.38021C9.15626 8.77083 9.49903 7.94461 9.5 7.08282L4.4444 9.78561ZM4.4444 9.78561C3.90994 9.4285 3.49338 8.92091 3.24739 8.32706M4.4444 9.78561L3.24739 8.32706M3.24739 8.32706C3.00141 7.7332 2.93705 7.07973 3.06245 6.44929M3.24739 8.32706L3.06245 6.44929M3.06245 6.44929C3.18785 5.81885 3.49738 5.23976 3.9519 4.78524M3.06245 6.44929L3.9519 4.78524M3.9519 4.78524C4.40642 4.33072 4.98552 4.02118 5.61596 3.89578M3.9519 4.78524L5.61596 3.89578M5.61596 3.89578C6.24639 3.77038 6.89986 3.83474 7.49372 4.08073M5.61596 3.89578L7.49372 4.08073M7.49372 4.08073C8.08758 4.32671 8.59516 4.74327 8.95228 5.27773M7.49372 4.08073L8.95228 5.27773M8.95228 5.27773C9.30929 5.81204 9.49989 6.44018 9.5 7.08278L8.95228 5.27773ZM12.7777 6.45228C13.3121 6.80937 13.9404 6.99997 14.5832 7C15.4448 6.99894 16.2709 6.65617 16.8802 6.04688C17.4896 5.4375 17.8324 4.61128 17.8333 3.74948L12.7777 6.45228ZM12.7777 6.45228C12.2433 6.09516 11.8267 5.58758 11.5807 4.99372M12.7777 6.45228L11.5807 4.99372M11.5807 4.99372C11.3347 4.39986 11.2704 3.7464 11.3958 3.11596M11.5807 4.99372L11.3958 3.11596M11.3958 3.11596C11.5212 2.48552 11.8307 1.90643 12.2852 1.4519M11.3958 3.11596L12.2852 1.4519M12.2852 1.4519C12.7398 0.997384 13.3189 0.687851 13.9493 0.56245M12.2852 1.4519L13.9493 0.56245M13.9493 0.56245C14.5797 0.437048 15.2332 0.501408 15.8271 0.747393M13.9493 0.56245L15.8271 0.747393M15.8271 0.747393C16.4209 0.993378 16.9285 1.40994 17.2856 1.9444M15.8271 0.747393L17.2856 1.9444M17.2856 1.9444C17.6426 2.4787 17.8332 3.10685 17.8333 3.74945L17.2856 1.9444ZM10.6075 11.0281L10.6076 11.0281L10.6109 11.0252C11.3782 10.3387 12.3279 9.88907 13.3451 9.73048C14.3624 9.57189 15.4039 9.71114 16.3438 10.1314C17.2837 10.5517 18.0818 11.235 18.6419 12.099C19.2019 12.9629 19.5 13.9704 19.5 15C19.5 15.0884 19.4649 15.1732 19.4024 15.2357C19.3399 15.2982 19.2551 15.3333 19.1667 15.3333C19.0783 15.3333 18.9935 15.2982 18.931 15.2357C18.8685 15.1732 18.8333 15.0884 18.8333 15C18.8333 14.0992 18.5726 13.2176 18.0826 12.4617C17.5926 11.7058 16.8943 11.1079 16.072 10.7401C15.2497 10.3723 14.3385 10.2504 13.4484 10.389C12.5583 10.5277 11.7274 10.921 11.0559 11.5215L11.0558 11.5214L11.0522 11.5248C11.0197 11.5544 10.9816 11.5774 10.9401 11.5922C10.8987 11.6071 10.8547 11.6136 10.8107 11.6114C10.7668 11.6092 10.7237 11.5983 10.6839 11.5793C10.6442 11.5603 10.6086 11.5336 10.5792 11.5008C10.5499 11.468 10.5273 11.4297 10.5128 11.3881C10.4983 11.3466 10.4922 11.3025 10.4948 11.2586C10.4975 11.2146 10.5088 11.1716 10.5281 11.1321L10.079 10.9124L10.5281 11.132C10.5475 11.0925 10.5745 11.0572 10.6075 11.0281ZM6.25 4.5C5.73906 4.5 5.2396 4.65151 4.81478 4.93537C4.38995 5.21923 4.05884 5.62269 3.86331 6.09474C3.66778 6.56678 3.61663 7.0862 3.7163 7.58732C3.81598 8.08844 4.06202 8.54874 4.42331 8.91003C4.78459 9.27131 5.2449 9.51735 5.74602 9.61703C6.24713 9.71671 6.76656 9.66555 7.2386 9.47002C7.71064 9.2745 8.1141 8.94338 8.39796 8.51856C8.68182 8.09373 8.83333 7.59427 8.83333 7.08333C8.83333 6.39819 8.56116 5.74111 8.07669 5.25664C7.59222 4.77217 6.93514 4.5 6.25 4.5ZM12 18.75V19.1667C12 19.2551 11.9649 19.3399 11.9024 19.4024C11.8399 19.4649 11.7551 19.5 11.6667 19.5C11.5783 19.5 11.4935 19.4649 11.431 19.4024C11.3685 19.3399 11.3333 19.2551 11.3333 19.1667V18.75C11.3333 17.4018 10.7978 16.1089 9.84446 15.1555C8.89115 14.2022 7.59818 13.6667 6.25 13.6667C4.90182 13.6667 3.60885 14.2022 2.65554 15.1555C1.70223 16.1089 1.16667 17.4018 1.16667 18.75V19.1667C1.16667 19.2551 1.13155 19.3399 1.06904 19.4024C1.00652 19.4649 0.921739 19.5 0.833333 19.5C0.744928 19.5 0.660143 19.4649 0.597631 19.4024C0.535119 19.3399 0.5 19.2551 0.5 19.1667V18.75C0.5 17.225 1.1058 15.7625 2.18414 14.6841C3.26247 13.6058 4.725 13 6.25 13C7.77499 13 9.23753 13.6058 10.3159 14.6841C11.3942 15.7625 12 17.225 12 18.75ZM14.5833 1.16667C14.0724 1.16667 13.5729 1.31818 13.1481 1.60204C12.7233 1.8859 12.3922 2.28936 12.1966 2.7614C12.0011 3.23344 11.95 3.75287 12.0496 4.25398C12.1493 4.7551 12.3954 5.21541 12.7566 5.57669C13.1179 5.93798 13.5782 6.18402 14.0793 6.2837C14.5805 6.38337 15.0999 6.33222 15.5719 6.13669C16.044 5.94116 16.4474 5.61005 16.7313 5.18522C17.0152 4.7604 17.1667 4.26094 17.1667 3.75C17.1667 3.06486 16.8945 2.40778 16.41 1.92331C15.9256 1.43884 15.2685 1.16667 14.5833 1.16667Z" fill="white" stroke="#787486"/>
</svg>
