<svg width="106" height="28" viewBox="0 0 106 28" fill="none" xmlns="http://www.w3.org/2000/svg">
<rect width="106" height="28" rx="14" fill="#FFF7AA"/>
<path d="M44.3585 9.965L40.9655 19H39.2495L35.8435 9.965H37.4295L40.1075 17.479L42.7985 9.965H44.3585ZM46.0186 10.888C45.7499 10.888 45.5246 10.797 45.3426 10.615C45.1606 10.433 45.0696 10.2077 45.0696 9.939C45.0696 9.67033 45.1606 9.445 45.3426 9.263C45.5246 9.081 45.7499 8.99 46.0186 8.99C46.2786 8.99 46.4996 9.081 46.6816 9.263C46.8636 9.445 46.9546 9.67033 46.9546 9.939C46.9546 10.2077 46.8636 10.433 46.6816 10.615C46.4996 10.797 46.2786 10.888 46.0186 10.888ZM46.7466 11.837V19H45.2646V11.837H46.7466ZM50.959 19.117C50.3956 19.117 49.8886 19.0173 49.438 18.818C48.996 18.61 48.645 18.3327 48.385 17.986C48.125 17.6307 47.9863 17.2363 47.969 16.803H49.503C49.529 17.1063 49.672 17.362 49.932 17.57C50.2006 17.7693 50.5343 17.869 50.933 17.869C51.349 17.869 51.6696 17.791 51.895 17.635C52.129 17.4703 52.246 17.2623 52.246 17.011C52.246 16.7423 52.116 16.543 51.856 16.413C51.6046 16.283 51.2016 16.14 50.647 15.984C50.1096 15.8367 49.672 15.6937 49.334 15.555C48.996 15.4163 48.7013 15.204 48.45 14.918C48.2073 14.632 48.086 14.255 48.086 13.787C48.086 13.4057 48.1986 13.059 48.424 12.747C48.6493 12.4263 48.97 12.175 49.386 11.993C49.8106 11.811 50.296 11.72 50.842 11.72C51.6566 11.72 52.311 11.928 52.805 12.344C53.3076 12.7513 53.5763 13.3103 53.611 14.021H52.129C52.103 13.7003 51.973 13.4447 51.739 13.254C51.505 13.0633 51.1886 12.968 50.79 12.968C50.4 12.968 50.101 13.0417 49.893 13.189C49.685 13.3363 49.581 13.5313 49.581 13.774C49.581 13.9647 49.6503 14.125 49.789 14.255C49.9276 14.385 50.0966 14.489 50.296 14.567C50.4953 14.6363 50.79 14.7273 51.18 14.84C51.7 14.9787 52.1246 15.1217 52.454 15.269C52.792 15.4077 53.0823 15.6157 53.325 15.893C53.5676 16.1703 53.6933 16.5387 53.702 16.998C53.702 17.4053 53.5893 17.7693 53.364 18.09C53.1386 18.4107 52.818 18.662 52.402 18.844C51.9946 19.026 51.5136 19.117 50.959 19.117ZM55.724 10.888C55.4553 10.888 55.23 10.797 55.048 10.615C54.866 10.433 54.775 10.2077 54.775 9.939C54.775 9.67033 54.866 9.445 55.048 9.263C55.23 9.081 55.4553 8.99 55.724 8.99C55.984 8.99 56.205 9.081 56.387 9.263C56.569 9.445 56.66 9.67033 56.66 9.939C56.66 10.2077 56.569 10.433 56.387 10.615C56.205 10.797 55.984 10.888 55.724 10.888ZM56.452 11.837V19H54.97V11.837H56.452ZM59.7934 13.046V17.011C59.7934 17.2797 59.854 17.4747 59.9754 17.596C60.1054 17.7087 60.322 17.765 60.6254 17.765H61.5354V19H60.3654C59.698 19 59.1867 18.844 58.8314 18.532C58.476 18.22 58.2984 17.713 58.2984 17.011V13.046H57.4534V11.837H58.2984V10.056H59.7934V11.837H61.5354V13.046H59.7934ZM62.0739 15.386C62.0739 14.6667 62.2213 14.0297 62.5159 13.475C62.8193 12.9203 63.2266 12.4913 63.7379 12.188C64.2579 11.876 64.8299 11.72 65.4539 11.72C66.0173 11.72 66.5069 11.8327 66.9229 12.058C67.3476 12.2747 67.6856 12.5477 67.9369 12.877V11.837H69.4319V19H67.9369V17.934C67.6856 18.272 67.3433 18.5537 66.9099 18.779C66.4766 19.0043 65.9826 19.117 65.4279 19.117C64.8126 19.117 64.2493 18.961 63.7379 18.649C63.2266 18.3283 62.8193 17.8863 62.5159 17.323C62.2213 16.751 62.0739 16.1053 62.0739 15.386ZM67.9369 15.412C67.9369 14.918 67.8329 14.489 67.6249 14.125C67.4256 13.761 67.1613 13.4837 66.8319 13.293C66.5026 13.1023 66.1473 13.007 65.7659 13.007C65.3846 13.007 65.0293 13.1023 64.6999 13.293C64.3706 13.475 64.1019 13.748 63.8939 14.112C63.6946 14.4673 63.5949 14.892 63.5949 15.386C63.5949 15.88 63.6946 16.3133 63.8939 16.686C64.1019 17.0587 64.3706 17.3447 64.6999 17.544C65.0379 17.7347 65.3933 17.83 65.7659 17.83C66.1473 17.83 66.5026 17.7347 66.8319 17.544C67.1613 17.3533 67.4256 17.076 67.6249 16.712C67.8329 16.3393 67.9369 15.906 67.9369 15.412Z" fill="#C6B200"/>
</svg>
