<svg width="106" height="28" viewBox="0 0 106 28" fill="none" xmlns="http://www.w3.org/2000/svg">
<rect width="106" height="28" rx="14" fill="#FFF7AA"/>
<path d="M19.2814 17.154H15.4984L14.8484 19H13.3014L16.5384 9.952H18.2544L21.4914 19H19.9314L19.2814 17.154ZM18.8654 15.945L17.3964 11.746L15.9144 15.945H18.8654ZM25.4515 11.72C26.0062 11.72 26.4958 11.8327 26.9205 12.058C27.3538 12.2747 27.6918 12.5477 27.9345 12.877V11.837H29.4295V19.117C29.4295 19.7757 29.2908 20.3607 29.0135 20.872C28.7362 21.392 28.3332 21.7993 27.8045 22.094C27.2845 22.3887 26.6605 22.536 25.9325 22.536C24.9618 22.536 24.1558 22.3063 23.5145 21.847C22.8732 21.3963 22.5092 20.781 22.4225 20.001H23.8915C24.0042 20.3737 24.2425 20.6727 24.6065 20.898C24.9792 21.132 25.4212 21.249 25.9325 21.249C26.5305 21.249 27.0115 21.067 27.3755 20.703C27.7482 20.339 27.9345 19.8103 27.9345 19.117V17.921C27.6832 18.259 27.3408 18.545 26.9075 18.779C26.4828 19.0043 25.9975 19.117 25.4515 19.117C24.8275 19.117 24.2555 18.961 23.7355 18.649C23.2242 18.3283 22.8168 17.8863 22.5135 17.323C22.2188 16.751 22.0715 16.1053 22.0715 15.386C22.0715 14.6667 22.2188 14.0297 22.5135 13.475C22.8168 12.9203 23.2242 12.4913 23.7355 12.188C24.2555 11.876 24.8275 11.72 25.4515 11.72ZM27.9345 15.412C27.9345 14.918 27.8305 14.489 27.6225 14.125C27.4232 13.761 27.1588 13.4837 26.8295 13.293C26.5002 13.1023 26.1448 13.007 25.7635 13.007C25.3822 13.007 25.0268 13.1023 24.6975 13.293C24.3682 13.475 24.0995 13.748 23.8915 14.112C23.6922 14.4673 23.5925 14.892 23.5925 15.386C23.5925 15.88 23.6922 16.3133 23.8915 16.686C24.0995 17.0587 24.3682 17.3447 24.6975 17.544C25.0355 17.7347 25.3908 17.83 25.7635 17.83C26.1448 17.83 26.5002 17.7347 26.8295 17.544C27.1588 17.3533 27.4232 17.076 27.6225 16.712C27.8305 16.3393 27.9345 15.906 27.9345 15.412ZM37.5297 11.837V19H36.0477V18.155C35.8137 18.4497 35.506 18.6837 35.1247 18.857C34.752 19.0217 34.3534 19.104 33.9287 19.104C33.3654 19.104 32.8584 18.987 32.4077 18.753C31.9657 18.519 31.6147 18.1723 31.3547 17.713C31.1034 17.2537 30.9777 16.699 30.9777 16.049V11.837H32.4467V15.828C32.4467 16.4693 32.607 16.9633 32.9277 17.31C33.2484 17.648 33.686 17.817 34.2407 17.817C34.7954 17.817 35.233 17.648 35.5537 17.31C35.883 16.9633 36.0477 16.4693 36.0477 15.828V11.837H37.5297ZM38.6578 15.386C38.6578 14.6667 38.8051 14.0297 39.0998 13.475C39.4031 12.9203 39.8104 12.4913 40.3218 12.188C40.8418 11.876 41.4138 11.72 42.0378 11.72C42.6011 11.72 43.0908 11.8327 43.5068 12.058C43.9314 12.2747 44.2694 12.5477 44.5208 12.877V11.837H46.0158V19H44.5208V17.934C44.2694 18.272 43.9271 18.5537 43.4938 18.779C43.0604 19.0043 42.5664 19.117 42.0118 19.117C41.3964 19.117 40.8331 18.961 40.3218 18.649C39.8104 18.3283 39.4031 17.8863 39.0998 17.323C38.8051 16.751 38.6578 16.1053 38.6578 15.386ZM44.5208 15.412C44.5208 14.918 44.4168 14.489 44.2088 14.125C44.0094 13.761 43.7451 13.4837 43.4158 13.293C43.0864 13.1023 42.7311 13.007 42.3498 13.007C41.9684 13.007 41.6131 13.1023 41.2838 13.293C40.9544 13.475 40.6858 13.748 40.4778 14.112C40.2784 14.4673 40.1788 14.892 40.1788 15.386C40.1788 15.88 40.2784 16.3133 40.4778 16.686C40.6858 17.0587 40.9544 17.3447 41.2838 17.544C41.6218 17.7347 41.9771 17.83 42.3498 17.83C42.7311 17.83 43.0864 17.7347 43.4158 17.544C43.7451 17.3533 44.0094 17.076 44.2088 16.712C44.4168 16.3393 44.5208 15.906 44.5208 15.412ZM49.111 12.877C49.3276 12.513 49.6136 12.2313 49.969 12.032C50.333 11.824 50.762 11.72 51.256 11.72V13.254H50.879C50.2983 13.254 49.8563 13.4013 49.553 13.696C49.2583 13.9907 49.111 14.502 49.111 15.23V19H47.629V11.837H49.111V12.877ZM51.7909 15.386C51.7909 14.6667 51.9382 14.0297 52.2329 13.475C52.5362 12.9203 52.9436 12.4913 53.4549 12.188C53.9749 11.876 54.5512 11.72 55.1839 11.72C55.6519 11.72 56.1112 11.824 56.5619 12.032C57.0212 12.2313 57.3852 12.5 57.6539 12.838V9.38H59.1489V19H57.6539V17.921C57.4112 18.2677 57.0732 18.5537 56.6399 18.779C56.2152 19.0043 55.7256 19.117 55.1709 19.117C54.5469 19.117 53.9749 18.961 53.4549 18.649C52.9436 18.3283 52.5362 17.8863 52.2329 17.323C51.9382 16.751 51.7909 16.1053 51.7909 15.386ZM57.6539 15.412C57.6539 14.918 57.5499 14.489 57.3419 14.125C57.1426 13.761 56.8782 13.4837 56.5489 13.293C56.2196 13.1023 55.8642 13.007 55.4829 13.007C55.1016 13.007 54.7462 13.1023 54.4169 13.293C54.0876 13.475 53.8189 13.748 53.6109 14.112C53.4116 14.4673 53.3119 14.892 53.3119 15.386C53.3119 15.88 53.4116 16.3133 53.6109 16.686C53.8189 17.0587 54.0876 17.3447 54.4169 17.544C54.7549 17.7347 55.1102 17.83 55.4829 17.83C55.8642 17.83 56.2196 17.7347 56.5489 17.544C56.8782 17.3533 57.1426 17.076 57.3419 16.712C57.5499 16.3393 57.6539 15.906 57.6539 15.412ZM60.2681 15.386C60.2681 14.6667 60.4154 14.0297 60.7101 13.475C61.0134 12.9203 61.4208 12.4913 61.9321 12.188C62.4521 11.876 63.0241 11.72 63.6481 11.72C64.2114 11.72 64.7011 11.8327 65.1171 12.058C65.5418 12.2747 65.8798 12.5477 66.1311 12.877V11.837H67.6261V19H66.1311V17.934C65.8798 18.272 65.5374 18.5537 65.1041 18.779C64.6708 19.0043 64.1768 19.117 63.6221 19.117C63.0068 19.117 62.4434 18.961 61.9321 18.649C61.4208 18.3283 61.0134 17.8863 60.7101 17.323C60.4154 16.751 60.2681 16.1053 60.2681 15.386ZM66.1311 15.412C66.1311 14.918 66.0271 14.489 65.8191 14.125C65.6198 13.761 65.3554 13.4837 65.0261 13.293C64.6968 13.1023 64.3414 13.007 63.9601 13.007C63.5788 13.007 63.2234 13.1023 62.8941 13.293C62.5648 13.475 62.2961 13.748 62.0881 14.112C61.8888 14.4673 61.7891 14.892 61.7891 15.386C61.7891 15.88 61.8888 16.3133 62.0881 16.686C62.2961 17.0587 62.5648 17.3447 62.8941 17.544C63.2321 17.7347 63.5874 17.83 63.9601 17.83C64.3414 17.83 64.6968 17.7347 65.0261 17.544C65.3554 17.3533 65.6198 17.076 65.8191 16.712C66.0271 16.3393 66.1311 15.906 66.1311 15.412ZM72.8533 11.72C73.4167 11.72 73.9193 11.837 74.3613 12.071C74.812 12.305 75.163 12.6517 75.4143 13.111C75.6657 13.5703 75.7913 14.125 75.7913 14.775V19H74.3223V14.996C74.3223 14.3547 74.162 13.865 73.8413 13.527C73.5207 13.1803 73.083 13.007 72.5283 13.007C71.9737 13.007 71.5317 13.1803 71.2023 13.527C70.8817 13.865 70.7213 14.3547 70.7213 14.996V19H69.2393V11.837H70.7213V12.656C70.964 12.3613 71.2717 12.1317 71.6443 11.967C72.0257 11.8023 72.4287 11.72 72.8533 11.72ZM76.8544 15.386C76.8544 14.6667 77.0017 14.0297 77.2964 13.475C77.5997 12.9203 78.007 12.4913 78.5184 12.188C79.0384 11.876 79.6147 11.72 80.2474 11.72C80.7154 11.72 81.1747 11.824 81.6254 12.032C82.0847 12.2313 82.4487 12.5 82.7174 12.838V9.38H84.2124V19H82.7174V17.921C82.4747 18.2677 82.1367 18.5537 81.7034 18.779C81.2787 19.0043 80.789 19.117 80.2344 19.117C79.6104 19.117 79.0384 18.961 78.5184 18.649C78.007 18.3283 77.5997 17.8863 77.2964 17.323C77.0017 16.751 76.8544 16.1053 76.8544 15.386ZM82.7174 15.412C82.7174 14.918 82.6134 14.489 82.4054 14.125C82.206 13.761 81.9417 13.4837 81.6124 13.293C81.283 13.1023 80.9277 13.007 80.5464 13.007C80.165 13.007 79.8097 13.1023 79.4804 13.293C79.151 13.475 78.8824 13.748 78.6744 14.112C78.475 14.4673 78.3754 14.892 78.3754 15.386C78.3754 15.88 78.475 16.3133 78.6744 16.686C78.8824 17.0587 79.151 17.3447 79.4804 17.544C79.8184 17.7347 80.1737 17.83 80.5464 17.83C80.9277 17.83 81.283 17.7347 81.6124 17.544C81.9417 17.3533 82.206 17.076 82.4054 16.712C82.6134 16.3393 82.7174 15.906 82.7174 15.412ZM88.9326 19.117C88.2566 19.117 87.6456 18.9653 87.0996 18.662C86.5536 18.35 86.1246 17.9167 85.8126 17.362C85.5006 16.7987 85.3446 16.1487 85.3446 15.412C85.3446 14.684 85.5049 14.0383 85.8256 13.475C86.1463 12.9117 86.5839 12.4783 87.1386 12.175C87.6933 11.8717 88.3129 11.72 88.9976 11.72C89.6823 11.72 90.3019 11.8717 90.8566 12.175C91.4113 12.4783 91.8489 12.9117 92.1696 13.475C92.4903 14.0383 92.6506 14.684 92.6506 15.412C92.6506 16.14 92.4859 16.7857 92.1566 17.349C91.8273 17.9123 91.3766 18.35 90.8046 18.662C90.2413 18.9653 89.6173 19.117 88.9326 19.117ZM88.9326 17.83C89.3139 17.83 89.6693 17.739 89.9986 17.557C90.3366 17.375 90.6096 17.102 90.8176 16.738C91.0256 16.374 91.1296 15.932 91.1296 15.412C91.1296 14.892 91.0299 14.4543 90.8306 14.099C90.6313 13.735 90.3669 13.462 90.0376 13.28C89.7083 13.098 89.3529 13.007 88.9716 13.007C88.5903 13.007 88.2349 13.098 87.9056 13.28C87.5849 13.462 87.3293 13.735 87.1386 14.099C86.9479 14.4543 86.8526 14.892 86.8526 15.412C86.8526 16.1833 87.0476 16.7813 87.4376 17.206C87.8363 17.622 88.3346 17.83 88.9326 17.83Z" fill="#C6B200"/>
</svg>
