<svg width="93" height="64" viewBox="0 0 93 64" fill="none" xmlns="http://www.w3.org/2000/svg">
<rect x="0.5" y="0.5" width="92" height="63" rx="3.5" fill="white" stroke="#F3F3F3"/>
<g clip-path="url(#clip0_633_500)">
<path d="M19.6136 51.7544H22.462V12.1379H19.6136V51.7544Z" fill="#1A1918"/>
<path d="M23.3606 51.7544H24.2438V12.1379H23.3606V51.7544Z" fill="#1A1918"/>
<path d="M25.0125 51.7544H26.5925V12.1379H25.0125V51.7544Z" fill="#1A1918"/>
<path d="M28.1176 51.7544H28.9993V12.1379H28.1176V51.7544Z" fill="#1A1918"/>
<path d="M29.3844 51.7544H30.0644V12.1379H29.3844V51.7544Z" fill="#1A1918"/>
<path d="M17.4468 51.7544H18.33V12.1379H17.4468V51.7544Z" fill="#1A1918"/>
<path d="M15.5 51.7544H17.0801V12.1379H15.5V51.7544Z" fill="#1A1918"/>
<path d="M34.7832 51.7544H37.6316V12.1379H34.7832V51.7544Z" fill="#1A1918"/>
<path d="M38.5301 51.7544H39.4118V12.1379H38.5301V51.7544Z" fill="#1A1918"/>
<path d="M40.182 51.7544H41.7621V12.1379H40.182V51.7544Z" fill="#1A1918"/>
<path d="M43.2856 51.7544H44.1688V12.1379H43.2856V51.7544Z" fill="#1A1918"/>
<path d="M44.5524 51.7544H45.2339V12.1379H44.5524V51.7544Z" fill="#1A1918"/>
<path d="M32.6163 51.7544H33.4996V12.1379H32.6163V51.7544Z" fill="#1A1918"/>
<path d="M30.6695 51.7544H32.2496V12.1379H30.6695V51.7544Z" fill="#1A1918"/>
<path d="M46.3525 51.7544H47.9326V12.1379H46.3525V51.7544Z" fill="#1A1918"/>
<path d="M49.4561 51.7544H50.3393V12.1379H49.4561V51.7544Z" fill="#1A1918"/>
<path d="M50.7244 51.7544H51.4044V12.1379H50.7244V51.7544Z" fill="#1A1918"/>
<path d="M53.9564 51.7544H54.8396V12.1379H53.9564V51.7544Z" fill="#1A1918"/>
<path d="M52.0096 51.7544H53.5896V12.1379H52.0096V51.7544Z" fill="#1A1918"/>
<path d="M56.0132 51.7544H56.8964V12.1379H56.0132V51.7544Z" fill="#1A1918"/>
<path d="M57.28 51.7544H57.96V12.1379H57.28V51.7544Z" fill="#1A1918"/>
<path d="M60.5119 51.7544H61.3952V12.1379H60.5119V51.7544Z" fill="#1A1918"/>
<path d="M58.5651 51.7544H60.1452V12.1379H58.5651V51.7544Z" fill="#1A1918"/>
<path d="M62.1653 51.7544H65.0137V12.1379H62.1653V51.7544Z" fill="#1A1918"/>
<path d="M65.9123 51.7544H66.7955V12.1379H65.9123V51.7544Z" fill="#1A1918"/>
<path d="M67.5641 51.7544H69.1442V12.1379H67.5641V51.7544Z" fill="#1A1918"/>
<path d="M70.6677 51.7544H71.551V12.1379H70.6677V51.7544Z" fill="#1A1918"/>
<path d="M71.9345 51.7544H72.6161V12.1379H71.9345V51.7544Z" fill="#1A1918"/>
<path d="M73.7346 51.7544H76.583V12.1379H73.7346V51.7544Z" fill="#1A1918"/>
<path d="M18.7228 51.8184H73.3312V35.906H18.7228V51.8184Z" fill="#F3F6F9"/>
<path d="M19.7524 51.2078V36.8107H24.8283C25.6791 36.7765 26.5273 36.9251 27.3154 37.2464C27.9327 37.5319 28.4448 38.0031 28.7796 38.5936C29.1268 39.167 29.3108 39.8238 29.312 40.4935C29.319 41.7865 28.5874 42.9708 27.4259 43.5468C28.1841 43.7587 28.8486 44.2192 29.312 44.8539C29.7602 45.491 29.9919 46.2545 29.9732 47.0324C29.9783 47.6819 29.8407 48.3247 29.5701 48.9156C29.3485 49.4332 29.0088 49.8922 28.5781 50.2561C28.1382 50.5904 27.6347 50.8321 27.0982 50.9665C26.3834 51.1414 25.6489 51.2225 24.9131 51.2078L19.7524 51.2078ZM21.5469 42.8631H24.4723C25.0462 42.8872 25.6207 42.8307 26.1789 42.6954C26.5947 42.5797 26.9581 42.3254 27.2086 41.975C27.4507 41.6001 27.5717 41.1603 27.5552 40.7147C27.5653 40.272 27.453 39.835 27.2307 39.4516C27.028 39.0953 26.699 38.8274 26.3082 38.7006C25.6359 38.5361 24.9435 38.4684 24.2519 38.4994H21.5469V42.8631ZM21.5469 49.5184H24.9162C25.3247 49.5297 25.7335 49.5062 26.138 49.4482C26.5053 49.3879 26.8565 49.2545 27.1709 49.056C27.4649 48.8517 27.7004 48.5746 27.8541 48.252C28.039 47.8735 28.1307 47.4566 28.1216 47.0357C28.1342 46.5392 27.9982 46.0503 27.7311 45.6311C27.4787 45.2373 27.0987 44.9416 26.6542 44.7931C26.0123 44.6078 25.3447 44.5263 24.6769 44.5519H21.5469V49.5184V49.5184Z" fill="#1A1918"/>
<path d="M31.5982 45.99C31.4674 44.4124 32.0184 42.8542 33.1127 41.707C33.9508 40.9374 35.0564 40.5228 36.1956 40.5509C37.4508 40.5125 38.6591 41.0274 39.4984 41.9583C40.4046 43.044 40.8628 44.4325 40.7799 45.8423C40.8293 46.9246 40.6358 48.0042 40.2135 49.0026C39.8539 49.7501 39.2782 50.3733 38.5603 50.7921C37.8451 51.2153 37.0274 51.4355 36.1956 51.4289C34.9328 51.476 33.714 50.9631 32.8672 50.0282C31.9516 48.8881 31.4987 47.4469 31.5982 45.9899V45.99ZM33.2986 45.9933C33.2183 47.0554 33.5086 48.1125 34.1204 48.9858C34.6214 49.6154 35.3837 49.9821 36.1899 49.9815C36.9961 49.9808 37.7578 49.6129 38.2577 48.9825C38.8723 48.0903 39.1623 47.0155 39.0796 45.9365C39.1536 44.8959 38.8607 43.8623 38.2513 43.0141C37.7514 42.3864 36.9918 42.0199 36.1876 42.0185C35.3835 42.0171 34.6225 42.3809 34.1204 43.0069C33.509 43.8781 33.2186 44.9332 33.2985 45.9933H33.2986Z" fill="#1A1918"/>
<path d="M42.6911 51.2077H44.3537V36.8107H42.6911V51.2077Z" fill="#1A1918"/>
<path d="M53.6146 47.8297L55.3337 48.071C55.1239 49.0395 54.5966 49.9108 53.8349 50.5476C53.0338 51.1581 52.0435 51.47 51.0358 51.429C49.7484 51.4887 48.5014 50.9726 47.6351 50.0216C46.7374 48.9088 46.2893 47.5019 46.3787 46.0769C46.286 44.6094 46.7376 43.1591 47.6477 42.0018C48.469 41.0452 49.6815 40.5115 50.9442 40.5509C52.1728 40.5155 53.351 41.0382 54.147 41.9717C55.0381 43.1093 55.4804 44.5328 55.3903 45.9732C55.3903 46.0768 55.3871 46.2345 55.3809 46.4423H48.0791C48.0723 47.3966 48.3946 48.3242 48.9921 49.0699C49.5035 49.6615 50.2525 49.9955 51.0358 49.9814C51.5985 49.9966 52.1487 49.8151 52.5912 49.4683C53.0834 49.0316 53.4388 48.4627 53.6146 47.8297V47.8297ZM48.1733 44.9943H53.6335C53.6182 44.2903 53.4007 43.6054 53.0068 43.0208C52.5317 42.3656 51.7647 41.9837 50.9537 41.9984C50.2261 41.9841 49.5271 42.2805 49.0329 42.813C48.493 43.4137 48.1879 44.188 48.1733 44.9943Z" fill="#1A1918"/>
<path d="M61.0426 49.6294L61.2693 51.1911C60.8595 51.2887 60.4404 51.3416 60.0191 51.3488C59.533 51.3759 59.0486 51.2703 58.6182 51.0434C58.3042 50.8594 58.0588 50.5783 57.9194 50.2428C57.7435 49.5603 57.6755 48.8546 57.7178 48.1512V42.1394H56.4897V40.7721H57.7178V38.1913L59.3799 37.1294V40.7721H61.0425V42.1394H59.3799V48.252C59.3594 48.5797 59.3893 48.9085 59.4684 49.2271C59.5239 49.3691 59.623 49.49 59.7516 49.5725C59.9251 49.6666 60.1214 49.7106 60.3186 49.6996C60.5613 49.6941 60.8033 49.6706 61.0426 49.6294" fill="#1A1918"/>
<path d="M62.0598 45.99C61.9291 44.4124 62.4801 42.8543 63.5743 41.707C64.4123 40.9374 65.5179 40.5228 66.6571 40.5509C67.9124 40.5125 69.1209 41.0274 69.9605 41.9583C70.8667 43.044 71.3248 44.4325 71.242 45.8423C71.2915 46.9247 71.0978 48.0044 70.6751 49.0026C70.3157 49.7502 69.7399 50.3735 69.0218 50.7921C68.3067 51.2154 67.4889 51.4356 66.6572 51.4289C65.3944 51.4759 64.1756 50.963 63.3288 50.0282C62.4132 48.8881 61.9603 47.4469 62.0598 45.9899L62.0598 45.99ZM63.7601 45.9933C63.6801 47.0554 63.9704 48.1124 64.582 48.9858C65.0831 49.6154 65.8454 49.9821 66.6517 49.9815C67.458 49.9808 68.2197 49.6129 68.7198 48.9825C69.3341 48.0902 69.6241 47.0155 69.5416 45.9365C69.6154 44.896 69.3225 43.8624 68.7134 43.0141C68.2134 42.3864 67.4536 42.0199 66.6494 42.0185C65.8452 42.0171 65.0842 42.3809 64.5819 43.0069C63.9708 43.8782 63.6804 44.9332 63.76 45.9933H63.7601Z" fill="#1A1918"/>
</g>
<defs>
<clipPath id="clip0_633_500">
<rect width="61.083" height="39.6805" fill="white" transform="translate(15.5 12.1379)"/>
</clipPath>
</defs>
</svg>
