<svg width="119" height="82" viewBox="0 0 119 82" fill="none" xmlns="http://www.w3.org/2000/svg">
<rect x="0.5" y="0.5" width="118" height="81" rx="3.5" fill="white" stroke="#F3F3F3"/>
<path d="M44.817 40.4088C44.817 33.5729 36.1281 28 25.409 28C14.691 28 6.00218 33.5729 6.00218 40.4088C6.00218 40.5861 6 41.074 6 41.1359C6 48.3882 13.5946 54.2622 25.4069 54.2622C37.2923 54.2622 44.817 48.3903 44.817 41.137C44.817 40.8839 44.817 40.7377 44.817 40.4088Z" fill="#0A0080"/>
<path d="M44.0749 40.4039C44.0749 46.8491 35.7203 52.074 25.414 52.074C15.1077 52.074 6.75303 46.8491 6.75303 40.4039C6.75303 33.9577 15.1077 28.7328 25.414 28.7328C35.7203 28.7328 44.0749 33.9577 44.0749 40.4039Z" fill="#00BCFF"/>
<path d="M19.2158 36.7216C19.206 36.7397 19.0203 36.9287 19.1404 37.0793C19.4353 37.4476 20.345 37.658 21.2646 37.4562C21.8117 37.3366 22.514 36.791 23.1944 36.2624C23.9304 35.6901 24.6622 35.1178 25.3972 34.8893C26.1747 34.647 26.6738 34.7516 27.0037 34.8488C27.3651 34.9534 27.79 35.1862 28.4682 35.6837C29.7449 36.6223 34.8789 41.0042 35.7657 41.7613C36.481 41.4452 39.6558 40.1095 43.9707 39.1795C43.5961 36.9308 42.196 34.8722 40.0741 33.1874C37.1166 34.4024 33.5017 35.0367 29.9676 33.3486C29.9491 33.3411 28.0357 32.456 26.1496 32.4997C23.344 32.5627 22.1296 33.7501 20.8441 35.0057L19.2158 36.7216Z" fill="white"/>
<path d="M35.5581 42.2388C35.498 42.1865 29.5209 37.0731 28.1677 36.079C27.3836 35.5046 26.9478 35.3572 26.4902 35.3006C26.2522 35.2697 25.9223 35.3135 25.693 35.3754C25.0629 35.543 24.2394 36.0812 23.5077 36.6481C22.7509 37.2375 22.0366 37.7927 21.3748 37.9379C20.5284 38.1237 19.4953 37.9038 19.0235 37.5931C18.8324 37.4671 18.698 37.3219 18.6336 37.1745C18.4588 36.7795 18.7799 36.4634 18.8334 36.4111L20.4825 34.6664C20.6747 34.4796 20.867 34.2927 21.0646 34.108C20.5328 34.1763 20.0402 34.3087 19.5619 34.439C18.9645 34.6034 18.39 34.7593 17.8079 34.7593C17.5655 34.7593 16.2648 34.5511 16.018 34.4849C14.5251 34.0856 13.2145 33.6969 11.2585 32.8032C8.91378 34.5105 7.34551 36.6438 6.89228 38.9939C7.22974 39.0815 7.77252 39.2395 8.00077 39.2886C13.3063 40.4418 14.9586 41.6302 15.259 41.879C15.5833 41.5255 16.0518 41.3024 16.575 41.3024C17.1614 41.3034 17.6911 41.5907 18.0122 42.037C18.3158 41.8021 18.7352 41.6024 19.2768 41.6024C19.5226 41.6024 19.7781 41.6473 20.0359 41.7327C20.6343 41.9334 20.9434 42.3231 21.1039 42.6755C21.3049 42.5869 21.5517 42.5217 21.8422 42.5228C22.1284 42.5228 22.4254 42.5858 22.7246 42.7129C23.7032 43.1229 23.855 44.0625 23.7665 44.7704C23.8364 44.7629 23.9063 44.7597 23.9773 44.7597C25.1371 44.7608 26.0807 45.6822 26.0807 46.8172C26.0807 47.1685 25.989 47.4984 25.8284 47.7878C26.144 47.9618 26.9489 48.3537 27.6555 48.2661C28.2202 48.1967 28.4342 48.0077 28.5107 47.902C28.5631 47.8294 28.6188 47.744 28.5675 47.6832L27.0702 46.057C27.0702 46.057 26.8233 45.8285 26.9053 45.7409C26.9893 45.6502 27.1422 45.7805 27.2493 45.868C28.0116 46.4905 28.942 47.429 28.942 47.429C28.9573 47.4397 29.0196 47.5582 29.3636 47.6191C29.6596 47.6703 30.1838 47.6404 30.5464 47.349C30.6381 47.2753 30.7298 47.1835 30.8063 47.0884C30.8008 47.0927 30.7954 47.1002 30.7899 47.1023C31.1721 46.6229 30.7473 46.1381 30.7473 46.1381L28.9988 44.2194C28.9988 44.2194 28.7498 43.9931 28.8339 43.9023C28.9104 43.8233 29.0709 43.9429 29.1812 44.0315C29.7338 44.4842 30.5158 45.2509 31.2661 45.9684C31.4113 46.0741 32.0709 46.4723 32.9425 45.9118C33.4721 45.5722 33.5781 45.1558 33.5628 44.8408C33.5267 44.4244 33.1936 44.1276 33.1936 44.1276L30.8063 41.7807C30.8063 41.7807 30.554 41.5704 30.6436 41.4636C30.7167 41.3739 30.8805 41.5031 30.9876 41.5907C31.7477 42.2132 33.8074 44.0593 33.8074 44.0593C33.8369 44.0796 34.5479 44.575 35.427 44.0272C35.7415 43.8308 35.9425 43.535 35.96 43.1901C35.9895 42.5933 35.5581 42.2388 35.5581 42.2388Z" fill="white"/>
<path d="M23.9804 45.2137C23.6101 45.2094 23.205 45.424 23.1526 45.3931C23.1231 45.3739 23.1744 45.2286 23.2093 45.1443C23.2454 45.061 23.7325 43.627 22.5442 43.1284C21.6345 42.7472 21.0786 43.1765 20.8875 43.3708C20.8373 43.422 20.8154 43.4178 20.8089 43.3526C20.7914 43.0942 20.6724 42.3959 19.8882 42.161C18.7666 41.8258 18.0447 42.5913 17.8613 42.8679C17.7794 42.2422 17.2399 41.7574 16.5769 41.7564C15.8572 41.7564 15.274 42.3255 15.274 43.0291C15.273 43.7317 15.8561 44.3019 16.5758 44.3019C16.9253 44.3029 17.242 44.1663 17.4758 43.9474C17.4834 43.9538 17.4867 43.9655 17.4823 43.9901C17.4277 44.304 17.3272 45.4486 18.5526 45.9152C19.044 46.101 19.4623 45.9622 19.8085 45.7251C19.9112 45.6536 19.9286 45.6835 19.9133 45.7785C19.8697 46.0732 19.9254 46.7032 20.8296 47.0609C21.5166 47.3342 21.9239 47.0545 22.1904 46.8142C22.3062 46.7107 22.3378 46.7267 22.3433 46.8868C22.3761 47.7389 23.1001 48.4148 23.9782 48.4158C24.8836 48.4158 25.6175 47.7005 25.6175 46.8164C25.6185 45.9312 24.8857 45.2233 23.9804 45.2137Z" fill="white"/>
<path d="M23.9762 48.2977C23.156 48.2966 22.4887 47.6731 22.4581 46.8799C22.457 46.8116 22.4494 46.6301 22.2932 46.6301C22.2277 46.6301 22.172 46.6685 22.1076 46.7251C21.9274 46.8885 21.698 47.055 21.3627 47.055C21.2098 47.055 21.0449 47.0198 20.8713 46.9504C20.0041 46.6077 19.9921 46.0258 20.0271 45.792C20.0369 45.729 20.0402 45.6639 19.9965 45.6137L19.943 45.5678H19.8895C19.8458 45.5678 19.7999 45.5849 19.7388 45.6276C19.4876 45.7995 19.2473 45.8828 19.0027 45.8828C18.8683 45.8828 18.7307 45.8561 18.592 45.8038C17.4519 45.3703 17.5425 44.3176 17.5982 44.0016C17.6059 43.9365 17.5895 43.8874 17.548 43.8543L17.4672 43.7892L17.3918 43.8596C17.1701 44.0689 16.8785 44.1842 16.5738 44.1842C15.9196 44.1831 15.3878 43.6643 15.3889 43.0258C15.3889 42.3863 15.9218 41.8685 16.5749 41.8685C17.1657 41.8685 17.6681 42.3031 17.7435 42.8796L17.7839 43.1903L17.9586 42.9276C17.9783 42.8967 18.4566 42.1888 19.3369 42.1899C19.504 42.1899 19.6765 42.2155 19.8513 42.2689C20.5524 42.4782 20.6714 43.0995 20.69 43.3589C20.702 43.5095 20.8123 43.5169 20.8342 43.5169C20.8942 43.5169 20.939 43.4796 20.9707 43.4465C21.1028 43.312 21.3911 43.0878 21.8422 43.0878C22.0486 43.0878 22.2692 43.1358 22.4953 43.2308C23.6103 43.6984 23.1047 45.0831 23.0992 45.0981C23.0031 45.3276 22.9987 45.429 23.0894 45.4877L23.1331 45.508H23.1658C23.2161 45.508 23.2783 45.4867 23.381 45.4525C23.5328 45.4013 23.7621 45.3244 23.9762 45.3244C24.8149 45.334 25.4986 46.0013 25.4986 46.8127C25.4975 47.6315 24.8149 48.2977 23.9762 48.2977ZM35.7885 41.623C33.9472 40.0525 29.6923 36.4365 28.5401 35.5899C27.8816 35.1063 27.4327 34.8501 27.0384 34.7358C26.8615 34.6835 26.6158 34.6237 26.3002 34.6237C26.0075 34.6237 25.693 34.675 25.3642 34.7775C24.6194 35.0081 23.8779 35.5846 23.1593 36.1419L23.1221 36.1707C22.4538 36.6906 21.7635 37.2276 21.2404 37.3419C21.0122 37.3921 20.7774 37.4177 20.5437 37.4177C19.9572 37.4177 19.4319 37.2522 19.2342 37.0066C19.2014 36.965 19.2222 36.8999 19.2986 36.8049L19.3096 36.7921L20.9292 35.086C22.1971 33.8455 23.3952 32.6754 26.1538 32.6134C26.1986 32.6124 26.2456 32.6113 26.2914 32.6113C28.0082 32.6124 29.724 33.364 29.9162 33.4504C31.5259 34.218 33.1881 34.6077 34.858 34.6088C36.5988 34.6099 38.3953 34.1882 40.2836 33.3383C40.0728 33.1654 39.8533 32.9967 39.6272 32.8312C37.9683 33.5337 36.388 33.8892 34.8634 33.8892C33.305 33.8871 31.7498 33.522 30.2383 32.8013C30.1586 32.764 28.2638 31.8907 26.2914 31.8896C26.2401 31.8896 26.1877 31.8907 26.1364 31.8917C23.82 31.944 22.5149 32.749 21.6369 33.4536C20.7839 33.4739 20.0467 33.6746 19.3926 33.854C18.8072 34.012 18.3026 34.1497 17.8101 34.1497C17.607 34.1497 17.2422 34.1316 17.2094 34.1305C16.6437 34.1134 13.79 33.4302 11.5206 32.5899C11.2891 32.7501 11.0663 32.9156 10.849 33.0842C13.2199 34.0344 16.1053 34.7689 17.0161 34.8266C17.2695 34.8437 17.5392 34.8714 17.809 34.8714C18.4118 34.8714 19.0125 34.707 19.5946 34.5479C19.9375 34.4529 20.3165 34.3504 20.7162 34.2757C20.6092 34.3782 20.5032 34.4817 20.3962 34.5853L18.7515 36.3255C18.6215 36.4536 18.3398 36.7953 18.5254 37.2148C18.5997 37.3846 18.7493 37.5469 18.959 37.6846C19.35 37.9429 20.0522 38.117 20.7053 38.118C20.9521 38.118 21.1869 38.0935 21.4021 38.0465C22.0912 37.8949 22.8152 37.3312 23.5819 36.7355C24.1924 36.2615 25.0595 35.6593 25.7246 35.4821C25.9103 35.433 26.1385 35.402 26.3209 35.402C26.3755 35.4031 26.428 35.4042 26.476 35.4116C26.915 35.465 27.3388 35.6113 28.0967 36.1675C29.4477 37.1593 35.4248 42.271 35.4838 42.3223C35.487 42.3255 35.8682 42.6458 35.842 43.1806C35.8278 43.4785 35.6585 43.7433 35.3647 43.9269C35.1092 44.0849 34.846 44.165 34.5806 44.165C34.1809 44.165 33.9057 43.9814 33.8871 43.9696C33.8653 43.9515 31.8175 42.1162 31.064 41.4992C30.9438 41.402 30.827 41.3145 30.709 41.3145C30.6468 41.3145 30.5911 41.3401 30.5529 41.3871C30.4349 41.5301 30.5671 41.7276 30.7243 41.8579L33.1161 44.2077C33.1193 44.2109 33.4142 44.481 33.4459 44.8418C33.4655 45.2315 33.2744 45.5571 32.878 45.8112C32.5962 45.9927 32.3101 46.0856 32.0305 46.0856C31.6636 46.0856 31.4047 45.9212 31.3479 45.8828L31.005 45.5518C30.3781 44.9486 29.7305 44.3251 29.2565 43.9386C29.1408 43.8447 29.0174 43.7582 28.8994 43.7582C28.8415 43.7582 28.7891 43.7785 28.7487 43.8201C28.6952 43.8789 28.657 43.9846 28.7924 44.1596C28.847 44.2312 28.9125 44.291 28.9125 44.291L30.6588 46.2084C30.673 46.2255 31.0181 46.6269 30.6981 47.0262L30.6359 47.102C30.5845 47.1586 30.5278 47.2109 30.4742 47.2557C30.1761 47.4949 29.7786 47.5205 29.6213 47.5205C29.5372 47.5205 29.4553 47.513 29.3854 47.5002C29.2128 47.4703 29.0971 47.4233 29.0403 47.3582L29.0195 47.3369C28.9245 47.2408 28.0443 46.3621 27.3158 45.7685C27.2208 45.6895 27.1007 45.5902 26.9773 45.5902C26.9161 45.5902 26.8615 45.6137 26.8189 45.6596C26.6748 45.8134 26.891 46.044 26.9828 46.1294L28.4724 47.734C28.4702 47.7479 28.4516 47.781 28.4156 47.8322C28.3621 47.9038 28.1819 48.081 27.6413 48.1472C27.5769 48.1557 27.5102 48.1589 27.4436 48.1589C26.8866 48.1589 26.2925 47.8941 25.9867 47.7361C26.1265 47.4479 26.1986 47.1308 26.1986 46.8137C26.1986 45.6148 25.2037 44.6401 23.9784 44.6401C23.9521 44.6401 23.9248 44.6401 23.8986 44.6411C23.9379 44.0945 23.8593 43.0589 22.7716 42.6031C22.4581 42.4707 22.1458 42.4034 21.8433 42.4034C21.6052 42.4034 21.3769 42.4429 21.1629 42.523C20.9368 42.0949 20.5633 41.7831 20.0751 41.6209C19.8054 41.5301 19.5367 41.4831 19.2779 41.4831C18.8247 41.4831 18.4086 41.6134 18.0362 41.8718C17.6801 41.4394 17.1417 41.1821 16.5749 41.1821C16.0791 41.1821 15.6018 41.3764 15.2491 41.7191C14.7849 41.3732 12.9469 40.2308 8.02585 39.1387C7.78777 39.0864 7.24171 38.9326 6.90643 38.8376C6.85073 39.097 6.80814 39.3607 6.77975 39.6266C6.77975 39.6266 7.68729 39.839 7.8664 39.8785C12.8934 40.9696 14.5534 42.1045 14.8352 42.3191C14.7391 42.5422 14.6899 42.7824 14.6899 43.0258C14.6888 44.0401 15.5341 44.8675 16.5727 44.8685C16.6896 44.8685 16.8053 44.8579 16.9178 44.8376C17.0751 45.5849 17.5753 46.1518 18.3387 46.4422C18.5626 46.5255 18.7886 46.5692 19.0103 46.5692C19.1534 46.5692 19.2986 46.5522 19.4395 46.5169C19.5804 46.8671 19.8982 47.3038 20.6081 47.5856C20.8571 47.6838 21.1061 47.7351 21.3474 47.7351C21.5451 47.7351 21.7384 47.7009 21.923 47.6347C22.2626 48.445 23.073 48.981 23.9751 48.981C24.5736 48.982 25.148 48.744 25.5674 48.3223C25.9256 48.5176 26.6824 48.8699 27.4469 48.871C27.5463 48.871 27.6391 48.8635 27.7319 48.8529C28.4921 48.76 28.8448 48.4685 29.0075 48.2433C29.037 48.2038 29.0632 48.1621 29.0862 48.1183C29.2653 48.1696 29.4618 48.2102 29.6879 48.2112C30.1029 48.2112 30.5015 48.0724 30.9034 47.7852C31.2988 47.5077 31.5795 47.1073 31.6199 46.7667C31.621 46.7614 31.622 46.7571 31.6231 46.7518C31.7553 46.7785 31.8929 46.7924 32.0294 46.7924C32.4564 46.7924 32.8758 46.6621 33.2777 46.4048C34.052 45.9095 34.1863 45.2614 34.1743 44.8365C34.3087 44.8643 34.4473 44.8781 34.585 44.8781C34.9858 44.8781 35.38 44.7607 35.7546 44.5269C36.2351 44.2269 36.5235 43.7678 36.5671 43.233C36.5977 42.87 36.506 42.5038 36.3094 42.1888C37.6068 41.6422 40.5719 40.5853 44.0634 39.8155C44.0427 39.5508 44.0033 39.2892 43.9553 39.0287C39.731 39.9458 36.5781 41.2792 35.7885 41.623Z" fill="#0A0080"/>
<path d="M109.213 37.4257C108.873 37.8667 108.387 38.0866 107.752 38.0866C107.117 38.0866 106.628 37.8667 106.286 37.4257C105.943 36.9847 105.773 36.3569 105.773 35.5444C105.773 34.7318 105.943 34.1061 106.286 33.6673C106.628 33.2295 107.117 33.0096 107.752 33.0096C108.387 33.0096 108.873 33.2295 109.213 33.6673C109.553 34.1061 109.724 34.7318 109.724 35.5444C109.724 36.3569 109.553 36.9847 109.213 37.4257ZM110.949 32.5024C110.248 31.645 109.186 31.2158 107.758 31.2158C106.333 31.2158 105.269 31.645 104.569 32.5024C103.868 33.3608 103.518 34.3741 103.518 35.5444C103.518 36.7349 103.868 37.7524 104.569 38.5991C105.269 39.4427 106.333 39.8665 107.758 39.8665C109.186 39.8665 110.248 39.4427 110.949 38.5991C111.651 37.7524 112 36.7349 112 35.5444C112 34.3741 111.651 33.3608 110.949 32.5024Z" fill="#0A0080"/>
<path d="M91.9426 36.422C91.9284 37.1342 91.7198 37.6254 91.319 37.8934C90.9182 38.1624 90.4802 38.298 90.0052 38.298C89.7048 38.298 89.4504 38.2158 89.2407 38.0546C89.031 37.8923 88.9273 37.6296 88.9273 37.2655C88.9273 36.8587 89.0976 36.5576 89.4405 36.3622C89.6448 36.249 89.9768 36.1508 90.442 36.0729L90.9378 35.9832C91.1847 35.9373 91.379 35.8881 91.521 35.8358C91.6652 35.7846 91.8039 35.7162 91.9426 35.6308V36.422ZM93.0467 31.7838C92.3357 31.4325 91.5232 31.2542 90.608 31.2542C89.2014 31.2542 88.2086 31.6129 87.6309 32.3294C87.2672 32.7885 87.0641 33.3726 87.0161 34.0847H89.1173C89.1697 33.7708 89.2724 33.5221 89.4274 33.3384C89.6448 33.0896 90.0128 32.9647 90.5338 32.9647C90.999 32.9647 91.3517 33.0266 91.592 33.1558C91.8312 33.2818 91.9513 33.5124 91.9513 33.8456C91.9513 34.12 91.7962 34.3207 91.4817 34.451C91.307 34.5257 91.0176 34.5876 90.6113 34.6378L89.8665 34.7275C89.0212 34.8311 88.3779 35.0062 87.9433 35.2507C87.1471 35.6992 86.7507 36.422 86.7507 37.4236C86.7507 38.1945 86.9964 38.7913 87.4911 39.212C87.9848 39.6327 88.6127 39.8089 89.3706 39.8441C94.1224 40.0512 94.0689 37.3958 94.1126 36.8427V33.7858C94.1126 32.8056 93.7566 32.1383 93.0467 31.7838Z" fill="#0A0080"/>
<path d="M82.2078 33.0759C82.7517 33.0759 83.1503 33.2404 83.4081 33.5682C83.585 33.8105 83.6953 34.0849 83.7379 34.3882H86.0826C85.9538 33.2318 85.5399 32.4246 84.8409 31.9666C84.1398 31.5117 83.2431 31.2821 82.1456 31.2821C80.8536 31.2821 79.8401 31.6697 79.1073 32.4438C78.3734 33.219 78.0065 34.3017 78.0065 35.694C78.0065 36.9262 78.3385 37.9309 79.0025 38.7061C79.6665 39.4791 80.7029 39.8667 82.1117 39.8667C83.5216 39.8667 84.5854 39.4033 85.3029 38.4744C85.7517 37.8989 86.004 37.2881 86.0575 36.6432H83.7215C83.6734 37.0693 83.5369 37.4173 83.3109 37.6853C83.0859 37.9523 82.7058 38.0868 82.1685 38.0868C81.4128 38.0868 80.8973 37.7505 80.6232 37.0735C80.4736 36.7137 80.3982 36.2364 80.3982 35.6417C80.3982 35.0181 80.4736 34.5184 80.6232 34.1415C80.9082 33.4326 81.4368 33.0759 82.2078 33.0759Z" fill="#0A0080"/>
<path d="M77.3796 31.2821C72.5645 31.2821 72.8495 35.4506 72.8495 35.4506V39.6841H75.0337V35.7132C75.0337 35.063 75.1178 34.5804 75.2849 34.2675C75.5841 33.7123 76.1706 33.4336 77.0443 33.4336C77.1098 33.4336 77.1961 33.4368 77.3031 33.4422C77.4091 33.4464 77.5303 33.456 77.669 33.4721V31.2982C77.5718 31.2917 77.5095 31.2896 77.4822 31.2864C77.4538 31.2843 77.42 31.2821 77.3796 31.2821Z" fill="#0A0080"/>
<path d="M66.4155 33.4945C66.7235 33.1859 67.1549 33.0311 67.7108 33.0311C68.2241 33.0311 68.6522 33.1763 68.9984 33.4689C69.3435 33.7593 69.5368 34.1874 69.5761 34.7501H65.8378C65.9153 34.2216 66.1086 33.8041 66.4155 33.4945ZM69.3522 37.4718C69.2605 37.5999 69.1622 37.7099 69.053 37.7953C68.745 38.0441 68.3256 38.1188 67.832 38.1188C67.3646 38.1188 66.9998 38.0494 66.6689 37.8455C66.1239 37.5188 65.817 36.9646 65.7843 36.1499H71.8302C71.839 35.4495 71.8149 34.9135 71.757 34.5398C71.6566 33.9045 71.436 33.3439 71.0963 32.8624C70.7195 32.3157 70.2401 31.9153 69.6613 31.6612C69.0836 31.4081 68.4337 31.2821 67.7108 31.2821C66.4931 31.2821 65.5047 31.6569 64.7424 32.4065C63.9801 33.1571 63.5979 34.2344 63.5979 35.6396C63.5979 37.1408 64.0205 38.2235 64.8658 38.8887C65.71 39.5539 66.6853 39.8881 67.7894 39.8881C69.1272 39.8881 70.168 39.493 70.9118 38.704C71.3126 38.2886 71.5637 37.8775 71.6697 37.4718H69.3522Z" fill="#0A0080"/>
<path d="M62.7238 39.6822H60.7274V34.7685C60.7274 34.32 60.5767 33.2523 59.2596 33.2523C58.3815 33.2523 57.747 33.8716 57.747 34.7685V39.6822H55.7495V34.7685C55.7495 34.32 55.613 33.2523 54.297 33.2523C53.4037 33.2523 52.7834 33.8716 52.7834 34.7685V39.6822H50.787V34.8155C50.787 32.7868 52.163 31.2524 54.297 31.2524C55.3564 31.2524 56.2181 31.6881 56.7783 32.3853C57.3681 31.6881 58.245 31.2524 59.2596 31.2524C61.4384 31.2524 62.7238 32.7248 62.7238 34.8155V39.6822Z" fill="#0A0080"/>
<path d="M100.246 37.4407C99.9275 37.8881 99.459 38.1112 98.8452 38.1112C98.2303 38.1112 97.7727 37.8859 97.4713 37.4375C97.1699 36.9869 97.0192 36.3334 97.0192 35.5839C97.0192 34.8888 97.1666 34.3069 97.4637 33.8382C97.7596 33.3694 98.2249 33.1345 98.8605 33.1345C99.2766 33.1345 99.6424 33.2626 99.9581 33.521C100.47 33.9481 100.727 34.7137 100.727 35.7067C100.727 36.4157 100.566 36.9944 100.246 37.4407ZM102.867 28.7141C102.867 28.7141 100.666 28.4845 100.666 30.2132L100.665 32.5014C100.421 32.1191 100.104 31.8191 99.7134 31.6045C99.3235 31.3888 98.8769 31.2799 98.3723 31.2799C97.2813 31.2799 96.4109 31.6771 95.7578 32.4715C95.1047 33.2658 94.7803 34.4105 94.7803 35.7953C94.7803 36.9965 95.1113 37.981 95.7731 38.7487C96.436 39.5142 97.7356 39.8506 98.8889 39.8506C102.912 39.8506 102.865 36.4765 102.865 36.4765L102.867 28.7141Z" fill="#0A0080"/>
<path d="M56.6331 47.4598C56.6331 46.6547 56.4725 46.0354 56.1504 45.6008C55.8293 45.1684 55.3695 44.9495 54.7688 44.9495C54.1922 44.9495 53.7412 45.1684 53.419 45.6008C53.1208 45.9938 52.9712 46.6152 52.9712 47.4598C52.9712 48.2478 53.1307 48.8339 53.4528 49.2269C53.7728 49.6614 54.2348 49.8782 54.8333 49.8782C55.3902 49.8782 55.8293 49.6614 56.1504 49.2269C56.4725 48.7934 56.6331 48.2061 56.6331 47.4598ZM52.9712 53.2405C52.9712 53.5288 52.8642 53.7776 52.648 53.9836C52.435 54.1908 52.1783 54.2943 51.878 54.2943H50.787V46.8704C50.787 45.4268 51.2839 44.5235 52.103 43.9117C52.6447 43.5081 53.4506 43.1226 54.9621 43.1226C55.9822 43.1226 57.1769 43.5102 57.8224 44.279C58.5465 45.1439 58.8479 46.108 58.8479 47.3669C58.8479 48.6695 58.5268 49.7202 57.8857 50.5284C57.2436 51.3143 56.4179 51.7051 55.411 51.7051C54.8759 51.7051 54.4052 51.6122 53.9989 51.4275C53.5686 51.2203 53.2279 50.9 52.9712 50.4654V53.2405Z" fill="#0A0080"/>
<path d="M69.7296 47.4616C69.7296 48.886 70.1512 49.675 70.9921 49.8309C71.8319 49.9836 72.4533 49.7925 72.853 49.2565C73.0431 49.0312 73.1785 48.6735 73.2637 48.1898C73.3467 47.7051 73.3532 47.2246 73.279 46.7505C73.2069 46.2743 73.0321 45.8515 72.758 45.4799C72.4861 45.1094 72.0853 44.9226 71.56 44.9226C70.8446 44.9226 70.3619 45.182 70.1086 45.6956C69.8552 46.2124 69.7296 46.8007 69.7296 47.4616ZM73.327 51.0215V50.4972C72.9492 51.0759 72.4369 51.4347 71.7959 51.5799C71.1548 51.724 70.5181 51.6728 69.8891 51.424C69.2567 51.1773 68.715 50.7182 68.2629 50.0477C67.8108 49.375 67.5858 48.4931 67.5858 47.3986C67.5858 46.1205 67.885 45.0827 68.4835 44.2883C69.0831 43.4939 70.0463 43.1309 71.371 43.0957C72.6761 43.0615 73.4351 43.3508 74.1789 43.9007C74.9914 44.504 75.4719 45.4287 75.4719 46.8733V51.2403C75.4752 52.6295 74.4836 55.2048 71.371 54.987C69.4424 54.8503 68.3721 54.0762 67.7747 52.3241H70.078C70.2462 52.6124 70.5028 52.8334 70.8512 52.9871C71.1963 53.1441 71.5458 53.1847 71.8898 53.1121C72.2371 53.0395 72.5527 52.8377 72.8388 52.5088C73.1217 52.1789 73.2844 51.6824 73.327 51.0215Z" fill="#0A0080"/>
<path d="M64.6087 48.3237C64.5945 49.0358 64.386 49.5259 63.9862 49.795C63.5854 50.063 63.1475 50.1975 62.6724 50.1975C62.371 50.1975 62.1165 50.1164 61.9079 49.9552C61.6983 49.7939 61.5934 49.5302 61.5934 49.1661C61.5934 48.7593 61.7649 48.4582 62.1078 48.2639C62.312 48.1496 62.644 48.0514 63.1082 47.9734L63.604 47.8837C63.8519 47.8378 64.0463 47.7887 64.1872 47.7364C64.3313 47.6851 64.47 47.6179 64.6087 47.5325V48.3237ZM65.7129 43.6854C65.0019 43.3341 64.1894 43.1558 63.2753 43.1558C61.8675 43.1558 60.8759 43.5146 60.2971 44.231C59.9345 44.6891 59.7303 45.2731 59.6833 45.9864H61.7856C61.837 45.6714 61.9396 45.4226 62.0947 45.239C62.312 44.9902 62.6801 44.8663 63.1999 44.8663C63.6673 44.8663 64.019 44.9283 64.2582 45.0564C64.4973 45.1834 64.6186 45.4141 64.6186 45.7472C64.6186 46.0206 64.4624 46.2224 64.149 46.3526C63.9753 46.4274 63.6848 46.4893 63.2786 46.5395L62.5337 46.6281C61.6884 46.7327 61.0452 46.9078 60.6105 47.1513C59.8144 47.5997 59.4168 48.3237 59.4168 49.3241C59.4168 50.095 59.6637 50.6919 60.1584 51.1126C60.652 51.5322 61.28 51.7105 62.0379 51.7447C66.7875 51.9518 66.7351 49.2953 66.7788 48.7433V45.6863C66.7788 44.7062 66.4238 44.0399 65.7129 43.6854Z" fill="#0A0080"/>
<path d="M81.9982 49.2798C81.6585 49.7218 81.1714 49.9418 80.5369 49.9418C79.9013 49.9418 79.412 49.7218 79.0713 49.2798C78.7273 48.8399 78.5569 48.2131 78.5569 47.4006C78.5569 46.588 78.7273 45.9624 79.0713 45.5235C79.412 45.0847 79.9013 44.8669 80.5369 44.8669C81.1714 44.8669 81.6585 45.0847 81.9982 45.5235C82.3378 45.9624 82.5082 46.588 82.5082 47.4006C82.5082 48.2131 82.3378 48.8399 81.9982 49.2798ZM83.7346 44.3586C83.0335 43.5002 81.9698 43.072 80.5424 43.072C79.1182 43.072 78.0534 43.5002 77.3534 44.3586C76.6523 45.216 76.3017 46.2293 76.3017 47.4006C76.3017 48.5911 76.6523 49.6076 77.3534 50.4543C78.0534 51.2978 79.1182 51.7217 80.5424 51.7217C81.9698 51.7217 83.0335 51.2978 83.7346 50.4543C84.4347 49.6076 84.7831 48.5911 84.7831 47.4006C84.7831 46.2293 84.4347 45.216 83.7346 44.3586Z" fill="#0A0080"/>
</svg>
