<svg width="49" height="49" viewBox="0 0 49 49" fill="none" xmlns="http://www.w3.org/2000/svg">
<path d="M5.11361 16.3169H43.8864C44.7023 16.3169 45.4121 16.0147 46.0159 15.4104C46.6197 14.8061 46.9216 14.0956 46.9216 13.2789C46.9216 12.4622 46.6197 11.7436 46.0159 11.1229C45.4121 10.5022 44.7023 10.1919 43.8864 10.1919H5.11361C4.29769 10.1919 3.58783 10.5022 2.98405 11.1229C2.38026 11.7436 2.07837 12.4622 2.07837 13.2789C2.07837 14.0956 2.38026 14.8061 2.98405 15.4104C3.58783 16.0147 4.29769 16.3169 5.11361 16.3169ZM5.11361 28.5669H43.8864C44.7023 28.5669 45.4121 28.2647 46.0159 27.6604C46.6197 27.0561 46.9216 26.3456 46.9216 25.5289C46.9216 24.7122 46.6197 23.9936 46.0159 23.3729C45.4121 22.7522 44.7023 22.4419 43.8864 22.4419H5.11361C4.29769 22.4419 3.58783 22.7522 2.98405 23.3729C2.38026 23.9936 2.07837 24.7122 2.07837 25.5289C2.07837 26.3456 2.38026 27.0561 2.98405 27.6604C3.58783 28.2647 4.29769 28.5669 5.11361 28.5669ZM5.11361 40.8169H43.8864C44.7023 40.8169 45.4121 40.5147 46.0159 39.9104C46.6197 39.3061 46.9216 38.5956 46.9216 37.7789C46.9216 36.9622 46.6197 36.2436 46.0159 35.6229C45.4121 35.0022 44.7023 34.6919 43.8864 34.6919H5.11361C4.29769 34.6919 3.58783 35.0022 2.98405 35.6229C2.38026 36.2436 2.07837 36.9622 2.07837 37.7789C2.07837 38.5956 2.38026 39.3061 2.98405 39.9104C3.58783 40.5147 4.29769 40.8169 5.11361 40.8169Z" fill="#0B70E2"/>
</svg>
